<?xml version="1.0" standalone="no"?>
<!DOCTYPE svg PUBLIC "-//W3C//DTD SVG 20010904//EN"
 "http://www.w3.org/TR/2001/REC-SVG-20010904/DTD/svg10.dtd">
<svg version="1.0" xmlns="http://www.w3.org/2000/svg"
 width="520.000000pt" height="520.000000pt" viewBox="0 0 520.000000 520.000000"
 preserveAspectRatio="xMidYMid meet">
<metadata>
Created by potrace 1.11, written by Peter Selinger 2001-2013
</metadata>
<g transform="translate(0.000000,520.000000) scale(0.100000,-0.100000)"
fill="#000000" stroke="none">
<path d="M827 5184 c-389 -71 -691 -352 -799 -744 l-23 -85 0 -1755 0 -1755
27 -99 c98 -354 358 -614 715 -714 l98 -27 1755 0 1755 0 100 28 c354 97 617
364 717 727 l23 85 0 1750 0 1750 -23 90 c-30 120 -116 294 -192 388 -135 168
-306 280 -525 345 l-90 27 -1730 2 c-1454 1 -1742 -1 -1808 -13z m1351 -434
c2 0 2 -10 0 -22 -2 -17 -20 -30 -78 -55 -91 -39 -90 -38 -90 -10 0 20 9 27
60 42 33 10 57 22 53 25 -4 4 -32 15 -60 25 -44 14 -53 21 -53 40 l0 24 82
-34 c45 -19 84 -35 86 -35z m239 0 c2 0 3 -9 3 -20 0 -16 -15 -28 -63 -49
-101 -45 -107 -46 -107 -18 0 21 8 26 60 42 33 10 57 22 53 25 -4 4 -32 15
-60 25 -44 14 -53 21 -53 40 l0 24 82 -34 c45 -19 84 -35 85 -35z m-717 -400
c0 -143 -1 -150 -20 -150 -11 0 -20 5 -20 12 0 9 -3 9 -12 0 -21 -21 -77 -14
-103 13 -20 19 -25 34 -25 74 0 28 5 61 11 75 16 34 62 52 94 38 25 -11 25
-11 25 38 0 47 2 50 25 50 l25 0 0 -150z m250 120 c0 -18 -7 -20 -70 -20 l-70
0 0 -45 0 -45 60 0 c53 0 60 -2 60 -20 0 -18 -7 -20 -60 -20 l-60 0 0 -60 c0
-53 -2 -60 -20 -60 -19 0 -20 7 -20 145 l0 145 90 0 c83 0 90 -1 90 -20z
m-570 -420 c0 -43 -3 -50 -20 -50 -17 0 -20 7 -20 50 0 43 3 50 20 50 17 0 20
-7 20 -50z m670 -1 c0 -48 1 -50 23 -43 36 13 68 7 91 -15 17 -18 21 -34 21
-86 0 -72 -22 -108 -66 -106 -13 0 -45 1 -71 1 l-48 0 0 150 0 150 25 0 c23 0
25 -3 25 -51z m-368 11 c22 -28 23 -73 2 -95 -15 -14 -15 -18 -1 -33 40 -45
27 -105 -27 -127 -45 -19 -91 -10 -116 23 -25 32 -25 63 0 95 17 22 18 26 5
37 -9 7 -15 29 -15 50 0 30 6 43 28 60 34 28 98 22 124 -10z m240 0 c22 -27
23 -69 4 -95 -12 -17 -12 -22 5 -44 25 -32 24 -64 -4 -97 -20 -23 -32 -27 -72
-27 -40 0 -52 4 -72 27 -28 33 -29 65 -4 97 17 22 17 27 5 44 -22 30 -17 73
12 102 22 22 32 25 67 20 26 -4 49 -14 59 -27z m368 -104 c0 -107 21 -142 70
-116 18 9 20 20 20 90 0 79 0 80 25 80 l25 0 0 -105 0 -105 -25 0 c-14 0 -25
4 -25 9 0 5 -13 3 -29 -5 -34 -17 -74 -6 -90 25 -6 11 -11 56 -11 100 0 74 2
81 20 81 18 0 20 -7 20 -54z m318 -127 c3 -28 -16 -43 -43 -33 -15 6 -21 45
-8 58 16 16 48 1 51 -25z m-1228 -179 c0 -43 -3 -50 -20 -50 -17 0 -20 7 -20
43 0 46 5 57 27 57 9 0 13 -15 13 -50z m1640 1 l0 -49 43 5 c36 4 46 1 66 -21
30 -32 35 -119 8 -159 -18 -28 -67 -43 -94 -29 -10 6 -31 8 -46 5 l-27 -5 0
151 0 151 25 0 c23 0 25 -3 25 -49z m-1131 28 c49 -17 67 -73 37 -115 -12 -16
-13 -21 0 -35 61 -68 -16 -160 -109 -129 -55 17 -73 77 -37 123 17 22 18 26 5
37 -34 29 -8 114 38 123 12 2 25 5 28 6 3 0 20 -4 38 -10z m240 0 c17 -6 36
-19 41 -29 15 -28 12 -76 -5 -90 -13 -11 -12 -15 5 -37 27 -34 25 -66 -4 -100
-20 -23 -32 -28 -71 -28 -39 0 -51 5 -72 29 -27 32 -26 74 1 105 13 14 12 19
0 35 -29 40 -15 92 30 112 38 16 36 16 75 3z m273 -16 c22 -20 24 -85 3 -103
-13 -11 -12 -15 5 -37 23 -29 25 -70 6 -95 -32 -42 -116 -46 -152 -7 -22 25
-24 82 -2 106 14 16 15 20 2 37 -29 40 -15 92 30 112 36 16 82 11 108 -13z
m241 -2 c23 -23 25 -76 3 -99 -15 -18 -15 -20 4 -37 26 -24 26 -79 1 -104 -67
-67 -195 -4 -161 79 7 16 18 31 26 34 12 4 11 9 -6 26 -23 23 -25 48 -9 84 22
47 103 56 142 17z m238 3 c29 -26 33 -64 10 -95 -20 -27 -20 -27 0 -44 20 -19
25 -65 9 -94 -22 -43 -111 -51 -152 -14 -25 22 -24 88 1 110 17 14 17 18 5 30
-36 37 -21 102 29 123 28 12 76 4 98 -16z m-1243 -74 c-3 -33 -1 -39 12 -34
36 15 57 15 63 0 5 -12 -1 -18 -23 -23 -41 -8 -46 -20 -20 -48 22 -23 20 -45
-3 -45 -7 0 -20 14 -30 32 l-18 32 -19 -32 c-11 -18 -24 -32 -29 -32 -21 0
-21 21 -2 49 12 16 21 31 21 34 0 3 -15 8 -34 11 -28 5 -33 10 -29 26 6 23 10
24 43 5 36 -21 39 -19 33 25 -5 36 -4 40 17 40 20 0 22 -4 18 -40z m1624 -61
c2 -65 7 -84 21 -93 12 -8 22 -8 35 0 13 9 18 29 22 90 5 73 7 79 28 82 22 3
22 2 22 -102 0 -99 -1 -106 -20 -106 -11 0 -20 4 -20 10 0 5 -13 2 -29 -8 -23
-13 -36 -14 -57 -7 -40 14 -54 49 -54 138 0 75 1 77 25 77 23 0 24 -2 27 -81z
m-1192 -279 c0 -43 -3 -50 -20 -50 -17 0 -20 7 -20 43 0 46 5 57 27 57 9 0 13
-15 13 -50z m78 21 c5 -35 -7 -71 -23 -71 -11 0 -15 13 -15 51 0 43 3 50 18
47 9 -2 18 -14 20 -27z m-254 -43 c38 -87 40 -98 18 -98 -14 0 -25 14 -38 48
l-18 47 -20 -47 c-13 -32 -26 -48 -38 -48 -22 0 -22 -1 -3 44 8 20 22 52 29
71 21 50 43 44 70 -17z m744 35 c12 -10 22 -27 23 -38 4 -29 -10 -75 -22 -75
-6 0 -1 -12 10 -26 45 -58 16 -123 -60 -131 -38 -4 -50 -1 -74 19 -33 29 -38
77 -11 107 17 18 17 22 2 43 -22 30 -20 60 5 92 16 21 29 26 64 26 26 0 51 -7
63 -17z m233 6 c30 -15 42 -57 28 -91 -6 -15 -16 -28 -22 -28 -6 0 -1 -10 11
-23 51 -54 10 -137 -66 -137 -56 0 -92 31 -92 77 0 20 7 44 16 54 15 16 15 20
0 41 -22 30 -20 60 5 92 16 20 29 26 60 26 22 0 49 -5 60 -11z m256 -15 c20
-20 24 -31 19 -57 -3 -18 -13 -37 -21 -43 -13 -10 -12 -14 5 -29 31 -28 27
-88 -6 -114 -60 -47 -154 -13 -154 57 0 23 8 44 22 59 12 13 17 23 11 23 -16
0 -34 50 -27 74 12 40 35 56 81 56 34 0 50 -6 70 -26z m242 0 c26 -33 27 -68
2 -93 -19 -19 -19 -20 0 -37 12 -11 19 -30 19 -55 0 -54 -38 -83 -100 -76 -75
8 -104 73 -59 131 11 14 16 26 11 26 -18 0 -34 55 -23 82 13 35 37 47 88 48
33 0 46 -5 62 -26z m172 -66 l44 -93 3 93 c3 91 3 92 28 92 l25 0 -3 -142 c-3
-140 -3 -143 -26 -146 -20 -3 -28 9 -67 90 l-44 93 -3 -90 c-3 -85 -4 -90 -25
-93 -23 -3 -23 -3 -23 142 l0 146 23 0 c20 0 31 -15 68 -92z m-1181 1 c0 -35
2 -40 18 -34 29 13 57 11 57 -4 0 -8 -15 -19 -33 -23 -34 -9 -34 -15 -4 -51
14 -16 14 -19 0 -34 -15 -14 -18 -12 -36 22 l-19 38 -19 -31 c-10 -18 -24 -32
-31 -32 -25 0 -24 23 2 50 l28 29 -34 9 c-40 10 -57 48 -17 40 12 -3 32 -9 42
-13 17 -8 19 -5 13 33 -4 37 -3 42 14 42 16 0 19 -7 19 -41z m-790 -349 c0
-47 1 -50 19 -40 30 15 56 12 84 -10 45 -35 48 -139 6 -181 -21 -21 -78 -26
-97 -7 -9 9 -12 9 -12 0 0 -7 -11 -12 -25 -12 l-25 0 0 150 0 150 25 0 c23 0
25 -3 25 -50z m1226 34 c-3 -9 -6 -31 -6 -50 0 -24 -5 -34 -15 -34 -11 0 -15
12 -15 50 0 44 2 50 21 50 15 0 19 -4 15 -16z m72 -31 c-2 -35 -7 -48 -18 -48
-11 0 -16 13 -18 48 -3 42 -1 47 18 47 19 0 21 -5 18 -47z m-832 -43 c3 -45 9
-78 12 -75 3 3 11 38 17 78 8 55 15 73 28 75 20 4 22 0 38 -98 l13 -75 11 85
c9 78 12 85 33 88 21 3 23 1 18 -25 -3 -15 -10 -71 -16 -123 -16 -137 -17
-142 -43 -138 -19 3 -23 12 -34 81 -17 111 -18 112 -33 9 -12 -86 -14 -92 -36
-92 -13 0 -24 3 -24 8 0 4 -7 54 -15 112 -20 147 -20 170 4 170 17 0 21 -10
27 -80z m394 60 c0 -18 -7 -20 -65 -20 l-65 0 0 -40 0 -40 55 0 c48 0 55 -2
55 -20 0 -18 -7 -20 -55 -20 l-55 0 0 -45 0 -45 65 0 c58 0 65 -2 65 -20 0
-19 -7 -20 -90 -20 l-90 0 0 145 0 145 90 0 c83 0 90 -1 90 -20z m687 5 c30
-21 39 -69 18 -101 -15 -23 -15 -27 -1 -43 26 -29 21 -86 -10 -110 -58 -46
-154 -13 -154 53 0 17 7 41 15 53 13 18 13 24 -1 51 -18 37 -10 77 19 97 28
19 87 19 114 0z m248 -10 c29 -28 32 -61 9 -93 -15 -21 -15 -25 0 -41 16 -18
21 -77 8 -97 -25 -38 -105 -45 -146 -13 -32 25 -36 79 -7 108 16 16 17 22 6
31 -32 26 -21 108 17 123 36 15 90 6 113 -18z m240 0 c29 -28 32 -61 9 -93
-14 -20 -14 -25 -2 -40 33 -38 28 -90 -10 -118 -30 -23 -100 -17 -127 11 -30
29 -33 77 -7 103 16 16 17 22 5 37 -20 29 -16 81 9 105 32 29 92 27 123 -5z
m135 -100 l0 -125 70 0 c63 0 70 -2 70 -20 0 -19 -7 -20 -90 -20 l-90 0 0 145
c0 138 1 145 20 145 19 0 20 -7 20 -125z m-1812 20 c13 -16 22 -39 22 -61 l0
-34 -70 0 c-51 0 -70 -4 -70 -13 0 -33 58 -49 100 -27 13 7 21 6 29 -4 17 -20
-28 -46 -79 -46 -59 0 -100 42 -100 102 1 50 18 85 51 105 34 19 89 9 117 -22z
m-246 -325 c22 -28 23 -73 2 -95 -15 -14 -15 -18 -1 -33 41 -45 24 -110 -33
-128 -89 -29 -164 50 -111 117 17 22 17 27 5 44 -24 32 -18 81 14 105 34 28
98 22 124 -10z m232 9 c30 -24 36 -78 10 -103 -14 -15 -14 -18 5 -42 38 -48
18 -106 -42 -122 -89 -24 -159 54 -108 119 17 22 17 27 5 44 -8 10 -14 33 -14
51 0 40 39 74 85 74 18 0 44 -9 59 -21z m240 0 c30 -23 35 -72 12 -104 -12
-17 -12 -22 5 -44 10 -13 19 -34 19 -47 0 -70 -111 -103 -165 -49 -30 29 -32
64 -6 96 17 22 17 27 5 44 -37 50 4 125 69 125 20 0 46 -9 61 -21z m276 1 c0
-18 -7 -20 -65 -20 l-65 0 0 -40 0 -40 55 0 c48 0 55 -2 55 -20 0 -18 -7 -20
-55 -20 l-55 0 0 -45 0 -45 65 0 c58 0 65 -2 65 -20 0 -19 -7 -20 -90 -20
l-90 0 0 145 0 145 90 0 c83 0 90 -1 90 -20z m673 9 c24 -11 47 -47 47 -73 0
-8 -8 -24 -18 -36 -18 -23 -18 -24 0 -42 41 -41 12 -119 -49 -131 -36 -7 -91
11 -103 33 -16 30 -12 78 8 98 18 18 18 19 0 42 -53 66 32 147 115 109z m269
-19 c23 -28 23 -62 0 -90 -18 -23 -18 -24 0 -42 25 -25 24 -82 -2 -108 -31
-31 -102 -30 -137 3 -29 26 -31 79 -3 107 12 12 15 22 9 26 -36 22 -27 102 14
123 33 16 99 6 119 -19z m240 0 c24 -29 23 -73 -2 -95 -20 -18 -20 -18 -1 -31
40 -28 34 -101 -10 -125 -36 -19 -98 -13 -125 12 -30 28 -31 75 -4 104 18 20
19 23 5 35 -15 13 -21 76 -7 96 26 39 114 42 144 4z m266 8 c3 -16 -5 -18 -67
-18 l-71 0 0 -40 0 -40 60 0 c53 0 60 -2 60 -20 0 -18 -7 -20 -60 -20 l-60 0
0 -45 0 -45 70 0 c63 0 70 -2 70 -20 0 -19 -7 -20 -95 -20 l-95 0 0 138 c0 76
3 142 7 146 4 4 45 5 92 4 72 -3 86 -6 89 -20z m-2219 -393 c45 -23 56 -80 22
-114 -17 -17 -17 -19 -1 -29 43 -27 29 -105 -23 -130 -87 -42 -174 48 -117
121 17 22 18 26 5 37 -21 17 -19 83 3 102 34 31 70 35 111 13z m264 -16 c21
-26 22 -68 3 -94 -12 -17 -12 -22 5 -44 26 -32 24 -64 -5 -98 -20 -23 -32 -28
-71 -28 -39 0 -51 5 -71 28 -29 34 -31 66 -4 100 17 22 18 26 5 37 -17 14 -20
63 -4 91 23 43 109 48 142 8z m238 5 c23 -21 26 -86 4 -104 -13 -11 -12 -15 5
-37 27 -34 25 -66 -4 -100 -20 -23 -32 -28 -71 -28 -39 0 -51 5 -71 28 -29 34
-31 66 -5 98 17 22 17 27 5 44 -27 37 -12 98 29 115 30 13 85 5 108 -16z m936
16 c28 -10 53 -45 53 -74 0 -7 -9 -25 -20 -38 -19 -25 -19 -26 0 -43 22 -19
26 -65 10 -95 -15 -29 -73 -44 -115 -30 -19 6 -40 20 -45 30 -16 31 -12 79 9
97 20 16 20 17 0 41 -23 30 -24 50 -3 80 27 38 63 48 111 32z m240 0 c28 -10
53 -45 53 -74 0 -7 -9 -24 -19 -38 -20 -24 -20 -25 0 -42 15 -13 19 -27 17
-59 -3 -38 -7 -44 -41 -61 -33 -16 -45 -17 -78 -7 -21 6 -43 20 -49 31 -16 30
-12 75 10 95 19 17 19 19 3 37 -33 36 -16 99 32 118 28 12 37 12 72 0z m239 0
c54 -21 72 -82 34 -120 -11 -11 -15 -20 -10 -20 6 0 18 -15 26 -34 14 -29 15
-37 3 -62 -18 -38 -61 -58 -105 -49 -68 12 -95 76 -54 128 17 22 18 26 5 37
-21 17 -19 83 3 102 32 28 58 33 98 18z m-1146 -20 c0 -18 -7 -20 -65 -20
l-65 0 0 -40 0 -40 55 0 c48 0 55 -2 55 -20 0 -18 -7 -20 -55 -20 l-55 0 0
-40 0 -40 65 0 c58 0 65 -2 65 -20 0 -19 -7 -20 -90 -20 l-90 0 0 140 0 140
90 0 c83 0 90 -1 90 -20z m1448 3 c-3 -15 -16 -19 -71 -21 l-67 -3 0 -39 0
-40 61 0 c52 0 60 -2 57 -17 -2 -14 -15 -19 -61 -21 l-57 -3 0 -39 0 -39 67
-3 c55 -2 68 -6 71 -20 3 -16 -6 -18 -92 -18 l-96 0 0 140 0 140 96 0 c86 0
95 -2 92 -17z m-2192 -410 c18 -24 17 -64 -2 -92 -10 -14 -13 -26 -7 -30 14
-9 33 -47 33 -66 0 -29 -55 -75 -90 -75 -85 0 -128 71 -80 133 17 22 18 26 5
37 -18 15 -20 70 -2 93 27 38 114 38 143 0z m242 0 c17 -24 15 -73 -4 -94 -15
-16 -15 -20 -1 -34 53 -53 12 -135 -68 -135 -78 0 -120 75 -75 133 17 22 18
26 5 37 -18 15 -20 70 -2 93 27 38 117 38 145 0z m240 0 c17 -23 15 -78 -3
-93 -12 -10 -11 -16 7 -40 56 -76 -34 -161 -126 -119 -46 21 -58 106 -18 128
15 9 15 11 -1 28 -20 23 -22 72 -4 96 27 38 117 38 145 0z m963 -2 c23 -29 20
-78 -6 -97 -13 -10 -12 -14 5 -29 13 -12 20 -31 20 -55 0 -51 -28 -75 -90 -75
-33 0 -54 6 -69 19 -28 26 -28 82 1 113 12 13 17 23 11 23 -19 0 -35 54 -24
81 11 31 29 46 61 51 42 6 70 -3 91 -31z m239 1 c25 -31 25 -67 1 -91 -19 -19
-19 -20 0 -37 12 -11 19 -30 19 -55 0 -54 -38 -83 -100 -76 -75 8 -104 73 -59
131 11 14 16 26 11 26 -5 0 -15 13 -21 28 -20 48 8 96 59 104 42 6 69 -3 90
-30z m240 0 c24 -30 25 -60 4 -90 -15 -21 -15 -25 2 -43 27 -30 22 -78 -11
-107 -24 -20 -36 -23 -74 -19 -75 8 -105 73 -61 130 17 22 18 26 5 37 -19 16
-20 84 -1 99 20 17 66 28 94 23 12 -2 31 -16 42 -30z m-1180 8 c0 -18 -7 -20
-65 -20 l-65 0 0 -40 0 -40 55 0 c48 0 55 -2 55 -20 0 -18 -7 -20 -55 -20
l-55 0 0 -45 0 -45 65 0 c58 0 65 -2 65 -20 0 -19 -7 -20 -90 -20 l-90 0 0
145 0 145 90 0 c83 0 90 -1 90 -20z m1450 0 c0 -18 -7 -20 -70 -20 l-70 0 0
-40 0 -40 60 0 c53 0 60 -2 60 -20 0 -16 -8 -19 -57 -22 l-58 -3 -3 -63 c-3
-59 -5 -63 -25 -60 -21 3 -22 7 -25 146 l-3 142 96 0 c88 0 95 -1 95 -20z
m-2206 -401 c30 -24 34 -63 11 -97 -15 -20 -14 -24 6 -51 41 -56 -1 -121 -78
-121 -79 0 -123 80 -73 130 19 19 19 22 5 36 -23 23 -19 79 7 104 29 27 87 27
122 -1z m240 0 c30 -24 35 -72 10 -100 -14 -16 -14 -20 6 -47 43 -59 2 -122
-80 -122 -46 0 -90 34 -90 70 0 24 18 61 34 72 7 4 4 13 -7 26 -24 26 -22 77
5 102 29 27 87 27 122 -1z m244 1 c27 -25 29 -76 5 -102 -11 -13 -14 -22 -7
-26 6 -4 16 -17 23 -29 30 -58 -10 -113 -84 -113 -77 0 -118 65 -75 122 20 27
20 31 6 47 -23 25 -20 71 6 98 28 30 95 32 126 3z m176 -72 l44 -93 1 93 c1
91 1 92 26 92 l25 0 0 -145 c0 -144 0 -145 -23 -145 -18 0 -31 17 -69 93 l-47
92 0 -92 c-1 -92 -1 -93 -26 -93 l-25 0 0 145 0 145 24 0 c21 0 31 -13 70 -92z
m783 77 c30 -21 39 -69 18 -101 -15 -23 -15 -27 -1 -43 26 -29 21 -86 -10
-110 -35 -27 -93 -27 -128 0 -30 24 -36 81 -11 109 13 15 13 20 0 48 -19 37
-11 76 18 97 28 19 87 19 114 0z m248 -10 c29 -28 32 -61 9 -93 -15 -21 -15
-25 0 -41 26 -29 21 -86 -10 -110 -58 -46 -154 -13 -154 53 0 17 7 41 15 54
14 19 14 24 0 52 -30 58 6 110 78 110 27 0 45 -7 62 -25z m240 0 c29 -28 32
-61 9 -93 -14 -20 -14 -25 -2 -40 23 -27 28 -49 17 -80 -12 -34 -45 -52 -95
-52 -70 0 -111 83 -64 130 19 19 19 22 5 36 -22 22 -19 80 5 104 29 29 94 27
125 -5z m-2200 -215 c13 -20 -6 -50 -31 -50 -26 0 -40 20 -30 45 6 17 51 20
61 5z m1200 -20 c0 -18 -6 -26 -23 -28 -24 -4 -38 18 -28 44 3 9 15 14 28 12
17 -2 23 -10 23 -28z m248 11 c6 -23 -10 -41 -35 -41 -21 0 -33 22 -24 45 8
22 53 19 59 -4z m-1025 -188 c-2 -35 -7 -48 -18 -48 -11 0 -16 13 -18 48 -3
42 -1 47 18 47 19 0 21 -5 18 -47z m82 28 c0 -40 -13 -81 -26 -81 -10 0 -14
14 -14 50 0 43 3 50 20 50 13 0 20 -7 20 -19z m1126 -12 c-3 -17 -6 -40 -6
-50 0 -11 -7 -19 -15 -19 -11 0 -15 12 -15 50 0 44 2 50 21 50 19 0 21 -4 15
-31z m74 -19 c0 -38 -4 -50 -15 -50 -11 0 -15 12 -15 50 0 38 4 50 15 50 11 0
15 -12 15 -50z m170 31 c0 -40 -13 -81 -26 -81 -10 0 -14 14 -14 50 0 43 3 50
20 50 13 0 20 -7 20 -19z m70 -31 c0 -38 -4 -50 -15 -50 -11 0 -15 12 -15 50
0 38 4 50 15 50 11 0 15 -12 15 -50z m-1706 15 c16 -24 16 -25 -8 -25 -14 0
-30 10 -40 25 -16 24 -16 25 8 25 14 0 30 -10 40 -25z m510 4 c30 -24 36 -78
10 -103 -14 -15 -14 -18 5 -42 46 -59 7 -124 -74 -124 -81 0 -120 65 -74 124
20 25 20 28 5 45 -40 44 2 121 67 121 20 0 46 -9 61 -21z m240 0 c30 -24 35
-71 11 -106 -13 -18 -12 -22 5 -38 28 -25 25 -70 -5 -100 -31 -32 -101 -35
-136 -6 -29 23 -31 81 -4 111 17 19 17 21 2 38 -41 45 1 122 66 122 20 0 46
-9 61 -21z m230 10 c43 -20 54 -100 17 -124 -7 -4 -3 -14 9 -27 26 -28 25 -68
-1 -102 -17 -21 -29 -26 -65 -26 -57 0 -79 12 -93 50 -11 33 -7 55 17 82 12
15 12 20 -2 40 -50 71 33 145 118 107z m218 -87 l-4 -43 31 16 c33 17 51 13
51 -10 0 -7 -16 -17 -36 -22 l-36 -8 22 -28 c21 -27 21 -57 1 -57 -6 0 -19 16
-29 36 l-18 35 -19 -35 c-21 -39 -25 -42 -42 -25 -9 9 -6 20 13 45 l25 33 -36
7 c-26 5 -35 11 -33 23 4 16 16 18 56 5 20 -6 22 -3 22 36 0 34 3 41 18 38 14
-3 16 -12 14 -46z m194 -323 c-3 -17 -6 -40 -6 -50 0 -11 -7 -19 -15 -19 -11
0 -15 12 -15 50 0 44 2 50 21 50 19 0 21 -4 15 -31z m74 -19 c0 -38 -4 -50
-15 -50 -11 0 -15 12 -15 50 0 38 4 50 15 50 11 0 15 -12 15 -50z m170 31 c0
-40 -13 -81 -26 -81 -10 0 -14 14 -14 50 0 43 3 50 20 50 13 0 20 -7 20 -19z
m70 -31 c0 -38 -4 -50 -15 -50 -11 0 -15 12 -15 50 0 38 4 50 15 50 11 0 15
-12 15 -50z"/>
<path d="M1581 4367 c-39 -47 -14 -131 37 -125 26 3 27 6 30 62 3 61 -5 76
-39 76 -9 0 -22 -6 -28 -13z"/>
<path d="M2066 3964 c-35 -34 -13 -134 29 -134 26 0 45 31 45 75 0 44 -19 75
-45 75 -7 0 -21 -7 -29 -16z"/>
<path d="M1578 4025 c-14 -32 5 -57 41 -53 18 2 27 10 29 26 7 50 -49 72 -70
27z"/>
<path d="M1588 3919 c-25 -14 -23 -65 2 -79 48 -26 91 30 55 70 -20 22 -32 24
-57 9z"/>
<path d="M1824 4036 c-3 -8 -4 -25 -2 -38 2 -18 9 -23 33 -23 26 0 30 4 33 29
2 16 -2 32 -10 37 -20 13 -48 11 -54 -5z"/>
<path d="M1828 3919 c-26 -15 -23 -65 3 -80 50 -26 93 35 53 75 -18 18 -32 20
-56 5z"/>
<path d="M3027 3563 c-12 -11 -8 -108 5 -121 45 -45 102 45 68 109 -10 19 -59
27 -73 12z"/>
<path d="M1833 3643 c-18 -7 -16 -58 3 -74 33 -27 72 33 44 67 -13 14 -25 16
-47 7z"/>
<path d="M1822 3508 c-28 -28 -7 -78 33 -78 27 0 45 18 45 45 0 27 -18 45 -45
45 -12 0 -26 -5 -33 -12z"/>
<path d="M2071 3636 c-17 -20 -10 -56 12 -70 15 -9 22 -7 38 13 17 21 18 26 6
45 -18 26 -40 31 -56 12z"/>
<path d="M2062 3508 c-28 -28 -7 -78 33 -78 27 0 45 18 45 45 0 27 -18 45 -45
45 -12 0 -26 -5 -33 -12z"/>
<path d="M2312 3638 c-24 -24 -8 -78 24 -78 17 0 44 28 44 45 0 17 -27 45 -44
45 -6 0 -17 -5 -24 -12z"/>
<path d="M2300 3504 c-22 -26 -1 -69 34 -69 35 0 51 23 42 58 -5 21 -12 27
-35 27 -16 0 -34 -7 -41 -16z"/>
<path d="M2552 3638 c-24 -24 -8 -78 24 -78 17 0 44 28 44 45 0 17 -27 45 -44
45 -6 0 -17 -5 -24 -12z"/>
<path d="M2540 3505 c-20 -25 -1 -69 31 -73 32 -4 51 18 47 55 -2 23 -8 29
-34 31 -19 2 -36 -3 -44 -13z"/>
<path d="M2792 3638 c-17 -17 -15 -53 3 -68 20 -16 65 2 65 25 0 45 -41 70
-68 43z"/>
<path d="M2780 3500 c-15 -29 -4 -59 26 -66 34 -9 56 12 52 50 -3 27 -7 31
-35 34 -24 2 -34 -2 -43 -18z"/>
<path d="M2556 3237 c-38 -27 2 -96 42 -71 24 16 27 42 6 65 -20 23 -25 23
-48 6z"/>
<path d="M2539 3099 c-16 -30 3 -69 34 -69 29 0 47 17 47 45 0 45 -60 63 -81
24z"/>
<path d="M2796 3237 c-38 -27 2 -95 42 -71 23 15 27 48 7 68 -20 19 -26 20
-49 3z"/>
<path d="M2779 3099 c-8 -16 -8 -28 0 -46 9 -20 17 -24 44 -21 28 3 32 7 35
37 2 20 -2 37 -10 42 -24 16 -57 9 -69 -12z"/>
<path d="M3036 3237 c-38 -27 2 -95 42 -71 23 15 27 48 7 68 -20 19 -26 20
-49 3z"/>
<path d="M3034 3112 c-18 -12 -24 -42 -14 -63 16 -29 67 -26 81 5 21 44 -27
86 -67 58z"/>
<path d="M3275 3234 c-20 -20 -16 -53 8 -68 39 -24 79 44 41 71 -23 17 -29 16
-49 -3z"/>
<path d="M3272 3111 c-8 -5 -12 -22 -10 -42 3 -30 7 -34 35 -37 27 -3 35 1 44
21 21 47 -25 86 -69 58z"/>
<path d="M1582 2758 c-7 -7 -12 -33 -12 -58 0 -50 13 -70 45 -70 32 0 45 20
45 66 0 61 -44 96 -78 62z"/>
<path d="M3024 2816 c-12 -49 43 -76 70 -33 15 24 -3 51 -37 55 -21 3 -28 -2
-33 -22z"/>
<path d="M3025 2696 c-23 -34 -5 -66 35 -66 40 0 58 32 35 66 -8 13 -24 24
-35 24 -11 0 -27 -11 -35 -24z"/>
<path d="M3272 2828 c-27 -27 -6 -68 34 -68 25 0 39 28 29 60 -7 22 -44 27
-63 8z"/>
<path d="M3271 2706 c-7 -8 -11 -27 -9 -43 2 -22 9 -29 31 -31 52 -6 76 38 39
71 -23 21 -46 22 -61 3z"/>
<path d="M3512 2828 c-29 -29 -3 -72 40 -66 19 2 23 9 23 38 0 30 -4 35 -25
38 -14 2 -31 -3 -38 -10z"/>
<path d="M3511 2706 c-7 -8 -11 -27 -9 -43 2 -22 9 -29 31 -31 50 -6 75 38 41
72 -19 20 -48 20 -63 2z"/>
<path d="M1826 2754 c-26 -25 -19 -34 29 -34 46 0 58 13 33 38 -17 17 -44 15
-62 -4z"/>
<path d="M1580 2420 c-16 -31 4 -62 38 -58 21 2 28 9 30 32 5 45 -47 65 -68
26z"/>
<path d="M1588 2309 c-25 -14 -23 -65 2 -79 48 -26 91 30 55 70 -20 22 -32 24
-57 9z"/>
<path d="M1824 2426 c-3 -8 -4 -25 -2 -38 2 -18 9 -23 33 -23 28 0 30 3 30 35
0 31 -3 35 -28 38 -17 2 -29 -2 -33 -12z"/>
<path d="M1828 2309 c-25 -14 -24 -65 1 -79 27 -14 37 -13 55 6 20 20 20 48 0
68 -18 18 -32 20 -56 5z"/>
<path d="M2064 2426 c-12 -32 0 -61 28 -64 34 -4 54 27 38 58 -12 23 -58 27
-66 6z"/>
<path d="M2066 2304 c-9 -8 -16 -24 -16 -34 0 -20 25 -50 41 -50 24 0 49 23
49 45 0 26 -24 55 -45 55 -7 0 -21 -7 -29 -16z"/>
<path d="M3030 2425 c-7 -8 -10 -25 -6 -40 5 -20 13 -25 36 -25 23 0 31 5 36
25 7 29 -10 55 -36 55 -10 0 -23 -7 -30 -15z"/>
<path d="M3030 2300 c-25 -25 -25 -32 -2 -60 36 -45 99 7 67 56 -19 29 -38 31
-65 4z"/>
<path d="M3272 2428 c-29 -29 -2 -72 40 -66 42 6 32 78 -11 78 -9 0 -22 -5
-29 -12z"/>
<path d="M3278 2309 c-28 -16 -23 -67 7 -81 21 -9 28 -8 45 7 25 23 26 47 2
68 -21 19 -30 20 -54 6z"/>
<path d="M3512 2428 c-29 -29 -2 -72 40 -66 42 6 32 78 -11 78 -9 0 -22 -5
-29 -12z"/>
<path d="M3518 2309 c-28 -16 -23 -67 7 -81 21 -9 28 -8 45 7 25 23 26 47 2
68 -21 19 -30 20 -54 6z"/>
<path d="M1586 2024 c-21 -21 -20 -37 5 -60 24 -22 52 -10 57 25 7 43 -32 65
-62 35z"/>
<path d="M1577 1903 c-13 -12 -7 -61 9 -73 38 -32 95 27 64 66 -13 14 -61 19
-73 7z"/>
<path d="M1833 2033 c-18 -7 -16 -58 3 -74 33 -27 72 33 44 67 -13 14 -25 16
-47 7z"/>
<path d="M1820 1896 c-31 -38 9 -89 54 -68 45 20 30 82 -20 82 -12 0 -27 -7
-34 -14z"/>
<path d="M2070 2026 c-16 -20 -9 -56 13 -70 15 -9 22 -7 37 12 19 23 17 50 -4
64 -17 12 -32 9 -46 -6z"/>
<path d="M2062 1898 c-7 -7 -12 -21 -12 -33 0 -12 5 -26 12 -33 7 -7 21 -12
33 -12 12 0 26 5 33 12 7 7 12 21 12 33 0 12 -5 26 -12 33 -7 7 -21 12 -33 12
-12 0 -26 -5 -33 -12z"/>
<path d="M3030 2025 c-15 -18 -6 -61 16 -69 24 -9 54 12 54 37 0 43 -44 63
-70 32z"/>
<path d="M3020 1889 c-9 -16 -8 -26 5 -45 19 -29 46 -31 70 -4 15 17 16 24 7
45 -15 32 -66 35 -82 4z"/>
<path d="M3270 2025 c-15 -18 -6 -61 16 -69 24 -9 54 12 54 37 0 43 -44 63
-70 32z"/>
<path d="M3267 1903 c-13 -12 -7 -60 8 -73 8 -7 25 -10 39 -6 51 13 40 86 -13
86 -15 0 -31 -3 -34 -7z"/>
<path d="M3510 2020 c-14 -27 -4 -57 21 -65 25 -8 49 11 49 39 0 45 -50 63
-70 26z"/>
<path d="M3507 1903 c-13 -12 -7 -60 8 -73 38 -31 96 27 65 65 -13 15 -61 21
-73 8z"/>
<path d="M1585 1620 c-35 -38 17 -94 53 -58 18 18 14 56 -7 68 -26 13 -25 13
-46 -10z"/>
<path d="M1582 1498 c-7 -7 -12 -21 -12 -33 0 -12 5 -26 12 -33 7 -7 21 -12
33 -12 12 0 26 5 33 12 7 7 12 21 12 33 0 12 -5 26 -12 33 -7 7 -21 12 -33 12
-12 0 -26 -5 -33 -12z"/>
<path d="M1832 1628 c-19 -19 -15 -66 7 -73 30 -9 51 5 51 34 0 28 -16 51 -35
51 -6 0 -16 -5 -23 -12z"/>
<path d="M1822 1498 c-7 -7 -12 -21 -12 -33 0 -12 5 -26 12 -33 7 -7 21 -12
33 -12 12 0 26 5 33 12 7 7 12 21 12 33 0 12 -5 26 -12 33 -7 7 -21 12 -33 12
-12 0 -26 -5 -33 -12z"/>
<path d="M2072 1628 c-30 -30 -2 -86 36 -73 26 8 33 39 15 64 -16 24 -33 27
-51 9z"/>
<path d="M2062 1498 c-7 -7 -12 -21 -12 -33 0 -12 5 -26 12 -33 7 -7 21 -12
33 -12 12 0 26 5 33 12 7 7 12 21 12 33 0 12 -5 26 -12 33 -7 7 -21 12 -33 12
-12 0 -26 -5 -33 -12z"/>
<path d="M3036 1627 c-38 -27 2 -95 42 -71 23 15 27 48 7 68 -20 19 -26 20
-49 3z"/>
<path d="M3020 1484 c-13 -34 3 -64 35 -64 24 0 55 23 55 41 0 51 -73 69 -90
23z"/>
<path d="M3276 1624 c-19 -18 -20 -28 -6 -55 12 -21 40 -25 58 -7 18 18 14 56
-7 68 -25 13 -27 13 -45 -6z"/>
<path d="M3273 1503 c-19 -7 -16 -70 3 -77 31 -12 55 -6 65 18 21 45 -19 79
-68 59z"/>
<path d="M3516 1624 c-19 -18 -20 -28 -6 -55 12 -21 40 -25 58 -7 18 18 14 56
-7 68 -25 13 -27 13 -45 -6z"/>
<path d="M3512 1498 c-30 -30 -3 -83 39 -76 32 5 45 31 31 62 -13 28 -49 35
-70 14z"/>
<path d="M1580 1211 c-16 -32 4 -63 38 -59 24 3 27 7 27 38 0 31 -3 35 -27 38
-19 2 -30 -3 -38 -17z"/>
<path d="M1581 1096 c-7 -8 -11 -27 -9 -43 3 -25 7 -28 37 -28 43 0 60 23 43
59 -13 29 -52 35 -71 12z"/>
<path d="M1824 1216 c-3 -8 -4 -25 -2 -38 2 -18 9 -23 33 -23 28 0 30 3 30 35
0 31 -3 35 -28 38 -17 2 -29 -2 -33 -12z"/>
<path d="M1822 1098 c-7 -7 -12 -21 -12 -33 0 -12 5 -26 12 -33 7 -7 21 -12
33 -12 12 0 26 5 33 12 7 7 12 21 12 33 0 12 -5 26 -12 33 -7 7 -21 12 -33 12
-12 0 -26 -5 -33 -12z"/>
<path d="M2064 1216 c-12 -32 0 -61 28 -64 34 -4 54 27 38 58 -12 23 -58 27
-66 6z"/>
<path d="M2062 1098 c-7 -7 -12 -21 -12 -33 0 -12 5 -26 12 -33 7 -7 21 -12
33 -12 12 0 26 5 33 12 7 7 12 21 12 33 0 12 -5 26 -12 33 -7 7 -21 12 -33 12
-12 0 -26 -5 -33 -12z"/>
<path d="M3024 1205 c-7 -29 10 -55 36 -55 26 0 43 26 36 55 -5 20 -13 25 -36
25 -23 0 -31 -5 -36 -25z"/>
<path d="M3025 1086 c-23 -34 -5 -66 36 -66 41 0 61 40 34 70 -24 27 -51 25
-70 -4z"/>
<path d="M3272 1218 c-25 -25 -7 -68 29 -68 25 0 42 26 35 55 -7 27 -42 35
-64 13z"/>
<path d="M3271 1096 c-7 -8 -11 -27 -9 -43 2 -23 9 -29 33 -31 46 -6 71 40 39
72 -19 20 -48 20 -63 2z"/>
<path d="M3510 1215 c-10 -12 -10 -21 -2 -40 21 -45 77 -23 70 27 -4 28 -48
37 -68 13z"/>
<path d="M3511 1096 c-7 -8 -11 -27 -9 -43 2 -22 9 -29 31 -31 50 -6 75 38 41
72 -19 20 -48 20 -63 2z"/>
<path d="M2064 816 c-12 -32 0 -61 28 -64 34 -4 54 27 38 58 -12 23 -58 27
-66 6z"/>
<path d="M2066 694 c-9 -8 -16 -24 -16 -34 0 -20 25 -50 41 -50 27 0 49 22 49
50 0 44 -44 64 -74 34z"/>
<path d="M2304 816 c-12 -31 0 -61 27 -64 36 -4 55 21 41 53 -13 28 -59 35
-68 11z"/>
<path d="M2306 694 c-9 -8 -16 -24 -16 -34 0 -20 25 -50 41 -50 27 0 49 22 49
50 0 44 -44 64 -74 34z"/>
<path d="M2544 806 c-9 -39 2 -58 32 -54 57 7 57 69 1 76 -21 3 -28 -2 -33
-22z"/>
<path d="M2547 692 c-24 -26 -21 -49 7 -67 33 -22 66 -5 66 33 0 50 -42 69
-73 34z"/>
</g>
</svg>
