<?xml version="1.0" standalone="no"?>
<!DOCTYPE svg PUBLIC "-//W3C//DTD SVG 20010904//EN"
 "http://www.w3.org/TR/2001/REC-SVG-20010904/DTD/svg10.dtd">
<svg version="1.0" xmlns="http://www.w3.org/2000/svg"
 width="260.000000pt" height="260.000000pt" viewBox="0 0 260.000000 260.000000"
 preserveAspectRatio="xMidYMid meet">
<metadata>
Created by potrace 1.11, written by Peter Selinger 2001-2013
</metadata>
<g transform="translate(0.000000,260.000000) scale(0.100000,-0.100000)"
fill="#000000" stroke="none">
<path d="M383 2586 c-181 -44 -334 -202 -372 -384 -15 -74 -15 -1730 0 -1804
39 -187 200 -348 387 -387 74 -15 1730 -15 1804 0 187 39 348 200 387 387 15
74 15 1730 0 1804 -39 187 -200 348 -387 387 -80 17 -1749 14 -1819 -3z m670
-196 c48 -18 47 -34 -3 -54 -47 -19 -50 -19 -50 -6 0 5 15 16 32 23 l33 13
-33 12 c-17 6 -32 16 -32 22 0 7 3 10 8 8 4 -2 24 -10 45 -18z m120 0 c48 -18
47 -34 -3 -54 -47 -19 -50 -19 -50 -6 0 5 15 16 32 23 l33 13 -33 12 c-17 6
-32 16 -32 22 0 7 3 10 8 8 4 -2 24 -10 45 -18z m-323 -213 l0 -74 -32 -1
c-42 -1 -58 13 -58 53 0 38 21 60 50 52 16 -4 20 0 20 19 0 13 5 24 10 24 6 0
10 -31 10 -73z m125 53 c-3 -5 -19 -10 -36 -10 -22 0 -29 -5 -29 -20 0 -16 7
-20 30 -20 17 0 30 -4 30 -10 0 -5 -13 -10 -30 -10 -27 0 -30 -3 -30 -30 0
-20 -5 -30 -15 -30 -12 0 -15 14 -15 70 l0 70 51 0 c31 0 48 -4 44 -10z m-285
-205 c0 -14 -4 -25 -10 -25 -5 0 -10 11 -10 25 0 14 5 25 10 25 6 0 10 -11 10
-25z m340 2 c0 -18 5 -23 22 -23 32 1 53 -41 39 -76 -9 -24 -16 -28 -51 -28
l-40 0 0 75 c0 60 3 75 15 75 9 0 15 -9 15 -23z m-185 -57 l0 -65 -34 0 c-41
0 -62 25 -45 53 8 12 8 22 1 34 -16 25 9 50 47 46 l31 -3 0 -65z m120 0 l0
-65 -34 0 c-41 0 -62 25 -44 53 7 12 8 24 1 36 -14 25 9 48 46 44 l31 -3 0
-65z m185 -11 c0 -32 3 -39 20 -39 17 0 20 7 20 45 0 25 5 45 10 45 6 0 10
-24 10 -53 l0 -54 -35 -1 c-25 -1 -38 4 -45 18 -11 21 -14 73 -4 83 14 13 24
-6 24 -44z m155 -38 c7 -12 -12 -24 -25 -16 -11 7 -4 25 10 25 5 0 11 -4 15
-9z m-615 -96 c0 -14 -4 -25 -10 -25 -5 0 -10 11 -10 25 0 14 5 25 10 25 6 0
10 -11 10 -25z m820 0 c0 -18 4 -23 15 -18 20 7 55 -24 55 -49 0 -40 -19 -58
-60 -58 l-40 0 0 68 c0 38 3 72 7 75 13 14 23 6 23 -18z m-546 -7 c2 -13 3
-43 3 -68 -2 -44 -3 -45 -36 -45 -41 0 -62 25 -44 54 8 12 8 22 1 29 -18 18 9
52 42 52 23 0 31 -5 34 -22z m121 -48 l0 -65 -31 -3 c-40 -4 -61 19 -46 52 6
13 6 29 2 36 -16 25 8 51 43 48 l32 -3 0 -65z m120 23 c1 -23 4 -45 8 -49 14
-14 -14 -44 -42 -44 -38 0 -57 23 -43 54 6 13 6 29 2 36 -16 25 8 51 43 48 30
-3 32 -5 32 -45z m120 0 c1 -23 4 -45 8 -49 14 -14 -14 -44 -42 -44 -36 0 -55
22 -45 52 4 13 7 33 5 45 -4 34 7 44 42 41 30 -3 32 -5 32 -45z m120 7 c0 -19
4 -41 8 -47 14 -22 -11 -53 -42 -53 -36 0 -55 22 -45 52 4 13 7 33 5 45 -4 34
7 44 42 41 29 -3 32 -6 32 -38z m-625 -1 c0 -14 5 -19 15 -16 8 4 17 2 20 -2
3 -5 -2 -12 -11 -15 -10 -4 -13 -13 -9 -26 3 -11 2 -20 -3 -20 -6 0 -12 6 -15
13 -3 9 -8 8 -22 -3 -17 -14 -18 -13 -13 8 4 15 2 25 -8 29 -8 3 -12 9 -9 14
3 4 12 6 20 2 10 -3 15 2 15 16 0 12 5 21 10 21 6 0 10 -9 10 -21z m810 -34
c0 -38 3 -45 19 -45 16 0 20 8 23 43 4 58 22 49 26 -13 l3 -51 -43 3 -43 3 -3
53 c-2 31 1 52 7 52 6 0 11 -20 11 -45z m-590 -127 c0 -7 -5 -20 -10 -28 -8
-12 -10 -9 -10 13 0 15 5 27 10 27 6 0 10 -6 10 -12z m27 -25 c-3 -10 -5 -4
-5 12 0 17 2 24 5 18 2 -7 2 -21 0 -30z m-117 -2 c17 -42 7 -63 -12 -27 l-15
29 -7 -27 c-3 -14 -11 -26 -16 -26 -13 0 -13 4 4 45 18 43 30 44 46 6z m375
-18 c1 -23 4 -45 8 -49 10 -11 -10 -41 -33 -47 -12 -3 -30 3 -43 13 -18 16
-20 22 -10 38 6 11 9 29 6 41 -9 36 4 53 39 49 31 -3 33 -5 33 -45z m120 7 c0
-19 4 -41 8 -47 10 -16 -7 -49 -29 -57 -34 -13 -83 41 -54 59 6 3 7 17 4 31
-10 39 2 56 38 52 30 -3 33 -6 33 -38z m121 0 c0 -19 4 -44 9 -54 6 -14 3 -24
-14 -38 -29 -23 -33 -23 -62 1 -20 17 -22 23 -12 39 6 11 9 29 6 41 -9 36 4
53 39 49 30 -3 33 -6 34 -38z m119 -2 c0 -20 3 -40 8 -44 22 -23 -24 -71 -57
-58 -24 9 -40 42 -27 58 6 6 8 22 4 34 -9 37 3 54 39 50 31 -3 33 -6 33 -40z
m84 0 l19 -43 1 43 c1 30 5 42 16 42 12 0 15 -14 15 -70 0 -84 -20 -95 -50
-27 l-19 42 0 -42 c-1 -31 -5 -43 -16 -43 -12 0 -15 14 -15 70 0 84 18 94 49
28z m-566 -18 c21 -1 21 -2 4 -14 -11 -9 -15 -20 -10 -32 6 -17 5 -18 -11 -5
-15 13 -19 13 -26 1 -5 -8 -12 -11 -16 -7 -4 3 -1 13 5 21 10 12 8 16 -9 21
-11 3 -18 10 -15 15 3 5 12 7 19 4 8 -3 17 4 21 18 l8 23 4 -22 c3 -15 12 -23
26 -23z m-415 -158 c2 -14 12 -22 30 -24 24 -3 27 -8 30 -45 4 -48 -15 -65
-61 -56 -27 5 -27 7 -27 80 0 55 3 74 13 71 6 -3 13 -14 15 -26z m612 -3 c0
-10 -4 -19 -10 -19 -5 0 -10 12 -10 26 0 14 4 23 10 19 6 -3 10 -15 10 -26z
m31 -6 c-9 -16 -10 -14 -11 12 0 21 3 26 11 18 8 -8 8 -16 0 -30z m-410 -19
c4 -28 7 -32 8 -12 2 52 31 85 31 36 0 -13 5 -30 10 -38 7 -11 10 -5 10 23 0
20 5 37 10 37 12 0 13 -28 4 -94 -4 -29 -12 -46 -20 -46 -8 0 -14 9 -14 19 0
11 -3 28 -7 38 -6 14 -9 11 -13 -16 -7 -48 -28 -51 -35 -4 -17 105 -17 105 -3
101 7 -3 16 -22 19 -44z m194 36 c4 -6 -8 -10 -29 -10 -29 0 -36 -4 -36 -20 0
-16 7 -20 30 -20 17 0 30 -4 30 -10 0 -5 -13 -10 -30 -10 -23 0 -30 -4 -30
-20 0 -15 7 -20 29 -20 17 0 33 -4 36 -10 4 -6 -13 -10 -44 -10 l-51 0 0 70 0
70 44 0 c25 0 48 -4 51 -10z m350 -32 c0 -20 3 -40 8 -44 24 -24 -22 -68 -60
-58 -26 7 -39 39 -24 58 5 6 8 22 4 34 -9 37 3 54 39 50 31 -3 33 -6 33 -40z
m121 2 c0 -19 4 -44 9 -54 6 -14 3 -24 -14 -38 -29 -23 -36 -23 -61 2 -15 15
-18 25 -11 38 5 9 7 30 4 46 -7 33 9 47 47 44 21 -3 25 -8 26 -38z m119 0 c0
-19 4 -41 8 -48 9 -14 0 -52 -13 -52 -5 0 -15 -3 -23 -6 -23 -9 -60 32 -48 54
5 9 7 30 4 46 -7 33 9 47 47 44 21 -3 25 -8 25 -38z m65 -20 l0 -60 35 0 c19
0 35 -4 35 -10 0 -5 -20 -10 -45 -10 l-45 0 0 70 c0 40 4 70 10 70 6 0 10 -27
10 -60z m-901 -2 c12 -31 6 -38 -36 -38 -30 0 -34 -2 -23 -15 8 -9 21 -13 36
-9 13 3 24 2 24 -4 0 -17 -44 -22 -67 -6 -25 16 -31 62 -11 82 21 21 68 15 77
-10z m-132 -150 c6 -7 11 -37 11 -65 1 -44 -3 -55 -20 -64 -15 -8 -27 -8 -44
0 -24 11 -33 45 -14 56 7 4 7 13 0 26 -22 41 39 83 67 47z m121 0 c5 -7 9 -37
8 -67 -1 -64 -19 -82 -60 -63 -26 12 -35 45 -16 57 7 4 7 13 0 26 -22 41 38
83 68 47z m120 0 c5 -7 9 -37 8 -67 -1 -64 -19 -82 -60 -63 -26 12 -35 45 -16
57 7 4 7 13 0 26 -22 41 38 83 68 47z m137 2 c4 -6 -8 -10 -29 -10 -29 0 -36
-4 -36 -20 0 -16 7 -20 30 -20 17 0 30 -4 30 -10 0 -5 -13 -10 -30 -10 -25 0
-30 -4 -30 -25 0 -22 4 -25 37 -25 26 0 34 -3 26 -11 -6 -6 -28 -9 -49 -7
l-39 3 -3 59 c-2 32 -1 65 2 72 6 16 82 19 91 4z m344 1 c9 -6 12 -19 8 -40
-4 -16 -2 -33 3 -36 25 -16 -5 -65 -40 -65 -26 0 -53 29 -44 49 4 9 7 31 6 50
-3 45 30 65 67 42z m120 0 c9 -6 12 -19 8 -40 -4 -16 -2 -33 3 -36 25 -16 -5
-65 -40 -65 -26 0 -53 29 -44 49 4 9 7 31 6 50 -3 45 30 65 67 42z m120 0 c9
-6 12 -19 8 -39 -3 -16 -1 -34 5 -40 16 -16 -1 -51 -29 -58 -34 -9 -68 28 -53
55 5 10 6 28 3 39 -10 39 30 65 66 43z m141 -1 c0 -5 -16 -10 -35 -10 -28 0
-35 -4 -35 -20 0 -16 7 -20 30 -20 17 0 30 -4 30 -10 0 -5 -13 -10 -30 -10
-25 0 -30 -4 -30 -25 0 -22 4 -25 36 -25 21 0 33 -4 29 -10 -3 -5 -24 -10 -46
-10 l-39 0 0 75 0 75 45 0 c25 0 45 -4 45 -10z m-1103 -202 c6 -7 11 -36 11
-65 1 -59 -14 -79 -53 -69 -31 8 -42 32 -27 56 6 10 7 22 1 31 -12 19 -11 25
7 43 19 19 48 21 61 4z m120 0 c6 -7 11 -36 11 -65 1 -59 -14 -79 -53 -69 -31
8 -42 32 -27 56 6 10 7 22 1 31 -12 19 -11 25 7 43 19 19 48 21 61 4z m120 0
c6 -7 11 -39 11 -70 1 -53 -1 -58 -22 -64 -13 -3 -34 -1 -45 6 -22 11 -28 44
-11 55 7 4 7 12 0 25 -13 24 -13 26 6 44 19 19 48 21 61 4z m138 2 c4 -6 -8
-10 -29 -10 -29 0 -36 -4 -36 -20 0 -15 7 -20 24 -20 14 0 28 -4 31 -10 4 -6
-7 -10 -24 -10 -26 0 -31 -4 -31 -25 0 -22 4 -25 37 -25 26 0 34 -3 26 -11 -6
-6 -28 -9 -49 -7 l-39 3 -3 59 c-2 32 -1 65 2 72 6 16 82 19 91 4z m344 -4 c6
-7 11 -27 10 -42 -1 -16 1 -36 5 -45 9 -20 -18 -49 -44 -49 -26 0 -53 29 -44
49 4 9 7 31 6 50 -3 47 40 70 67 37z m119 5 c8 -5 12 -21 11 -37 -2 -16 0 -35
5 -42 11 -18 -2 -50 -25 -57 -43 -14 -79 18 -59 54 5 10 6 28 3 39 -10 39 30
65 65 43z m120 0 c8 -5 12 -21 11 -37 -2 -16 0 -35 5 -42 11 -18 -2 -50 -25
-57 -42 -14 -79 22 -58 56 4 8 6 24 2 37 -9 39 30 66 65 43z m142 -1 c0 -5
-16 -10 -35 -10 -28 0 -35 -4 -35 -20 0 -16 7 -20 30 -20 17 0 30 -4 30 -10 0
-5 -13 -10 -30 -10 -25 0 -30 -4 -30 -25 0 -22 4 -25 35 -25 19 0 35 -4 35
-10 0 -5 -20 -10 -45 -10 l-45 0 0 75 0 75 45 0 c25 0 45 -4 45 -10z m-1111
-200 c14 -7 18 -22 18 -65 0 -60 -12 -79 -48 -73 -31 4 -47 33 -32 56 7 12 8
24 2 33 -12 19 -11 25 7 43 18 18 28 20 53 6z m120 0 c14 -7 18 -22 19 -70 1
-56 -1 -60 -24 -66 -46 -12 -79 20 -56 56 6 10 7 22 1 31 -12 19 -11 25 7 43
18 18 28 20 53 6z m120 0 c14 -7 18 -22 19 -70 1 -56 -1 -60 -24 -66 -46 -12
-79 20 -56 56 6 10 7 22 1 31 -12 19 -11 25 7 43 18 18 28 20 53 6z m146 0 c4
-6 -8 -10 -29 -10 -29 0 -36 -4 -36 -20 0 -15 7 -20 24 -20 14 0 28 -4 31 -10
4 -6 -7 -10 -24 -10 -26 0 -31 -4 -31 -25 0 -22 4 -25 36 -25 21 0 33 -4 29
-10 -3 -5 -26 -10 -51 -10 l-44 0 0 68 c0 38 3 72 7 75 10 11 81 8 88 -3z
m344 -4 c6 -7 11 -27 9 -43 -1 -16 1 -34 6 -41 12 -19 -12 -52 -39 -52 -30 0
-58 27 -49 49 4 9 6 29 5 45 -2 33 14 56 39 56 10 0 23 -6 29 -14z m121 0 c6
-8 11 -25 9 -38 -1 -13 1 -31 5 -40 11 -25 -11 -58 -39 -58 -31 0 -58 27 -49
49 4 9 7 29 6 45 -2 50 39 75 68 42z m124 -8 c10 -14 12 -27 6 -38 -6 -11 -5
-21 2 -28 19 -19 -7 -62 -36 -62 -32 0 -59 27 -50 49 4 9 7 29 6 45 -3 55 43
76 72 34z m136 12 c0 -5 -16 -10 -35 -10 -31 0 -35 -3 -35 -25 0 -21 5 -25 30
-25 17 0 30 -4 30 -10 0 -5 -13 -10 -30 -10 -27 0 -30 -3 -30 -30 0 -16 -4
-30 -10 -30 -6 0 -10 32 -10 75 l0 75 45 0 c25 0 45 -4 45 -10z m-1109 -200
c21 -12 26 -45 8 -56 -8 -4 -8 -9 0 -17 21 -21 13 -56 -14 -63 -47 -12 -80 20
-57 56 7 12 7 21 0 28 -14 14 -1 50 20 55 9 3 18 5 20 6 2 0 12 -4 23 -9z
m120 0 c21 -12 26 -45 8 -56 -8 -4 -8 -9 0 -17 21 -21 13 -56 -14 -63 -47 -12
-80 20 -58 55 7 11 7 23 2 33 -12 21 -2 46 19 51 10 3 18 5 20 6 2 0 12 -4 23
-9z m118 0 c14 -7 18 -22 19 -70 1 -56 -1 -60 -24 -66 -46 -12 -79 20 -57 55
8 12 8 23 0 36 -8 15 -5 22 13 37 26 21 26 21 49 8z m482 -1 c14 -7 19 -19 17
-42 -1 -18 2 -38 6 -45 13 -21 -13 -52 -44 -52 -31 0 -57 31 -44 52 4 7 7 27
6 44 -2 22 3 36 15 43 23 13 21 13 44 0z m120 0 c14 -7 19 -19 17 -42 -1 -18
2 -38 6 -45 13 -21 -13 -52 -44 -52 -31 0 -57 31 -44 52 4 7 7 27 6 44 -2 22
3 36 15 43 23 13 21 13 44 0z m129 -9 c15 -15 18 -25 11 -37 -6 -11 -5 -23 2
-35 17 -26 -3 -52 -41 -56 -37 -4 -59 26 -43 56 6 10 7 29 4 42 -4 16 0 27 12
36 25 18 31 18 55 -6z m-633 -32 l22 -43 0 43 c1 31 5 42 16 42 13 0 15 -12
13 -67 -4 -81 -20 -92 -47 -32 l-20 43 -3 -39 c-2 -21 -9 -40 -15 -43 -10 -3
-13 15 -13 67 0 84 15 93 47 29z m-467 -83 c0 -8 -7 -15 -15 -15 -8 0 -15 7
-15 15 0 8 7 15 15 15 8 0 15 -7 15 -15z m605 6 c7 -12 -12 -24 -25 -16 -11 7
-4 25 10 25 5 0 11 -4 15 -9z m120 0 c7 -12 -12 -24 -25 -16 -11 7 -4 25 10
25 5 0 11 -4 15 -9z m-604 -87 c12 -14 11 -16 -5 -13 -11 2 -21 10 -24 17 -5
17 13 15 29 -4z m98 9 c0 -5 -4 -17 -9 -28 -8 -18 -9 -17 -9 8 -1 15 4 27 9
27 6 0 10 -3 9 -7z m31 -19 c0 -14 -4 -23 -10 -19 -5 3 -10 15 -10 26 0 10 5
19 10 19 6 0 10 -12 10 -26z m135 -55 l0 -64 -34 0 c-41 0 -62 25 -44 53 7 12
8 24 2 35 -15 25 23 59 53 48 21 -7 23 -15 23 -72z m120 23 c1 -23 4 -44 8
-48 14 -14 -14 -44 -42 -44 -38 0 -57 23 -44 53 7 15 7 29 2 40 -15 25 23 59
53 48 19 -7 23 -16 23 -49z m106 47 c14 -7 19 -19 17 -42 -1 -18 2 -38 6 -45
13 -21 -13 -52 -43 -52 -36 0 -55 22 -45 52 4 13 7 35 5 50 -1 17 4 30 16 37
23 13 21 13 44 0z m209 -14 c0 -14 -4 -25 -10 -25 -5 0 -10 11 -10 25 0 14 5
25 10 25 6 0 10 -11 10 -25z m40 6 c0 -11 -4 -23 -10 -26 -6 -4 -10 5 -10 19
0 14 5 26 10 26 6 0 10 -9 10 -19z m80 -6 c0 -14 -4 -25 -10 -25 -5 0 -10 11
-10 25 0 14 5 25 10 25 6 0 10 -11 10 -25z m40 6 c0 -11 -4 -23 -10 -26 -6 -4
-10 5 -10 19 0 14 5 26 10 26 6 0 10 -9 10 -19z m-260 -32 c0 -16 4 -19 20
-14 11 4 20 2 20 -4 0 -6 -7 -11 -15 -11 -17 0 -20 -16 -5 -25 6 -4 7 -11 4
-17 -5 -7 -12 -5 -20 7 -12 16 -14 17 -20 2 -10 -27 -25 -20 -18 8 4 15 2 25
-5 25 -6 0 -11 5 -11 11 0 6 8 8 19 4 16 -5 18 -2 14 15 -3 11 0 20 6 20 6 0
11 -9 11 -21z m100 -174 c0 -14 -4 -25 -10 -25 -5 0 -10 11 -10 25 0 14 5 25
10 25 6 0 10 -11 10 -25z m40 6 c0 -11 -4 -23 -10 -26 -6 -4 -10 5 -10 19 0
14 5 26 10 26 6 0 10 -9 10 -19z m80 -6 c0 -14 -4 -25 -10 -25 -5 0 -10 11
-10 25 0 14 5 25 10 25 6 0 10 -11 10 -25z m40 0 c0 -14 -4 -25 -10 -25 -5 0
-10 11 -10 25 0 14 5 25 10 25 6 0 10 -11 10 -25z"/>
<path d="M784 2165 c-8 -31 7 -50 31 -41 22 8 16 60 -7 64 -12 2 -19 -5 -24
-23z"/>
<path d="M1037 1984 c-4 -4 -7 -20 -7 -36 0 -23 4 -29 18 -26 11 2 17 13 17
32 0 29 -14 43 -28 30z"/>
<path d="M792 2003 c4 -21 33 -25 33 -3 0 8 -8 16 -18 18 -14 3 -18 -1 -15
-15z"/>
<path d="M785 1950 c-4 -7 -3 -16 3 -22 14 -14 45 -2 40 15 -6 16 -34 21 -43
7z"/>
<path d="M912 2003 c4 -21 33 -25 33 -3 0 8 -8 16 -18 18 -14 3 -18 -1 -15
-15z"/>
<path d="M905 1951 c-9 -16 3 -31 26 -31 14 0 19 6 17 17 -4 20 -33 29 -43 14z"/>
<path d="M1517 1784 c-4 -4 -7 -20 -7 -36 0 -22 5 -28 21 -28 17 0 20 5 17 32
-3 31 -17 45 -31 32z"/>
<path d="M912 1803 c2 -10 10 -18 18 -18 22 0 18 29 -3 33 -14 3 -18 -1 -15
-15z"/>
<path d="M907 1746 c-7 -18 1 -26 25 -26 13 0 18 6 16 17 -4 22 -34 29 -41 9z"/>
<path d="M1032 1803 c2 -10 10 -18 18 -18 22 0 18 29 -3 33 -14 3 -18 -1 -15
-15z"/>
<path d="M1030 1741 c0 -15 6 -21 21 -21 14 0 19 5 17 17 -5 26 -38 29 -38 4z"/>
<path d="M1152 1803 c2 -10 10 -18 18 -18 22 0 18 29 -3 33 -14 3 -18 -1 -15
-15z"/>
<path d="M1150 1741 c0 -15 6 -21 21 -21 14 0 19 5 17 17 -5 26 -38 29 -38 4z"/>
<path d="M1272 1803 c4 -21 33 -25 33 -3 0 8 -8 16 -18 18 -14 3 -18 -1 -15
-15z"/>
<path d="M1270 1741 c0 -15 6 -21 21 -21 14 0 19 5 17 17 -5 26 -38 29 -38 4z"/>
<path d="M1392 1803 c2 -10 10 -18 18 -18 8 0 16 8 18 18 2 12 -3 17 -18 17
-15 0 -20 -5 -18 -17z"/>
<path d="M1390 1740 c0 -13 7 -20 20 -20 13 0 20 7 20 20 0 13 -7 20 -20 20
-13 0 -20 -7 -20 -20z"/>
<path d="M1272 1603 c4 -21 33 -25 33 -3 0 8 -8 16 -18 18 -14 3 -18 -1 -15
-15z"/>
<path d="M1272 1538 c2 -12 10 -23 18 -23 22 0 19 39 -3 43 -15 3 -18 -1 -15
-20z"/>
<path d="M1392 1603 c4 -21 33 -25 33 -3 0 8 -8 16 -18 18 -14 3 -18 -1 -15
-15z"/>
<path d="M1392 1538 c2 -12 10 -23 18 -23 22 0 19 39 -3 43 -15 3 -18 -1 -15
-20z"/>
<path d="M1512 1603 c2 -10 10 -18 18 -18 8 0 16 8 18 18 2 12 -3 17 -18 17
-15 0 -20 -5 -18 -17z"/>
<path d="M1513 1544 c-7 -18 11 -39 26 -30 17 11 13 46 -4 46 -9 0 -18 -7 -22
-16z"/>
<path d="M1634 1609 c-3 -6 -2 -15 4 -21 13 -13 32 -2 32 18 0 16 -26 19 -36
3z"/>
<path d="M1633 1544 c-7 -18 11 -39 26 -30 17 11 13 46 -4 46 -9 0 -18 -7 -22
-16z"/>
<path d="M792 1348 c4 -43 33 -46 33 -3 0 21 -5 31 -18 33 -15 3 -18 -2 -15
-30z"/>
<path d="M1514 1409 c-10 -17 13 -36 27 -22 12 12 4 33 -11 33 -5 0 -12 -5
-16 -11z"/>
<path d="M1513 1344 c-8 -21 13 -42 28 -27 13 13 5 43 -11 43 -6 0 -13 -7 -17
-16z"/>
<path d="M1634 1409 c-10 -17 13 -36 27 -22 12 12 4 33 -11 33 -5 0 -12 -5
-16 -11z"/>
<path d="M1633 1344 c-8 -21 13 -42 28 -27 13 13 5 43 -11 43 -6 0 -13 -7 -17
-16z"/>
<path d="M1754 1409 c-3 -6 -2 -15 4 -21 13 -13 32 -2 32 18 0 16 -26 19 -36
3z"/>
<path d="M1753 1344 c-8 -21 13 -42 28 -27 13 13 5 43 -11 43 -6 0 -13 -7 -17
-16z"/>
<path d="M905 1370 c-4 -6 5 -10 19 -10 14 0 26 5 26 10 0 6 -9 10 -19 10 -11
0 -23 -4 -26 -10z"/>
<path d="M790 1200 c0 -15 5 -20 18 -18 9 2 17 10 17 18 0 8 -8 16 -17 18 -13
2 -18 -3 -18 -18z"/>
<path d="M792 1147 c-15 -17 1 -42 23 -33 18 6 17 37 -1 43 -6 2 -16 -2 -22
-10z"/>
<path d="M910 1200 c0 -15 5 -20 18 -18 9 2 17 10 17 18 0 8 -8 16 -17 18 -13
2 -18 -3 -18 -18z"/>
<path d="M912 1147 c-15 -17 1 -42 23 -33 18 6 17 37 -1 43 -6 2 -16 -2 -22
-10z"/>
<path d="M1030 1200 c0 -15 5 -20 18 -18 9 2 17 10 17 18 0 8 -8 16 -17 18
-13 2 -18 -3 -18 -18z"/>
<path d="M1033 1144 c-8 -21 13 -42 28 -27 13 13 5 43 -11 43 -6 0 -13 -7 -17
-16z"/>
<path d="M1515 1211 c-8 -15 3 -31 21 -31 9 0 14 7 12 17 -4 20 -24 28 -33 14z"/>
<path d="M1513 1144 c-8 -21 13 -42 28 -27 13 13 5 43 -11 43 -6 0 -13 -7 -17
-16z"/>
<path d="M1635 1211 c-8 -15 3 -31 21 -31 9 0 14 7 12 17 -4 20 -24 28 -33 14z"/>
<path d="M1633 1144 c-8 -21 13 -42 28 -27 13 13 5 43 -11 43 -6 0 -13 -7 -17
-16z"/>
<path d="M1755 1211 c-8 -15 3 -31 21 -31 9 0 14 7 12 17 -4 20 -24 28 -33 14z"/>
<path d="M1753 1144 c-8 -21 13 -42 28 -27 13 13 5 43 -11 43 -6 0 -13 -7 -17
-16z"/>
<path d="M790 1000 c0 -15 5 -20 18 -18 9 2 17 10 17 18 0 8 -8 16 -17 18 -13
2 -18 -3 -18 -18z"/>
<path d="M792 947 c-15 -17 1 -42 23 -33 18 6 17 37 -1 43 -6 2 -16 -2 -22
-10z"/>
<path d="M917 1014 c-14 -14 -7 -35 11 -32 9 2 17 10 17 17 0 16 -18 25 -28
15z"/>
<path d="M912 947 c-15 -17 1 -42 23 -33 18 6 17 37 -1 43 -6 2 -16 -2 -22
-10z"/>
<path d="M1037 1014 c-14 -14 -7 -35 11 -32 9 2 17 10 17 17 0 16 -18 25 -28
15z"/>
<path d="M1037 954 c-15 -15 -7 -45 11 -42 9 2 17 12 17 22 0 20 -16 31 -28
20z"/>
<path d="M1517 1014 c-14 -15 -6 -34 14 -34 14 0 19 5 17 17 -3 18 -20 27 -31
17z"/>
<path d="M1513 944 c-8 -21 13 -42 28 -27 13 13 5 43 -11 43 -6 0 -13 -7 -17
-16z"/>
<path d="M1635 1011 c-8 -15 3 -31 21 -31 9 0 14 7 12 17 -4 20 -24 28 -33 14z"/>
<path d="M1633 944 c-8 -21 13 -42 28 -27 13 13 5 43 -11 43 -6 0 -13 -7 -17
-16z"/>
<path d="M1755 1011 c-8 -15 3 -31 21 -31 9 0 14 7 12 17 -4 20 -24 28 -33 14z"/>
<path d="M1754 946 c-7 -19 3 -36 22 -36 10 0 14 8 12 22 -4 26 -26 36 -34 14z"/>
<path d="M793 805 c-7 -20 2 -29 21 -22 9 4 13 13 10 22 -8 19 -23 19 -31 0z"/>
<path d="M789 744 c-9 -11 -9 -18 -1 -26 14 -14 42 -3 42 16 0 20 -27 27 -41
10z"/>
<path d="M917 814 c-14 -14 -7 -35 11 -32 9 2 17 10 17 17 0 16 -18 25 -28 15z"/>
<path d="M912 747 c-15 -17 1 -42 23 -33 18 6 17 37 -1 43 -6 2 -16 -2 -22
-10z"/>
<path d="M1037 814 c-14 -14 -7 -35 11 -32 9 2 17 10 17 17 0 16 -18 25 -28
15z"/>
<path d="M1037 754 c-15 -15 -7 -45 11 -42 9 2 17 12 17 22 0 20 -16 31 -28
20z"/>
<path d="M1517 814 c-14 -15 -6 -34 14 -34 14 0 19 5 17 17 -3 18 -20 27 -31
17z"/>
<path d="M1517 754 c-15 -15 -7 -45 11 -42 9 2 17 12 17 22 0 20 -16 31 -28
20z"/>
<path d="M1637 814 c-14 -15 -6 -34 14 -34 14 0 19 5 17 17 -3 18 -20 27 -31
17z"/>
<path d="M1634 746 c-7 -19 3 -36 22 -36 10 0 14 8 12 22 -4 26 -26 36 -34 14z"/>
<path d="M1755 811 c-8 -15 3 -31 21 -31 9 0 14 7 12 17 -4 20 -24 28 -33 14z"/>
<path d="M1754 746 c-7 -19 3 -36 22 -36 10 0 14 8 12 22 -4 26 -26 36 -34 14z"/>
<path d="M794 605 c-9 -23 10 -40 25 -22 9 11 8 17 -4 27 -12 10 -16 9 -21 -5z"/>
<path d="M784 539 c-9 -15 12 -33 30 -26 9 4 16 13 16 22 0 17 -35 21 -46 4z"/>
<path d="M914 605 c-3 -8 -3 -19 1 -25 10 -16 35 7 28 26 -7 18 -22 18 -29 -1z"/>
<path d="M904 539 c-9 -15 12 -33 30 -26 9 4 16 13 16 22 0 17 -35 21 -46 4z"/>
<path d="M1033 604 c-8 -20 8 -36 26 -25 15 10 8 41 -9 41 -6 0 -13 -7 -17
-16z"/>
<path d="M1030 529 c0 -25 33 -22 38 4 2 12 -3 17 -17 17 -15 0 -21 -6 -21
-21z"/>
<path d="M1513 604 c-8 -21 13 -42 28 -27 13 13 5 43 -11 43 -6 0 -13 -7 -17
-16z"/>
<path d="M1510 530 c0 -13 7 -20 20 -20 13 0 20 7 20 20 0 13 -7 20 -20 20
-13 0 -20 -7 -20 -20z"/>
<path d="M1633 604 c-8 -21 13 -42 28 -27 13 13 5 43 -11 43 -6 0 -13 -7 -17
-16z"/>
<path d="M1630 530 c0 -13 7 -20 20 -20 13 0 20 7 20 20 0 13 -7 20 -20 20
-13 0 -20 -7 -20 -20z"/>
<path d="M1753 604 c-7 -18 17 -38 31 -24 11 11 1 40 -14 40 -6 0 -13 -7 -17
-16z"/>
<path d="M1750 530 c0 -13 7 -20 20 -20 13 0 20 7 20 20 0 13 -7 20 -20 20
-13 0 -20 -7 -20 -20z"/>
<path d="M1034 406 c-9 -24 12 -44 28 -28 10 10 8 16 -5 29 -15 15 -17 15 -23
-1z"/>
<path d="M1030 330 c0 -13 7 -20 20 -20 13 0 20 7 20 20 0 13 -7 20 -20 20
-13 0 -20 -7 -20 -20z"/>
<path d="M1153 404 c-7 -19 11 -39 26 -30 16 10 13 33 -4 40 -9 3 -18 -1 -22
-10z"/>
<path d="M1150 330 c0 -13 7 -20 20 -20 13 0 20 7 20 20 0 13 -7 20 -20 20
-13 0 -20 -7 -20 -20z"/>
<path d="M1273 404 c-7 -19 11 -39 26 -30 16 10 13 33 -4 40 -9 3 -18 -1 -22
-10z"/>
<path d="M1270 330 c0 -13 7 -20 20 -20 13 0 20 7 20 20 0 13 -7 20 -20 20
-13 0 -20 -7 -20 -20z"/>
</g>
</svg>
