<svg width="25" height="29" viewBox="0 0 25 29" fill="none" xmlns="http://www.w3.org/2000/svg">
<g id="Group">
<g id="Vector">
<mask id="path-1-outside-1" maskUnits="userSpaceOnUse" x="5.2323" y="-1" width="14" height="17" fill="black">
<rect fill="white" x="5.2323" y="-1" width="14" height="17"/>
<path d="M12.3949 15.626C12.425 15.626 12.455 15.626 12.491 15.626C12.503 15.626 12.515 15.626 12.527 15.626C12.5451 15.626 12.5691 15.626 12.5871 15.626C14.3467 15.596 15.77 14.9774 16.8209 13.7944C19.133 11.188 18.7486 6.72003 18.7066 6.29364C18.5565 3.09277 17.0431 1.5614 15.794 0.846759C14.8631 0.31228 13.7762 0.0240215 12.5631 0H12.521C12.515 0 12.503 0 12.497 0H12.461C11.7944 0 10.4852 0.108097 9.23009 0.822738C7.96896 1.53738 6.43158 3.06875 6.28145 6.29364C6.23941 6.72003 5.85506 11.188 8.16714 13.7944C9.21207 14.9774 10.6353 15.596 12.3949 15.626ZM7.88488 6.44378C7.88488 6.42576 7.89089 6.40775 7.89089 6.39573C8.08907 2.08987 11.1458 1.62746 12.455 1.62746H12.479C12.491 1.62746 12.509 1.62746 12.527 1.62746C14.1485 1.66349 16.905 2.32408 17.0911 6.39573C17.0911 6.41375 17.0911 6.43177 17.0971 6.44378C17.1031 6.48582 17.5235 10.5695 15.6138 12.7194C14.8571 13.5722 13.8482 13.9925 12.521 14.0046C12.509 14.0046 12.503 14.0046 12.491 14.0046C12.479 14.0046 12.473 14.0046 12.461 14.0046C11.1398 13.9925 10.1249 13.5722 9.37422 12.7194C7.47051 10.5815 7.87888 6.47981 7.88488 6.44378Z"/>
</mask>
<path d="M12.3949 15.626C12.425 15.626 12.455 15.626 12.491 15.626C12.503 15.626 12.515 15.626 12.527 15.626C12.5451 15.626 12.5691 15.626 12.5871 15.626C14.3467 15.596 15.77 14.9774 16.8209 13.7944C19.133 11.188 18.7486 6.72003 18.7066 6.29364C18.5565 3.09277 17.0431 1.5614 15.794 0.846759C14.8631 0.31228 13.7762 0.0240215 12.5631 0H12.521C12.515 0 12.503 0 12.497 0H12.461C11.7944 0 10.4852 0.108097 9.23009 0.822738C7.96896 1.53738 6.43158 3.06875 6.28145 6.29364C6.23941 6.72003 5.85506 11.188 8.16714 13.7944C9.21207 14.9774 10.6353 15.596 12.3949 15.626ZM7.88488 6.44378C7.88488 6.42576 7.89089 6.40775 7.89089 6.39573C8.08907 2.08987 11.1458 1.62746 12.455 1.62746H12.479C12.491 1.62746 12.509 1.62746 12.527 1.62746C14.1485 1.66349 16.905 2.32408 17.0911 6.39573C17.0911 6.41375 17.0911 6.43177 17.0971 6.44378C17.1031 6.48582 17.5235 10.5695 15.6138 12.7194C14.8571 13.5722 13.8482 13.9925 12.521 14.0046C12.509 14.0046 12.503 14.0046 12.491 14.0046C12.479 14.0046 12.473 14.0046 12.461 14.0046C11.1398 13.9925 10.1249 13.5722 9.37422 12.7194C7.47051 10.5815 7.87888 6.47981 7.88488 6.44378Z" fill="white"/>
<path d="M12.3949 15.626C12.425 15.626 12.455 15.626 12.491 15.626C12.503 15.626 12.515 15.626 12.527 15.626C12.5451 15.626 12.5691 15.626 12.5871 15.626C14.3467 15.596 15.77 14.9774 16.8209 13.7944C19.133 11.188 18.7486 6.72003 18.7066 6.29364C18.5565 3.09277 17.0431 1.5614 15.794 0.846759C14.8631 0.31228 13.7762 0.0240215 12.5631 0H12.521C12.515 0 12.503 0 12.497 0H12.461C11.7944 0 10.4852 0.108097 9.23009 0.822738C7.96896 1.53738 6.43158 3.06875 6.28145 6.29364C6.23941 6.72003 5.85506 11.188 8.16714 13.7944C9.21207 14.9774 10.6353 15.596 12.3949 15.626ZM7.88488 6.44378C7.88488 6.42576 7.89089 6.40775 7.89089 6.39573C8.08907 2.08987 11.1458 1.62746 12.455 1.62746H12.479C12.491 1.62746 12.509 1.62746 12.527 1.62746C14.1485 1.66349 16.905 2.32408 17.0911 6.39573C17.0911 6.41375 17.0911 6.43177 17.0971 6.44378C17.1031 6.48582 17.5235 10.5695 15.6138 12.7194C14.8571 13.5722 13.8482 13.9925 12.521 14.0046C12.509 14.0046 12.503 14.0046 12.491 14.0046C12.479 14.0046 12.473 14.0046 12.461 14.0046C11.1398 13.9925 10.1249 13.5722 9.37422 12.7194C7.47051 10.5815 7.87888 6.47981 7.88488 6.44378Z" stroke="white" stroke-width="0.2" mask="url(#path-1-outside-1)"/>
</g>
<g id="Vector_2">
<mask id="path-2-outside-2" maskUnits="userSpaceOnUse" x="-0.83374" y="14.5686" width="26" height="15" fill="black">
<rect fill="white" x="-0.83374" y="14.5686" width="26" height="15"/>
<path d="M24.832 23.0367C24.832 23.0307 24.832 23.0246 24.832 23.0186C24.832 22.9706 24.826 22.9226 24.826 22.8685C24.79 21.6794 24.7119 18.8989 22.1056 18.0101C22.0875 18.0041 22.0635 17.9981 22.0455 17.9921C19.3371 17.3015 17.0851 15.7401 17.061 15.7221C16.6947 15.4639 16.1903 15.5539 15.932 15.9203C15.6738 16.2866 15.7639 16.7911 16.1302 17.0493C16.2323 17.1213 18.6224 18.7848 21.6131 19.5535C23.0124 20.052 23.1685 21.5473 23.2106 22.9165C23.2106 22.9706 23.2106 23.0186 23.2166 23.0667C23.2226 23.6072 23.1865 24.4419 23.0904 24.9223C22.1176 25.4748 18.3042 27.3846 12.503 27.3846C6.72577 27.3846 2.88833 25.4688 1.90946 24.9163C1.81337 24.4359 1.77133 23.6012 1.78334 23.0607C1.78334 23.0126 1.78935 22.9646 1.78935 22.9105C1.83139 21.5413 1.98753 20.046 3.38678 19.5475C6.37746 18.7788 8.7676 17.1093 8.86969 17.0433C9.23602 16.785 9.3261 16.2806 9.06787 15.9143C8.80964 15.5479 8.30519 15.4579 7.93886 15.7161C7.91484 15.7341 5.67483 17.2955 2.95439 17.9861C2.93037 17.9921 2.91235 17.9981 2.89434 18.0041C0.288002 18.8989 0.209932 21.6794 0.1739 22.8625C0.1739 22.9165 0.1739 22.9646 0.167894 23.0126C0.167894 23.0186 0.167894 23.0246 0.167894 23.0307C0.161889 23.3429 0.155884 24.9464 0.474169 25.7511C0.534223 25.9072 0.64232 26.0394 0.786449 26.1294C0.96661 26.2495 5.28448 29 12.509 29C19.7334 29 24.0513 26.2435 24.2315 26.1294C24.3696 26.0394 24.4837 25.9072 24.5437 25.7511C24.844 24.9524 24.838 23.3489 24.832 23.0367Z"/>
</mask>
<path d="M24.832 23.0367C24.832 23.0307 24.832 23.0246 24.832 23.0186C24.832 22.9706 24.826 22.9226 24.826 22.8685C24.79 21.6794 24.7119 18.8989 22.1056 18.0101C22.0875 18.0041 22.0635 17.9981 22.0455 17.9921C19.3371 17.3015 17.0851 15.7401 17.061 15.7221C16.6947 15.4639 16.1903 15.5539 15.932 15.9203C15.6738 16.2866 15.7639 16.7911 16.1302 17.0493C16.2323 17.1213 18.6224 18.7848 21.6131 19.5535C23.0124 20.052 23.1685 21.5473 23.2106 22.9165C23.2106 22.9706 23.2106 23.0186 23.2166 23.0667C23.2226 23.6072 23.1865 24.4419 23.0904 24.9223C22.1176 25.4748 18.3042 27.3846 12.503 27.3846C6.72577 27.3846 2.88833 25.4688 1.90946 24.9163C1.81337 24.4359 1.77133 23.6012 1.78334 23.0607C1.78334 23.0126 1.78935 22.9646 1.78935 22.9105C1.83139 21.5413 1.98753 20.046 3.38678 19.5475C6.37746 18.7788 8.7676 17.1093 8.86969 17.0433C9.23602 16.785 9.3261 16.2806 9.06787 15.9143C8.80964 15.5479 8.30519 15.4579 7.93886 15.7161C7.91484 15.7341 5.67483 17.2955 2.95439 17.9861C2.93037 17.9921 2.91235 17.9981 2.89434 18.0041C0.288002 18.8989 0.209932 21.6794 0.1739 22.8625C0.1739 22.9165 0.1739 22.9646 0.167894 23.0126C0.167894 23.0186 0.167894 23.0246 0.167894 23.0307C0.161889 23.3429 0.155884 24.9464 0.474169 25.7511C0.534223 25.9072 0.64232 26.0394 0.786449 26.1294C0.96661 26.2495 5.28448 29 12.509 29C19.7334 29 24.0513 26.2435 24.2315 26.1294C24.3696 26.0394 24.4837 25.9072 24.5437 25.7511C24.844 24.9524 24.838 23.3489 24.832 23.0367Z" fill="white"/>
<path d="M24.832 23.0367C24.832 23.0307 24.832 23.0246 24.832 23.0186C24.832 22.9706 24.826 22.9226 24.826 22.8685C24.79 21.6794 24.7119 18.8989 22.1056 18.0101C22.0875 18.0041 22.0635 17.9981 22.0455 17.9921C19.3371 17.3015 17.0851 15.7401 17.061 15.7221C16.6947 15.4639 16.1903 15.5539 15.932 15.9203C15.6738 16.2866 15.7639 16.7911 16.1302 17.0493C16.2323 17.1213 18.6224 18.7848 21.6131 19.5535C23.0124 20.052 23.1685 21.5473 23.2106 22.9165C23.2106 22.9706 23.2106 23.0186 23.2166 23.0667C23.2226 23.6072 23.1865 24.4419 23.0904 24.9223C22.1176 25.4748 18.3042 27.3846 12.503 27.3846C6.72577 27.3846 2.88833 25.4688 1.90946 24.9163C1.81337 24.4359 1.77133 23.6012 1.78334 23.0607C1.78334 23.0126 1.78935 22.9646 1.78935 22.9105C1.83139 21.5413 1.98753 20.046 3.38678 19.5475C6.37746 18.7788 8.7676 17.1093 8.86969 17.0433C9.23602 16.785 9.3261 16.2806 9.06787 15.9143C8.80964 15.5479 8.30519 15.4579 7.93886 15.7161C7.91484 15.7341 5.67483 17.2955 2.95439 17.9861C2.93037 17.9921 2.91235 17.9981 2.89434 18.0041C0.288002 18.8989 0.209932 21.6794 0.1739 22.8625C0.1739 22.9165 0.1739 22.9646 0.167894 23.0126C0.167894 23.0186 0.167894 23.0246 0.167894 23.0307C0.161889 23.3429 0.155884 24.9464 0.474169 25.7511C0.534223 25.9072 0.64232 26.0394 0.786449 26.1294C0.96661 26.2495 5.28448 29 12.509 29C19.7334 29 24.0513 26.2435 24.2315 26.1294C24.3696 26.0394 24.4837 25.9072 24.5437 25.7511C24.844 24.9524 24.838 23.3489 24.832 23.0367Z" stroke="white" stroke-width="0.2" mask="url(#path-2-outside-2)"/>
</g>
</g>
</svg>
