<svg width="53" height="53" viewBox="0 0 53 53" fill="none" xmlns="http://www.w3.org/2000/svg">
<g clip-path="url(#clip0)">
<path d="M50.5569 50.8798H48.3365V17.9637C48.3365 16.4017 47.0657 15.131 45.5038 15.131H40.429C38.867 15.131 37.5963 16.4018 37.5963 17.9637V50.8798H31.9313V32.8999C31.9313 31.3379 30.6607 30.0672 29.0986 30.0672H24.0239C22.4619 30.0672 21.1912 31.338 21.1912 32.8999V50.8798H15.5262V41.5922C15.5262 40.0302 14.2554 38.7595 12.6935 38.7595H7.61863C6.0566 38.7595 4.78592 40.0303 4.78592 41.5922V50.8798H2.44305C1.84372 50.8798 1.3579 51.3656 1.3579 51.9649C1.3579 52.5642 1.84372 53.0501 2.44305 53.0501H50.5569C51.1562 53.0501 51.6421 52.5642 51.6421 51.9649C51.6421 51.3656 51.1562 50.8798 50.5569 50.8798ZM13.3557 50.8798H6.95613V41.5922C6.95613 41.227 7.2533 40.9298 7.61853 40.9298H12.6933C13.0585 40.9298 13.3557 41.227 13.3557 41.5922V50.8798ZM29.7609 50.8798H23.3614V32.8999C23.3614 32.5347 23.6586 32.2375 24.0238 32.2375H29.0985C29.4637 32.2375 29.7609 32.5347 29.7609 32.8999V50.8798ZM46.1662 50.8798H39.7666V17.9637C39.7666 17.5985 40.0638 17.3013 40.429 17.3013H45.5038C45.869 17.3013 46.1662 17.5985 46.1662 17.9637V50.8798Z" fill="white" stroke="white" stroke-width="0.1"/>
<path d="M44.6315 2.12031H40.8851C40.2858 2.12031 39.8 1.63449 39.8 1.03516C39.8 0.435825 40.2858 -0.05 40.8851 -0.05H47.1478C47.1599 -0.05 47.1742 -0.0490691 47.1859 -0.0483104C47.1904 -0.0480196 47.1945 -0.047754 47.1979 -0.047576C47.1987 -0.0475353 47.1994 -0.0474992 47.2001 -0.0474684L47.1979 0.00248437L44.6315 2.12031ZM44.6315 2.12031L34.5189 12.233L30.6952 8.40924C30.4918 8.20578 30.2157 8.0914 29.9279 8.0914C29.6401 8.0914 29.3641 8.20578 29.1606 8.40924L10.5517 27.0182C10.1279 27.442 10.1279 28.1291 10.5517 28.553L10.5517 28.553C10.7636 28.7647 11.0414 28.8706 11.319 28.8706C11.5966 28.8706 11.8745 28.7647 12.0863 28.5528L29.9279 10.7111L33.7516 14.5348C34.1754 14.9585 34.8625 14.9585 35.2863 14.5348L35.251 14.4994L35.2863 14.5348L46.1662 3.65504V7.0342C46.1662 7.63353 46.652 8.11935 47.2514 8.11935C47.8507 8.11935 48.3365 7.63353 48.3365 7.0342V1.13867C48.3365 1.12674 48.3356 1.11248 48.3348 1.10082C48.3345 1.09627 48.3343 1.09208 48.3341 1.08861C48.334 1.08784 48.334 1.08712 48.334 1.08642L48.284 1.08857L44.6315 2.12031Z" fill="white" stroke="white" stroke-width="0.1"/>
<path d="M7.8299 32.4825C8.42921 32.4825 8.91505 31.9967 8.91505 31.3973C8.91505 30.798 8.42921 30.3122 7.8299 30.3122C7.23058 30.3122 6.74474 30.798 6.74474 31.3973C6.74474 31.9967 7.23058 32.4825 7.8299 32.4825Z" fill="white" stroke="white" stroke-width="0.1"/>
</g>
<defs>
<clipPath id="clip0">
<rect width="53" height="53" fill="white"/>
</clipPath>
</defs>
</svg>
