<svg width="50" height="50" viewBox="0 0 50 50" fill="none" xmlns="http://www.w3.org/2000/svg">
<g clip-path="url(#clip0)">
<path d="M47.6953 47.9468H45.6534V16.9468C45.6534 15.444 44.4309 14.2216 42.9282 14.2216H38.1407C36.6379 14.2216 35.4155 15.4442 35.4155 16.9468V47.9468H30.1768V31.0376C30.1768 29.5348 28.9544 28.3124 27.4516 28.3124H22.6641C21.1613 28.3124 19.9389 29.5349 19.9389 31.0376V47.9468H14.7003V39.2379C14.7003 37.7351 13.4777 36.5127 11.9751 36.5127H7.18746C5.68467 36.5127 4.46226 37.7352 4.46226 39.2379V47.9468H2.30484C1.71026 47.9468 1.22828 48.4288 1.22828 49.0234C1.22828 49.618 1.71026 50.1 2.30484 50.1H47.6953C48.2899 50.1 48.7718 49.618 48.7718 49.0234C48.7718 48.4288 48.2899 47.9468 47.6953 47.9468ZM12.5469 47.9468H6.61529V39.2379C6.61529 38.9225 6.87198 38.6658 7.18736 38.6658H11.9749C12.2902 38.6658 12.5469 38.9225 12.5469 39.2379V47.9468ZM28.0236 47.9468H22.092V31.0376C22.092 30.7222 22.3486 30.4655 22.664 30.4655H27.4515C27.7668 30.4655 28.0236 30.7222 28.0236 31.0376V47.9468ZM43.5003 47.9468H37.5686V16.9468C37.5686 16.6315 37.8253 16.3748 38.1407 16.3748H42.9282C43.2436 16.3748 43.5003 16.6315 43.5003 16.9468V47.9468Z" fill="#623B2A" stroke="#623B2A" stroke-width="0.2"/>
<path d="M38.571 2.05312H41.9777L32.5651 11.4658L28.9952 7.89589C28.7933 7.69404 28.5195 7.58057 28.2339 7.58057C27.9484 7.58057 27.6746 7.69404 27.4727 7.89589L9.91714 25.4516C9.49674 25.872 9.49675 26.5536 9.91713 26.9741L9.91718 26.9742C10.1274 27.1842 10.403 27.2893 10.6784 27.2893C10.9537 27.2893 11.2295 27.1842 11.4396 26.9739C11.4396 26.9739 11.4396 26.9739 11.4396 26.9739L28.2339 10.1795L31.8039 13.7494C32.2243 14.1698 32.9059 14.1698 33.3264 13.7494L33.2557 13.6787L33.3264 13.7494L43.5003 3.57569V6.63604C43.5003 7.23062 43.9822 7.7126 44.5768 7.7126C45.1714 7.7126 45.6534 7.23062 45.6534 6.63604V1.07422C45.6534 1.06113 45.6522 1.04231 45.6515 1.03101C45.6513 1.02937 45.6513 1.02791 45.6512 1.02662C45.6647 0.735104 45.5613 0.438401 45.3382 0.215226C45.115 -0.00792695 44.8183 -0.11139 44.5267 -0.0977917C44.5255 -0.0978692 44.5241 -0.097961 44.5225 -0.0980624C44.5112 -0.0987867 44.4924 -0.1 44.4792 -0.1H38.571C37.9764 -0.1 37.4944 0.381978 37.4944 0.976562C37.4944 1.57115 37.9764 2.05312 38.571 2.05312Z" fill="#623B2A" stroke="#623B2A" stroke-width="0.2"/>
<path d="M7.38672 30.6966C7.98129 30.6966 8.46328 30.2146 8.46328 29.6201C8.46328 29.0255 7.98129 28.5435 7.38672 28.5435C6.79215 28.5435 6.31016 29.0255 6.31016 29.6201C6.31016 30.2146 6.79215 30.6966 7.38672 30.6966Z" fill="#623B2A" stroke="#623B2A" stroke-width="0.2"/>
</g>
<defs>
<clipPath id="clip0">
<rect width="50" height="50" fill="white"/>
</clipPath>
</defs>
</svg>
