<svg width="55" height="55" viewBox="0 0 55 55" fill="none" xmlns="http://www.w3.org/2000/svg">
<g clip-path="url(#clip0)">
<mask id="path-1-outside-1" maskUnits="userSpaceOnUse" x="12.1207" y="9.84308" width="30" height="46" fill="black">
<rect fill="white" x="12.1207" y="9.84308" width="30" height="46"/>
<path d="M27.5 10.8431C19.5608 10.8487 13.1263 17.2832 13.1207 25.2224C13.1917 30.4047 15.7132 35.2471 19.918 38.2768V48.6613C19.9215 48.78 19.9455 48.8974 19.9894 49.0078V49.0893C20.0069 49.1314 20.0274 49.1723 20.0505 49.2116L23.6377 54.5516C23.8275 54.8325 24.1445 55.0005 24.4835 55H30.4146C30.7536 55.0005 31.0706 54.8325 31.2604 54.5516L34.8476 49.2116C34.8707 49.1723 34.8912 49.1314 34.9088 49.0893V49.0078C34.9526 48.8974 34.9767 48.78 34.9801 48.6613V38.2768C39.1851 35.2471 41.7064 30.4047 41.7774 25.2224C41.772 17.3228 35.3993 10.9046 27.5 10.8431ZM29.9254 52.9924H25.0746L22.853 49.6906H32.1368L29.9254 52.9924ZM21.9664 47.6524V44.9518H33.0336L33.0438 47.6524H21.9664ZM33.5024 36.8807V36.9113C33.2147 37.1007 33.0422 37.4227 33.0438 37.7673V42.9442H21.9664V37.7062C21.968 37.3616 21.7956 37.0395 21.5078 36.8501C17.6062 34.2429 15.2362 29.8838 15.1691 25.1918C15.3649 18.3788 21.0467 13.0145 27.8596 13.2103C34.3974 13.3982 39.6532 18.654 39.8411 25.1918C39.7841 29.8947 37.4128 34.2674 33.5024 36.8807Z"/>
</mask>
<path d="M27.5 10.8431C19.5608 10.8487 13.1263 17.2832 13.1207 25.2224C13.1917 30.4047 15.7132 35.2471 19.918 38.2768V48.6613C19.9215 48.78 19.9455 48.8974 19.9894 49.0078V49.0893C20.0069 49.1314 20.0274 49.1723 20.0505 49.2116L23.6377 54.5516C23.8275 54.8325 24.1445 55.0005 24.4835 55H30.4146C30.7536 55.0005 31.0706 54.8325 31.2604 54.5516L34.8476 49.2116C34.8707 49.1723 34.8912 49.1314 34.9088 49.0893V49.0078C34.9526 48.8974 34.9767 48.78 34.9801 48.6613V38.2768C39.1851 35.2471 41.7064 30.4047 41.7774 25.2224C41.772 17.3228 35.3993 10.9046 27.5 10.8431ZM29.9254 52.9924H25.0746L22.853 49.6906H32.1368L29.9254 52.9924ZM21.9664 47.6524V44.9518H33.0336L33.0438 47.6524H21.9664ZM33.5024 36.8807V36.9113C33.2147 37.1007 33.0422 37.4227 33.0438 37.7673V42.9442H21.9664V37.7062C21.968 37.3616 21.7956 37.0395 21.5078 36.8501C17.6062 34.2429 15.2362 29.8838 15.1691 25.1918C15.3649 18.3788 21.0467 13.0145 27.8596 13.2103C34.3974 13.3982 39.6532 18.654 39.8411 25.1918C39.7841 29.8947 37.4128 34.2674 33.5024 36.8807Z" fill="#623B2A"/>
<path d="M27.5 10.8431C19.5608 10.8487 13.1263 17.2832 13.1207 25.2224C13.1917 30.4047 15.7132 35.2471 19.918 38.2768V48.6613C19.9215 48.78 19.9455 48.8974 19.9894 49.0078V49.0893C20.0069 49.1314 20.0274 49.1723 20.0505 49.2116L23.6377 54.5516C23.8275 54.8325 24.1445 55.0005 24.4835 55H30.4146C30.7536 55.0005 31.0706 54.8325 31.2604 54.5516L34.8476 49.2116C34.8707 49.1723 34.8912 49.1314 34.9088 49.0893V49.0078C34.9526 48.8974 34.9767 48.78 34.9801 48.6613V38.2768C39.1851 35.2471 41.7064 30.4047 41.7774 25.2224C41.772 17.3228 35.3993 10.9046 27.5 10.8431ZM29.9254 52.9924H25.0746L22.853 49.6906H32.1368L29.9254 52.9924ZM21.9664 47.6524V44.9518H33.0336L33.0438 47.6524H21.9664ZM33.5024 36.8807V36.9113C33.2147 37.1007 33.0422 37.4227 33.0438 37.7673V42.9442H21.9664V37.7062C21.968 37.3616 21.7956 37.0395 21.5078 36.8501C17.6062 34.2429 15.2362 29.8838 15.1691 25.1918C15.3649 18.3788 21.0467 13.0145 27.8596 13.2103C34.3974 13.3982 39.6532 18.654 39.8411 25.1918C39.7841 29.8947 37.4128 34.2674 33.5024 36.8807Z" stroke="#623B2A" stroke-width="0.2" mask="url(#path-1-outside-1)"/>
<mask id="path-2-outside-2" maskUnits="userSpaceOnUse" x="25.8885" y="14.4595" width="12" height="12" fill="black">
<rect fill="white" x="25.8885" y="14.4595" width="12" height="12"/>
<path d="M27.9076 15.4595C27.3448 15.4595 26.8885 15.9158 26.8885 16.4786C26.8885 17.0414 27.3448 17.4977 27.9076 17.4977C32.1433 17.5033 35.5757 20.9357 35.5813 25.1714C35.5813 25.7342 36.0376 26.1905 36.6004 26.1905C37.1632 26.1905 37.6195 25.7342 37.6195 25.1714C37.6139 19.81 33.269 15.4651 27.9076 15.4595Z"/>
</mask>
<path d="M27.9076 15.4595C27.3448 15.4595 26.8885 15.9158 26.8885 16.4786C26.8885 17.0414 27.3448 17.4977 27.9076 17.4977C32.1433 17.5033 35.5757 20.9357 35.5813 25.1714C35.5813 25.7342 36.0376 26.1905 36.6004 26.1905C37.1632 26.1905 37.6195 25.7342 37.6195 25.1714C37.6139 19.81 33.269 15.4651 27.9076 15.4595Z" fill="#623B2A"/>
<path d="M27.9076 15.4595C27.3448 15.4595 26.8885 15.9158 26.8885 16.4786C26.8885 17.0414 27.3448 17.4977 27.9076 17.4977C32.1433 17.5033 35.5757 20.9357 35.5813 25.1714C35.5813 25.7342 36.0376 26.1905 36.6004 26.1905C37.1632 26.1905 37.6195 25.7342 37.6195 25.1714C37.6139 19.81 33.269 15.4651 27.9076 15.4595Z" stroke="#623B2A" stroke-width="0.2" mask="url(#path-2-outside-2)"/>
<mask id="path-3-outside-3" maskUnits="userSpaceOnUse" x="1.02289" y="23.1523" width="11" height="4" fill="black">
<rect fill="white" x="1.02289" y="23.1523" width="11" height="4"/>
<path d="M10.3794 24.1523H3.04197C2.47918 24.1523 2.02289 24.6086 2.02289 25.1714C2.02289 25.7342 2.47918 26.1905 3.04197 26.1905H10.3794C10.9422 26.1905 11.3985 25.7342 11.3985 25.1714C11.3985 24.6086 10.9422 24.1523 10.3794 24.1523Z"/>
</mask>
<path d="M10.3794 24.1523H3.04197C2.47918 24.1523 2.02289 24.6086 2.02289 25.1714C2.02289 25.7342 2.47918 26.1905 3.04197 26.1905H10.3794C10.9422 26.1905 11.3985 25.7342 11.3985 25.1714C11.3985 24.6086 10.9422 24.1523 10.3794 24.1523Z" fill="#623B2A"/>
<path d="M10.3794 24.1523H3.04197C2.47918 24.1523 2.02289 24.6086 2.02289 25.1714C2.02289 25.7342 2.47918 26.1905 3.04197 26.1905H10.3794C10.9422 26.1905 11.3985 25.7342 11.3985 25.1714C11.3985 24.6086 10.9422 24.1523 10.3794 24.1523Z" stroke="#623B2A" stroke-width="0.2" mask="url(#path-3-outside-3)"/>
<mask id="path-4-outside-4" maskUnits="userSpaceOnUse" x="42.6015" y="23.1523" width="11" height="4" fill="black">
<rect fill="white" x="42.6015" y="23.1523" width="11" height="4"/>
<path d="M51.958 24.1523H44.6206C44.0578 24.1523 43.6015 24.6086 43.6015 25.1714C43.6015 25.7342 44.0578 26.1905 44.6206 26.1905H51.958C52.5208 26.1905 52.9771 25.7342 52.9771 25.1714C52.9771 24.6086 52.5208 24.1523 51.958 24.1523Z"/>
</mask>
<path d="M51.958 24.1523H44.6206C44.0578 24.1523 43.6015 24.6086 43.6015 25.1714C43.6015 25.7342 44.0578 26.1905 44.6206 26.1905H51.958C52.5208 26.1905 52.9771 25.7342 52.9771 25.1714C52.9771 24.6086 52.5208 24.1523 51.958 24.1523Z" fill="#623B2A"/>
<path d="M51.958 24.1523H44.6206C44.0578 24.1523 43.6015 24.6086 43.6015 25.1714C43.6015 25.7342 44.0578 26.1905 44.6206 26.1905H51.958C52.5208 26.1905 52.9771 25.7342 52.9771 25.1714C52.9771 24.6086 52.5208 24.1523 51.958 24.1523Z" stroke="#623B2A" stroke-width="0.2" mask="url(#path-4-outside-4)"/>
<mask id="path-5-outside-5" maskUnits="userSpaceOnUse" x="8.1059" y="35.2187" width="9" height="9" fill="black">
<rect fill="white" x="8.1059" y="35.2187" width="9" height="9"/>
<path d="M16.2178 36.575C15.8517 36.1474 15.2084 36.0976 14.7809 36.4637C14.741 36.4979 14.7038 36.5351 14.6697 36.575V36.5546L9.46216 41.7825C9.03466 42.1486 8.98485 42.7919 9.35095 43.2194C9.71706 43.6469 10.3604 43.6967 10.7879 43.3306C10.8277 43.2965 10.8649 43.2593 10.8991 43.2194L16.1066 38.0119C16.5341 37.6458 16.5839 37.0025 16.2178 36.575Z"/>
</mask>
<path d="M16.2178 36.575C15.8517 36.1474 15.2084 36.0976 14.7809 36.4637C14.741 36.4979 14.7038 36.5351 14.6697 36.575V36.5546L9.46216 41.7825C9.03466 42.1486 8.98485 42.7919 9.35095 43.2194C9.71706 43.6469 10.3604 43.6967 10.7879 43.3306C10.8277 43.2965 10.8649 43.2593 10.8991 43.2194L16.1066 38.0119C16.5341 37.6458 16.5839 37.0025 16.2178 36.575Z" fill="#623B2A"/>
<path d="M16.2178 36.575C15.8517 36.1474 15.2084 36.0976 14.7809 36.4637C14.741 36.4979 14.7038 36.5351 14.6697 36.575V36.5546L9.46216 41.7825C9.03466 42.1486 8.98485 42.7919 9.35095 43.2194C9.71706 43.6469 10.3604 43.6967 10.7879 43.3306C10.8277 43.2965 10.8649 43.2593 10.8991 43.2194L16.1066 38.0119C16.5341 37.6458 16.5839 37.0025 16.2178 36.575Z" stroke="#623B2A" stroke-width="0.2" mask="url(#path-5-outside-5)"/>
<mask id="path-6-outside-6" maskUnits="userSpaceOnUse" x="37.5919" y="5.88855" width="9" height="9" fill="black">
<rect fill="white" x="37.5919" y="5.88855" width="9" height="9"/>
<path d="M45.4266 7.13361C45.0451 6.80686 44.4824 6.80686 44.1009 7.13361L38.8934 12.3411C38.4937 12.7374 38.4911 13.3828 38.8874 13.7824C39.0801 13.9768 39.343 14.0854 39.6169 14.0838L39.6067 14.0736C39.8775 14.0751 40.1379 13.9687 40.3303 13.778L45.5378 8.57052C45.9039 8.14301 45.8541 7.49971 45.4266 7.13361Z"/>
</mask>
<path d="M45.4266 7.13361C45.0451 6.80686 44.4824 6.80686 44.1009 7.13361L38.8934 12.3411C38.4937 12.7374 38.4911 13.3828 38.8874 13.7824C39.0801 13.9768 39.343 14.0854 39.6169 14.0838L39.6067 14.0736C39.8775 14.0751 40.1379 13.9687 40.3303 13.778L45.5378 8.57052C45.9039 8.14301 45.8541 7.49971 45.4266 7.13361Z" fill="#623B2A"/>
<path d="M45.4266 7.13361C45.0451 6.80686 44.4824 6.80686 44.1009 7.13361L38.8934 12.3411C38.4937 12.7374 38.4911 13.3828 38.8874 13.7824C39.0801 13.9768 39.343 14.0854 39.6169 14.0838L39.6067 14.0736C39.8775 14.0751 40.1379 13.9687 40.3303 13.778L45.5378 8.57052C45.9039 8.14301 45.8541 7.49971 45.4266 7.13361Z" stroke="#623B2A" stroke-width="0.2" mask="url(#path-6-outside-6)"/>
<mask id="path-7-outside-7" maskUnits="userSpaceOnUse" x="37.5371" y="35.1984" width="9" height="9" fill="black">
<rect fill="white" x="37.5371" y="35.1984" width="9" height="9"/>
<path d="M45.74 41.9875C45.6826 41.9099 45.6146 41.8409 45.5378 41.7825L40.3303 36.5546C39.9642 36.1271 39.3209 36.0773 38.8934 36.4434C38.4659 36.8095 38.4161 37.4528 38.7822 37.8803C38.8163 37.9202 38.8535 37.9574 38.8934 37.9915L44.1009 43.199C44.4354 43.6516 45.0736 43.7473 45.5262 43.4128C45.9788 43.0783 46.0745 42.4401 45.74 41.9875Z"/>
</mask>
<path d="M45.74 41.9875C45.6826 41.9099 45.6146 41.8409 45.5378 41.7825L40.3303 36.5546C39.9642 36.1271 39.3209 36.0773 38.8934 36.4434C38.4659 36.8095 38.4161 37.4528 38.7822 37.8803C38.8163 37.9202 38.8535 37.9574 38.8934 37.9915L44.1009 43.199C44.4354 43.6516 45.0736 43.7473 45.5262 43.4128C45.9788 43.0783 46.0745 42.4401 45.74 41.9875Z" fill="#623B2A"/>
<path d="M45.74 41.9875C45.6826 41.9099 45.6146 41.8409 45.5378 41.7825L40.3303 36.5546C39.9642 36.1271 39.3209 36.0773 38.8934 36.4434C38.4659 36.8095 38.4161 37.4528 38.7822 37.8803C38.8163 37.9202 38.8535 37.9574 38.8934 37.9915L44.1009 43.199C44.4354 43.6516 45.0736 43.7473 45.5262 43.4128C45.9788 43.0783 46.0745 42.4401 45.74 41.9875Z" stroke="#623B2A" stroke-width="0.2" mask="url(#path-7-outside-7)"/>
<mask id="path-8-outside-8" maskUnits="userSpaceOnUse" x="8.21719" y="5.88855" width="9" height="9" fill="black">
<rect fill="white" x="8.21719" y="5.88855" width="9" height="9"/>
<path d="M16.1067 12.3411L10.8992 7.13361C10.4717 6.7675 9.82836 6.81731 9.46225 7.24482C9.13551 7.62634 9.13551 8.189 9.46225 8.57052L14.6698 13.778C15.0973 14.1441 15.7406 14.0943 16.1067 13.6668C16.4334 13.2853 16.4334 12.7226 16.1067 12.3411Z"/>
</mask>
<path d="M16.1067 12.3411L10.8992 7.13361C10.4717 6.7675 9.82836 6.81731 9.46225 7.24482C9.13551 7.62634 9.13551 8.189 9.46225 8.57052L14.6698 13.778C15.0973 14.1441 15.7406 14.0943 16.1067 13.6668C16.4334 13.2853 16.4334 12.7226 16.1067 12.3411Z" fill="#623B2A"/>
<path d="M16.1067 12.3411L10.8992 7.13361C10.4717 6.7675 9.82836 6.81731 9.46225 7.24482C9.13551 7.62634 9.13551 8.189 9.46225 8.57052L14.6698 13.778C15.0973 14.1441 15.7406 14.0943 16.1067 13.6668C16.4334 13.2853 16.4334 12.7226 16.1067 12.3411Z" stroke="#623B2A" stroke-width="0.2" mask="url(#path-8-outside-8)"/>
<mask id="path-9-outside-9" maskUnits="userSpaceOnUse" x="25.4804" y="-1" width="4" height="11" fill="black">
<rect fill="white" x="25.4804" y="-1" width="4" height="11"/>
<path d="M27.5 0C26.9372 0 26.4809 0.456295 26.4809 1.01908V8.38707C26.4639 8.9496 26.9063 9.4194 27.4689 9.43621C27.4792 9.43647 27.4895 9.43672 27.5 9.43672C28.0628 9.43672 28.5191 8.98043 28.5191 8.41764V1.01908C28.5191 0.456295 28.0628 0 27.5 0Z"/>
</mask>
<path d="M27.5 0C26.9372 0 26.4809 0.456295 26.4809 1.01908V8.38707C26.4639 8.9496 26.9063 9.4194 27.4689 9.43621C27.4792 9.43647 27.4895 9.43672 27.5 9.43672C28.0628 9.43672 28.5191 8.98043 28.5191 8.41764V1.01908C28.5191 0.456295 28.0628 0 27.5 0Z" fill="#623B2A"/>
<path d="M27.5 0C26.9372 0 26.4809 0.456295 26.4809 1.01908V8.38707C26.4639 8.9496 26.9063 9.4194 27.4689 9.43621C27.4792 9.43647 27.4895 9.43672 27.5 9.43672C28.0628 9.43672 28.5191 8.98043 28.5191 8.41764V1.01908C28.5191 0.456295 28.0628 0 27.5 0Z" stroke="#623B2A" stroke-width="0.2" mask="url(#path-9-outside-9)"/>
</g>
<defs>
<clipPath id="clip0">
<rect width="55" height="55" fill="white"/>
</clipPath>
</defs>
</svg>
