<svg width="55" height="55" viewBox="0 0 55 55" fill="none" xmlns="http://www.w3.org/2000/svg">
<path d="M43.4271 33.8819C42.3477 31.6315 38.4862 28.5079 34.7555 25.4898C32.6746 23.8076 30.7083 22.2173 29.4548 20.9638C29.1408 20.6475 28.6711 20.5466 28.2563 20.6956C27.4841 20.9753 27.0073 21.1906 26.6316 21.3579C26.0587 21.6145 25.8662 21.7016 25.0938 21.7795C24.7523 21.8139 24.4453 21.9973 24.2551 22.2814C22.6348 24.7037 20.9573 24.4974 19.8367 24.1216C19.4792 24.0025 19.4151 23.8489 19.3807 23.7023C19.1401 22.6963 20.3478 20.3541 21.913 18.7889C25.637 15.0626 27.5573 14.1299 31.6136 15.9426C36.2152 18.0005 40.8261 19.6116 40.872 19.6276C41.4747 19.8362 42.1232 19.5199 42.3317 18.9218C42.538 18.3237 42.224 17.6705 41.6258 17.462C41.58 17.446 37.0608 15.867 32.5508 13.848C27.2961 11.499 24.4131 13.0459 20.295 17.1664C18.7275 18.7339 16.5985 21.9055 17.1485 24.2316C17.3845 25.2216 18.0812 25.955 19.117 26.2964C21.7135 27.1535 24.083 26.333 25.8476 23.991C26.5764 23.8788 26.9729 23.7138 27.5686 23.4456C27.784 23.3494 28.0361 23.2371 28.3707 23.1019C29.6816 24.3325 31.4507 25.7648 33.3139 27.2704C36.6826 29.9951 40.5029 33.0844 41.3622 34.8719C41.7862 35.7541 41.3301 36.3294 41.0207 36.5929C40.567 36.9825 39.946 37.1063 39.6091 36.8701C39.2379 36.6158 38.7544 36.5998 38.3716 36.8289C37.9866 37.058 37.7712 37.4912 37.8194 37.9358C37.8972 38.6645 37.2304 39.0816 36.9416 39.226C36.2082 39.5973 35.4429 39.5331 35.1564 39.2673C34.8355 38.9694 34.3749 38.8823 33.967 39.0335C33.5591 39.187 33.2749 39.5629 33.2336 39.9983C33.1649 40.7499 32.608 41.4718 31.8815 41.7537C31.5309 41.8865 31.0221 41.9668 30.5661 41.5497C30.282 41.293 29.8878 41.1944 29.5189 41.2838C29.1454 41.3754 28.8451 41.6459 28.7145 42.0057C28.671 42.1203 28.5724 42.3953 27.4999 42.3953C26.7367 42.3953 25.364 41.8797 24.6926 41.435C23.8882 40.9057 18.8442 37.1428 14.4879 33.4944C13.876 32.9788 12.8172 31.8742 11.8822 30.8979C11.0526 30.0317 10.2941 29.2457 9.90448 28.9157C9.41636 28.5032 8.69448 28.565 8.28886 29.0509C7.88098 29.5344 7.94049 30.2587 8.4241 30.6665C8.77935 30.9668 9.46685 31.6932 10.2254 32.4838C11.2475 33.5517 12.3039 34.6563 13.0143 35.2522C17.2815 38.8249 22.4102 42.6818 23.4322 43.3532C24.2756 43.9078 26.0929 44.6869 27.5 44.6869C28.6297 44.6869 29.4983 44.4279 30.101 43.9215C30.9076 44.2355 31.8244 44.2378 32.7066 43.894C33.7494 43.4907 34.6064 42.6772 35.0922 41.6918C35.9951 41.8843 37.0287 41.749 37.9682 41.277C38.8872 40.8141 39.5517 40.106 39.8817 39.2787C40.7939 39.3268 41.7334 39.0037 42.5103 38.3368C43.8258 37.2116 44.1879 35.4609 43.4271 33.8819Z" fill="#623B2A"/>
<path d="M22.9166 14.8955H12.6041C11.9716 14.8955 11.4583 15.4088 11.4583 16.0413C11.4583 16.6738 11.9716 17.1872 12.6041 17.1872H22.9166C23.5491 17.1872 24.0625 16.6738 24.0625 16.0413C24.0625 15.4088 23.5491 14.8955 22.9166 14.8955Z" fill="#623B2A"/>
<path d="M46.7844 31.4436C46.4291 30.9188 45.7187 30.7744 45.194 31.1319L41.8436 33.3823C41.3189 33.7352 41.179 34.4479 41.532 34.9727C41.7542 35.3004 42.1164 35.4792 42.4854 35.4792C42.7031 35.4792 42.9254 35.4173 43.1225 35.2844L46.4728 33.034C46.9975 32.6811 47.1372 31.9684 46.7844 31.4436Z" fill="#623B2A"/>
<path d="M39.671 36.9116C38.8506 36.2653 35.1816 32.5093 32.9129 30.1443C32.4751 29.686 31.7487 29.6699 31.2926 30.1099C30.8343 30.5477 30.8205 31.2741 31.2582 31.7302C31.8472 32.3443 37.0424 37.7596 38.2501 38.7129C38.4586 38.8779 38.7107 38.9582 38.9582 38.9582C39.2951 38.9582 39.632 38.8069 39.8611 38.5204C40.2531 38.0253 40.1683 37.3035 39.671 36.9116Z" fill="#623B2A"/>
<path d="M35.0922 39.2101C33.7195 38.1123 30.2706 34.448 29.4914 33.6001C29.0605 33.1326 28.3386 33.1051 27.8711 33.5313C27.4059 33.9598 27.3739 34.6863 27.8024 35.1516C27.8436 35.1951 31.9595 39.6387 33.6599 41C33.8707 41.1672 34.1251 41.2497 34.3749 41.2497C34.7095 41.2497 35.044 41.1007 35.2709 40.8212C35.6652 40.3261 35.585 39.6042 35.0922 39.2101Z" fill="#623B2A"/>
<path d="M30.5319 41.5179C28.8979 40.1406 25.5544 36.5816 24.9012 35.8826C24.4681 35.4197 23.7416 35.3945 23.281 35.8276C22.8181 36.2607 22.7951 36.9849 23.226 37.4479C24.1656 38.4539 27.3647 41.8456 29.0537 43.271C29.2691 43.452 29.5304 43.5414 29.7916 43.5414C30.117 43.5414 30.4425 43.4016 30.6694 43.1335C31.0772 42.6476 31.0154 41.9257 30.5319 41.5179Z" fill="#623B2A"/>
<path d="M13.3925 12.9178C11.4285 11.0569 3.575 10.4542 1.21462 10.3144C0.889238 10.2984 0.588994 10.406 0.359863 10.6238C0.130625 10.8392 0 11.1417 0 11.4579V32.0829C0 32.7154 0.513369 33.2288 1.14587 33.2288H8.02087C8.51587 33.2288 8.95587 32.9103 9.10938 32.4382C9.27663 31.9248 13.2252 19.8065 13.7454 13.8482C13.7752 13.4998 13.6469 13.156 13.3925 12.9178ZM7.18437 30.9372H2.29163V12.6863C5.97438 12.9773 9.94812 13.6098 11.3919 14.311C10.7846 19.3298 8.03687 28.2467 7.18437 30.9372Z" fill="#623B2A"/>
<path d="M53.8541 12.6039C44.857 12.6039 39.8657 14.907 39.6572 15.0032C39.3593 15.143 39.137 15.402 39.0453 15.716C38.9537 16.03 38.9995 16.3668 39.1714 16.6463C40.5876 18.9266 45.022 31.5903 45.8745 34.6795C46.012 35.1767 46.4635 35.5205 46.9791 35.5205H53.8541C54.4866 35.5205 55 35.0071 55 34.3746V13.7496C55 13.1149 54.4866 12.6039 53.8541 12.6039ZM52.7083 33.2288H47.8362C46.75 29.6905 43.5416 20.4642 41.7518 16.651C43.5003 16.0575 47.2565 15.0376 52.7083 14.9093V33.2288Z" fill="#623B2A"/>
</svg>
