<svg width="55" height="55" viewBox="0 0 55 55" fill="none" xmlns="http://www.w3.org/2000/svg">
<g clip-path="url(#clip0)">
<mask id="path-1-outside-1" maskUnits="userSpaceOnUse" x="22.4958" y="34.47" width="4" height="4" fill="black">
<rect fill="white" x="22.4958" y="34.47" width="4" height="4"/>
<path d="M25.3293 37.3039C25.7485 36.8839 25.7485 36.2041 25.3293 35.7841C24.9097 35.3653 24.2299 35.3653 23.8099 35.7841C23.3911 36.2041 23.3911 36.8839 23.8099 37.3039C24.2299 37.7227 24.9097 37.7227 25.3293 37.3039Z"/>
</mask>
<path d="M25.3293 37.3039C25.7485 36.8839 25.7485 36.2041 25.3293 35.7841C24.9097 35.3653 24.2299 35.3653 23.8099 35.7841C23.3911 36.2041 23.3911 36.8839 23.8099 37.3039C24.2299 37.7227 24.9097 37.7227 25.3293 37.3039Z" fill="#623B2A"/>
<path d="M25.3293 37.3039C25.7485 36.8839 25.7485 36.2041 25.3293 35.7841C24.9097 35.3653 24.2299 35.3653 23.8099 35.7841C23.3911 36.2041 23.3911 36.8839 23.8099 37.3039C24.2299 37.7227 24.9097 37.7227 25.3293 37.3039Z" stroke="#623B2A" stroke-width="0.2" mask="url(#path-1-outside-1)"/>
<mask id="path-2-outside-2" maskUnits="userSpaceOnUse" x="19.2436" y="-1" width="25" height="25" fill="black">
<rect fill="white" x="19.2436" y="-1" width="25" height="25"/>
<path d="M20.2436 11.8131C20.2436 18.3268 25.5429 23.6265 32.0566 23.6265C38.5703 23.6265 43.8697 18.3268 43.8697 11.8131C43.8697 5.29934 38.5703 0 32.0566 0C25.5429 0 20.2436 5.29934 20.2436 11.8131ZM41.7221 11.8131C41.7221 17.1426 37.3862 21.4785 32.0566 21.4785C26.7271 21.4785 22.3912 17.1426 22.3912 11.8131C22.3912 6.48392 26.7271 2.14802 32.0566 2.14802C37.3862 2.14802 41.7221 6.48392 41.7221 11.8131Z"/>
</mask>
<path d="M20.2436 11.8131C20.2436 18.3268 25.5429 23.6265 32.0566 23.6265C38.5703 23.6265 43.8697 18.3268 43.8697 11.8131C43.8697 5.29934 38.5703 0 32.0566 0C25.5429 0 20.2436 5.29934 20.2436 11.8131ZM41.7221 11.8131C41.7221 17.1426 37.3862 21.4785 32.0566 21.4785C26.7271 21.4785 22.3912 17.1426 22.3912 11.8131C22.3912 6.48392 26.7271 2.14802 32.0566 2.14802C37.3862 2.14802 41.7221 6.48392 41.7221 11.8131Z" fill="#623B2A"/>
<path d="M20.2436 11.8131C20.2436 18.3268 25.5429 23.6265 32.0566 23.6265C38.5703 23.6265 43.8697 18.3268 43.8697 11.8131C43.8697 5.29934 38.5703 0 32.0566 0C25.5429 0 20.2436 5.29934 20.2436 11.8131ZM41.7221 11.8131C41.7221 17.1426 37.3862 21.4785 32.0566 21.4785C26.7271 21.4785 22.3912 17.1426 22.3912 11.8131C22.3912 6.48392 26.7271 2.14802 32.0566 2.14802C37.3862 2.14802 41.7221 6.48392 41.7221 11.8131Z" stroke="#623B2A" stroke-width="0.2" mask="url(#path-2-outside-2)"/>
<mask id="path-3-outside-3" maskUnits="userSpaceOnUse" x="-0.946198" y="21.8077" width="57" height="34" fill="black">
<rect fill="white" x="-0.946198" y="21.8077" width="57" height="34"/>
<path d="M12.4236 54.6823C12.8398 55.102 13.5175 55.1066 13.9392 54.6911L19.1458 49.5618C20.0304 48.6772 20.2994 47.3676 19.9104 46.2292L21.0303 45.1491C21.6333 44.5666 22.4272 44.2456 23.2665 44.2456H37.5431C40.0759 44.2456 42.4698 43.273 44.2847 41.5068C44.3594 41.4342 43.7178 42.1899 54.0244 29.8717C55.5531 28.0631 55.3244 25.3473 53.5141 23.817C51.7152 22.3009 49.0205 22.5187 47.4876 24.2962L41.1506 30.8095C40.3503 29.8247 39.1301 29.2108 37.8117 29.2108H25.8362C24.1322 28.4978 22.324 28.137 20.4584 28.137C15.287 28.137 10.7716 30.5254 8.34826 35.0036C7.32734 34.8101 6.2506 35.119 5.47599 35.8936L0.367152 41.0175C-0.0499471 41.4359 -0.0507863 42.1127 0.365474 42.5323L12.4236 54.6823ZM20.458 30.2846C22.1029 30.2846 23.6932 30.6156 25.1858 31.2686C25.3218 31.3281 25.4682 31.3588 25.6163 31.3588H37.8117C38.9761 31.3588 39.9597 32.3084 39.9597 33.5064C39.9597 34.691 38.9962 35.6544 37.8117 35.6544H29.0496C28.4567 35.6544 27.9758 36.1353 27.9758 36.7282C27.9758 37.3215 28.4567 37.802 29.0496 37.802H37.8117C40.1804 37.802 42.1073 35.8751 42.1073 33.5064C42.1073 33.3175 42.0939 33.1304 42.0695 32.9449C48.1997 26.6435 49.0641 25.7581 49.101 25.7141C49.8664 24.8107 51.2251 24.6961 52.129 25.4581C53.0337 26.2231 53.1482 27.581 52.3808 28.4894L42.7485 40.0046C41.3419 41.3549 39.4952 42.098 37.5431 42.098H23.2665C21.8675 42.098 20.5432 42.633 19.5386 43.6036L18.6259 44.4844L10.2126 36.0715C12.1789 32.3826 15.8686 30.2846 20.458 30.2846ZM6.99584 37.4113C7.35 37.0572 7.89382 36.9934 8.32561 37.2603C8.5115 37.3736 7.97774 36.8876 17.6273 46.5237C18.0565 46.953 18.0334 47.637 17.6331 48.0373L13.1944 52.4101L2.64231 41.7774L6.99584 37.4113Z"/>
</mask>
<path d="M12.4236 54.6823C12.8398 55.102 13.5175 55.1066 13.9392 54.6911L19.1458 49.5618C20.0304 48.6772 20.2994 47.3676 19.9104 46.2292L21.0303 45.1491C21.6333 44.5666 22.4272 44.2456 23.2665 44.2456H37.5431C40.0759 44.2456 42.4698 43.273 44.2847 41.5068C44.3594 41.4342 43.7178 42.1899 54.0244 29.8717C55.5531 28.0631 55.3244 25.3473 53.5141 23.817C51.7152 22.3009 49.0205 22.5187 47.4876 24.2962L41.1506 30.8095C40.3503 29.8247 39.1301 29.2108 37.8117 29.2108H25.8362C24.1322 28.4978 22.324 28.137 20.4584 28.137C15.287 28.137 10.7716 30.5254 8.34826 35.0036C7.32734 34.8101 6.2506 35.119 5.47599 35.8936L0.367152 41.0175C-0.0499471 41.4359 -0.0507863 42.1127 0.365474 42.5323L12.4236 54.6823ZM20.458 30.2846C22.1029 30.2846 23.6932 30.6156 25.1858 31.2686C25.3218 31.3281 25.4682 31.3588 25.6163 31.3588H37.8117C38.9761 31.3588 39.9597 32.3084 39.9597 33.5064C39.9597 34.691 38.9962 35.6544 37.8117 35.6544H29.0496C28.4567 35.6544 27.9758 36.1353 27.9758 36.7282C27.9758 37.3215 28.4567 37.802 29.0496 37.802H37.8117C40.1804 37.802 42.1073 35.8751 42.1073 33.5064C42.1073 33.3175 42.0939 33.1304 42.0695 32.9449C48.1997 26.6435 49.0641 25.7581 49.101 25.7141C49.8664 24.8107 51.2251 24.6961 52.129 25.4581C53.0337 26.2231 53.1482 27.581 52.3808 28.4894L42.7485 40.0046C41.3419 41.3549 39.4952 42.098 37.5431 42.098H23.2665C21.8675 42.098 20.5432 42.633 19.5386 43.6036L18.6259 44.4844L10.2126 36.0715C12.1789 32.3826 15.8686 30.2846 20.458 30.2846ZM6.99584 37.4113C7.35 37.0572 7.89382 36.9934 8.32561 37.2603C8.5115 37.3736 7.97774 36.8876 17.6273 46.5237C18.0565 46.953 18.0334 47.637 17.6331 48.0373L13.1944 52.4101L2.64231 41.7774L6.99584 37.4113Z" fill="#623B2A"/>
<path d="M12.4236 54.6823C12.8398 55.102 13.5175 55.1066 13.9392 54.6911L19.1458 49.5618C20.0304 48.6772 20.2994 47.3676 19.9104 46.2292L21.0303 45.1491C21.6333 44.5666 22.4272 44.2456 23.2665 44.2456H37.5431C40.0759 44.2456 42.4698 43.273 44.2847 41.5068C44.3594 41.4342 43.7178 42.1899 54.0244 29.8717C55.5531 28.0631 55.3244 25.3473 53.5141 23.817C51.7152 22.3009 49.0205 22.5187 47.4876 24.2962L41.1506 30.8095C40.3503 29.8247 39.1301 29.2108 37.8117 29.2108H25.8362C24.1322 28.4978 22.324 28.137 20.4584 28.137C15.287 28.137 10.7716 30.5254 8.34826 35.0036C7.32734 34.8101 6.2506 35.119 5.47599 35.8936L0.367152 41.0175C-0.0499471 41.4359 -0.0507863 42.1127 0.365474 42.5323L12.4236 54.6823ZM20.458 30.2846C22.1029 30.2846 23.6932 30.6156 25.1858 31.2686C25.3218 31.3281 25.4682 31.3588 25.6163 31.3588H37.8117C38.9761 31.3588 39.9597 32.3084 39.9597 33.5064C39.9597 34.691 38.9962 35.6544 37.8117 35.6544H29.0496C28.4567 35.6544 27.9758 36.1353 27.9758 36.7282C27.9758 37.3215 28.4567 37.802 29.0496 37.802H37.8117C40.1804 37.802 42.1073 35.8751 42.1073 33.5064C42.1073 33.3175 42.0939 33.1304 42.0695 32.9449C48.1997 26.6435 49.0641 25.7581 49.101 25.7141C49.8664 24.8107 51.2251 24.6961 52.129 25.4581C53.0337 26.2231 53.1482 27.581 52.3808 28.4894L42.7485 40.0046C41.3419 41.3549 39.4952 42.098 37.5431 42.098H23.2665C21.8675 42.098 20.5432 42.633 19.5386 43.6036L18.6259 44.4844L10.2126 36.0715C12.1789 32.3826 15.8686 30.2846 20.458 30.2846ZM6.99584 37.4113C7.35 37.0572 7.89382 36.9934 8.32561 37.2603C8.5115 37.3736 7.97774 36.8876 17.6273 46.5237C18.0565 46.953 18.0334 47.637 17.6331 48.0373L13.1944 52.4101L2.64231 41.7774L6.99584 37.4113Z" stroke="#623B2A" stroke-width="0.2" mask="url(#path-3-outside-3)"/>
<mask id="path-4-outside-4" maskUnits="userSpaceOnUse" x="27.5513" y="3.29561" width="8" height="17" fill="black">
<rect fill="white" x="27.5513" y="3.29561" width="8" height="17"/>
<path d="M30.768 5.36983V6.62826C29.518 7.07137 28.62 8.26518 28.62 9.66545C28.62 11.4417 30.0651 12.8873 31.8418 12.8873C32.4339 12.8873 32.9156 13.369 32.9156 13.9611C32.9156 14.5531 32.4339 15.0349 31.8418 15.0349C31.3832 15.0349 30.8876 14.7466 30.4474 14.2225C30.0656 13.7685 29.3883 13.7101 28.9343 14.0916C28.4802 14.4734 28.4215 15.1507 28.8034 15.6047C29.3774 16.2874 30.0526 16.7633 30.768 17.0033V18.2567C30.768 18.85 31.2489 19.3305 31.8418 19.3305C32.4347 19.3305 32.9156 18.85 32.9156 18.2567V16.9983C34.1656 16.5547 35.0636 15.3609 35.0636 13.9611C35.0636 12.1844 33.6185 10.7392 31.8418 10.7392C31.2497 10.7392 30.768 10.2575 30.768 9.66545C30.768 9.07337 31.2497 8.59123 31.8418 8.59123C32.2224 8.59123 32.624 8.78551 33.0033 9.15267C33.4296 9.56516 34.1094 9.55383 34.5219 9.12792C34.9344 8.70159 34.923 8.02181 34.4971 7.60932C33.9521 7.08186 33.4066 6.78352 32.9156 6.62071V5.36983C32.9156 4.77649 32.4347 4.29561 31.8418 4.29561C31.2489 4.29561 30.768 4.77649 30.768 5.36983Z"/>
</mask>
<path d="M30.768 5.36983V6.62826C29.518 7.07137 28.62 8.26518 28.62 9.66545C28.62 11.4417 30.0651 12.8873 31.8418 12.8873C32.4339 12.8873 32.9156 13.369 32.9156 13.9611C32.9156 14.5531 32.4339 15.0349 31.8418 15.0349C31.3832 15.0349 30.8876 14.7466 30.4474 14.2225C30.0656 13.7685 29.3883 13.7101 28.9343 14.0916C28.4802 14.4734 28.4215 15.1507 28.8034 15.6047C29.3774 16.2874 30.0526 16.7633 30.768 17.0033V18.2567C30.768 18.85 31.2489 19.3305 31.8418 19.3305C32.4347 19.3305 32.9156 18.85 32.9156 18.2567V16.9983C34.1656 16.5547 35.0636 15.3609 35.0636 13.9611C35.0636 12.1844 33.6185 10.7392 31.8418 10.7392C31.2497 10.7392 30.768 10.2575 30.768 9.66545C30.768 9.07337 31.2497 8.59123 31.8418 8.59123C32.2224 8.59123 32.624 8.78551 33.0033 9.15267C33.4296 9.56516 34.1094 9.55383 34.5219 9.12792C34.9344 8.70159 34.923 8.02181 34.4971 7.60932C33.9521 7.08186 33.4066 6.78352 32.9156 6.62071V5.36983C32.9156 4.77649 32.4347 4.29561 31.8418 4.29561C31.2489 4.29561 30.768 4.77649 30.768 5.36983Z" fill="#623B2A"/>
<path d="M30.768 5.36983V6.62826C29.518 7.07137 28.62 8.26518 28.62 9.66545C28.62 11.4417 30.0651 12.8873 31.8418 12.8873C32.4339 12.8873 32.9156 13.369 32.9156 13.9611C32.9156 14.5531 32.4339 15.0349 31.8418 15.0349C31.3832 15.0349 30.8876 14.7466 30.4474 14.2225C30.0656 13.7685 29.3883 13.7101 28.9343 14.0916C28.4802 14.4734 28.4215 15.1507 28.8034 15.6047C29.3774 16.2874 30.0526 16.7633 30.768 17.0033V18.2567C30.768 18.85 31.2489 19.3305 31.8418 19.3305C32.4347 19.3305 32.9156 18.85 32.9156 18.2567V16.9983C34.1656 16.5547 35.0636 15.3609 35.0636 13.9611C35.0636 12.1844 33.6185 10.7392 31.8418 10.7392C31.2497 10.7392 30.768 10.2575 30.768 9.66545C30.768 9.07337 31.2497 8.59123 31.8418 8.59123C32.2224 8.59123 32.624 8.78551 33.0033 9.15267C33.4296 9.56516 34.1094 9.55383 34.5219 9.12792C34.9344 8.70159 34.923 8.02181 34.4971 7.60932C33.9521 7.08186 33.4066 6.78352 32.9156 6.62071V5.36983C32.9156 4.77649 32.4347 4.29561 31.8418 4.29561C31.2489 4.29561 30.768 4.77649 30.768 5.36983Z" stroke="#623B2A" stroke-width="0.2" mask="url(#path-4-outside-4)"/>
</g>
<defs>
<clipPath id="clip0">
<rect width="54.8926" height="55" fill="white"/>
</clipPath>
</defs>
</svg>
