<svg width="52" height="52" viewBox="0 0 52 52" fill="none" xmlns="http://www.w3.org/2000/svg">
<g clip-path="url(#clip0)">
<path d="M33.3983 37.4495C32.8515 37.1209 32.2904 36.7906 31.7293 36.4669C31.8612 35.3426 31.8615 34.2053 31.7299 33.0832C32.2931 32.7582 32.854 32.4281 33.398 32.101C34.3141 31.5505 34.696 30.3891 34.2861 29.3991C34.2861 29.3991 34.2861 29.3991 34.286 29.399L33.0905 26.5128C32.6805 25.5232 31.5897 24.9716 30.5522 25.2301C29.9356 25.3835 29.3056 25.5468 28.6778 25.7151C27.9769 24.8283 27.1727 24.0242 26.2847 23.3229C26.4531 22.6951 26.6164 22.0648 26.77 21.448C27.0285 20.4109 26.477 19.3197 25.4873 18.9097L22.6011 17.7142C21.6115 17.3041 20.4497 17.6857 19.8991 18.602C19.5711 19.1478 19.2407 19.7089 18.9166 20.271C17.7926 20.1391 16.6555 20.1387 15.5329 20.2703C15.2077 19.7065 14.8775 19.1456 14.5508 18.602C13.9999 17.6859 12.8384 17.3042 11.8487 17.7142L8.96252 18.9097C7.97309 19.3196 7.42141 20.4109 7.67988 21.448C7.83375 22.066 7.99686 22.6961 8.16495 23.3223C7.2782 24.023 6.47403 24.8275 5.77284 25.7154C5.14356 25.5465 4.51327 25.3834 3.8977 25.2301C2.86034 24.9714 1.76935 25.5234 1.35935 26.5129L0.164056 29.399C-0.245748 30.3888 0.136025 31.5503 1.05192 32.1008C1.59781 32.4288 2.15895 32.7591 2.72089 33.0834C2.58906 34.2073 2.58876 35.3444 2.72028 36.4671C2.15783 36.7916 1.597 37.1217 1.05171 37.4494C0.135822 37.9999 -0.245951 39.1614 0.163955 40.1512L1.35955 43.0375C1.76945 44.027 2.86013 44.5788 3.8979 44.3202C4.51377 44.1668 5.14387 44.0037 5.77203 43.8351C6.47292 44.7219 7.27719 45.5258 8.16515 46.2272C7.99655 46.8558 7.83334 47.4861 7.67988 48.1022C7.42141 49.1392 7.97289 50.2305 8.96252 50.6404L11.8488 51.836C12.1169 51.947 12.3976 52 12.6752 52C13.4229 52 14.1493 51.6162 14.5512 50.9484C14.8767 50.4067 15.2069 49.8458 15.5337 49.2795C16.6575 49.4112 17.7949 49.4114 18.9174 49.2801C19.2402 49.8399 19.5704 50.4007 19.8995 50.9485C20.4501 51.8646 21.6116 52.2461 22.6015 51.8362L25.4877 50.6407C26.4772 50.2308 27.0289 49.1395 26.7704 48.1025C26.6177 47.4898 26.4546 46.8597 26.2853 46.2281C27.1719 45.5275 27.9761 44.7231 28.6775 43.8351C29.305 44.0034 29.9353 44.1665 30.5524 44.3203C31.5894 44.579 32.6807 44.0274 33.0907 43.0376L34.2862 40.1512C34.6959 39.1615 34.3141 38 33.3983 37.4495ZM30.9884 42.0301C30.3956 41.8816 29.7913 41.7246 29.1904 41.5627C28.3397 41.3338 27.442 41.6329 26.9033 42.3251C26.2842 43.1203 25.5677 43.837 24.7738 44.4552C24.0824 44.9937 23.7837 45.8911 24.0128 46.7412C24.1756 47.3459 24.3325 47.9498 24.48 48.5385L21.827 49.6373C21.5115 49.1108 21.1955 48.5728 20.8867 48.0362C20.4472 47.273 19.6014 46.8501 18.7319 46.9578C17.7335 47.0818 16.72 47.0817 15.7202 46.9573C14.8483 46.849 14.0032 47.2719 13.5638 48.0352C13.2512 48.578 12.9351 49.1163 12.623 49.6372L9.97002 48.5383C10.1184 47.9465 10.2754 47.3423 10.4375 46.7405C10.6665 45.8899 10.3672 44.9921 9.67508 44.4533C8.87984 43.8343 8.16332 43.1179 7.54501 42.3241C7.00673 41.6325 6.10932 41.3339 5.25884 41.5629C4.65728 41.7249 4.05329 41.8819 3.46169 42.0302L2.36278 39.3772C2.88685 39.063 3.42502 38.747 3.96392 38.4368C4.72716 37.9973 5.15047 37.1517 5.04241 36.2821C4.9182 35.2836 4.9185 34.2702 5.04271 33.2703C5.15118 32.3999 4.72817 31.5534 3.96452 31.1138C3.42584 30.8036 2.88756 30.4876 2.36268 30.1728L3.46159 27.5199C4.05268 27.6681 4.65677 27.8251 5.25945 27.9873C6.10973 28.2164 7.00754 27.917 7.54663 27.2249C8.16566 26.4296 8.88218 25.713 9.67589 25.0949C10.3673 24.5565 10.666 23.659 10.437 22.8085C10.2755 22.2089 10.1185 21.605 9.96971 21.0115L12.6227 19.9127C12.9359 20.4353 13.252 20.9734 13.5631 21.5138C14.0027 22.277 14.8492 22.701 15.7178 22.5922C16.7159 22.468 17.7292 22.468 18.7299 22.5927C19.6008 22.7012 20.4468 22.2777 20.8862 21.5144C21.1962 20.9757 21.5124 20.4374 21.8268 19.9127L24.4798 21.0115C24.3314 21.6039 24.1743 22.2081 24.0124 22.8094C23.7833 23.6599 24.0826 24.5577 24.7748 25.0965C25.5699 25.7156 26.2865 26.432 26.9049 27.2258C27.4431 27.9171 28.3402 28.2158 29.1911 27.9869C29.7923 27.825 30.3962 27.668 30.9882 27.5196L32.087 30.1725C31.5636 30.4862 31.0255 30.8022 30.4858 31.113C29.7226 31.5525 29.2992 32.3982 29.4074 33.2677C29.5316 34.2658 29.5314 35.2793 29.4068 36.2798C29.2986 37.1503 29.7218 37.9966 30.4851 38.4361C31.023 38.7457 31.5613 39.0618 32.087 39.3768L30.9884 42.0301Z" fill="#623B2A"/>
<path d="M24.5539 31.7394C24.5539 31.7394 24.5539 31.7394 24.5538 31.7393C22.8801 27.6982 18.231 25.7723 14.1893 27.4461C10.1483 29.1201 8.22227 33.7696 9.89623 37.8107C10.707 39.7684 12.2319 41.293 14.1894 42.104C15.1681 42.5093 16.1966 42.712 17.225 42.712C18.2534 42.712 19.2818 42.5093 20.2608 42.104C24.3017 40.43 26.2277 35.7806 24.5539 31.7394ZM19.37 39.9535C17.9869 40.5264 16.4636 40.5263 15.0801 39.9535C13.697 39.3806 12.6197 38.3032 12.0467 36.92C10.8638 34.0647 12.2247 30.7793 15.0802 29.5966C15.7794 29.307 16.5042 29.1699 17.2178 29.1699C19.4183 29.1699 21.5103 30.4739 22.4035 32.6301C23.5862 35.4854 22.2253 38.7707 19.37 39.9535Z" fill="#623B2A"/>
<path d="M50.4311 10.2513C50.0294 10.1912 49.6167 10.1328 49.2011 10.0773C48.9917 9.38092 48.712 8.70573 48.3669 8.06447C48.6212 7.73185 48.8719 7.39862 49.1141 7.07129C49.6519 6.344 49.5741 5.31253 48.9333 4.67208L47.3278 3.06678C46.687 2.42592 45.6556 2.34823 44.9285 2.8862C44.6 3.12924 44.2669 3.3798 43.9353 3.6332C43.2941 3.28809 42.6191 3.00838 41.9224 2.79886C41.8669 2.38327 41.8087 1.97062 41.7486 1.56894C41.6148 0.674578 40.8305 0 39.9244 0H37.6539C36.7477 0 35.9635 0.674578 35.8297 1.56884C35.7697 1.97031 35.7114 2.38306 35.6558 2.79876C34.9592 3.00828 34.284 3.28798 33.643 3.63309C33.3116 3.37959 32.9782 3.12894 32.6499 2.8861C31.9226 2.34812 30.8911 2.42582 30.2506 3.06658L28.6453 4.67177C28.0044 5.31243 27.9265 6.344 28.4645 7.07139C28.7065 7.39862 28.9572 7.73195 29.2114 8.06447C28.8665 8.70563 28.5867 9.38072 28.3771 10.0773C27.9617 10.1329 27.5489 10.1912 27.1472 10.2513C26.2528 10.3852 25.5782 11.1693 25.5782 12.0756V14.346C25.5782 15.2521 26.2526 16.0364 27.147 16.1703C27.5488 16.2304 27.9615 16.2888 28.377 16.3442C28.5866 17.0408 28.8663 17.7159 29.2113 18.3571C28.9573 18.6894 28.7066 19.0226 28.4641 19.3503C27.9264 20.0774 28.0041 21.1091 28.6449 21.7494L30.2504 23.3549C30.891 23.9958 31.9225 24.0734 32.6497 23.5355C32.9781 23.2926 33.3113 23.0419 33.6428 22.7886C34.2841 23.1337 34.9593 23.4134 35.6557 23.6228C35.7111 24.0383 35.7695 24.4511 35.8296 24.8529C35.9635 25.7472 36.7477 26.4218 37.6539 26.4218H39.9244C40.8305 26.4218 41.6148 25.7474 41.7486 24.8527C41.8086 24.451 41.8669 24.0383 41.9224 23.6227C42.619 23.4134 43.294 23.1335 43.9353 22.7884C44.2667 23.0419 44.6 23.2925 44.9284 23.5355C45.6555 24.0735 46.6871 23.9958 47.3277 23.355L48.9332 21.7497C49.574 21.1091 49.6518 20.0775 49.1138 19.3502C48.8714 19.0226 48.6208 18.6892 48.3669 18.3572C48.7118 17.7161 48.9916 17.0411 49.2011 16.3444C49.6166 16.2888 50.0294 16.2305 50.431 16.1704C51.3255 16.0365 52.0001 15.2524 52.0001 14.3461V12.0757C52 11.1694 51.3255 10.3852 50.4311 10.2513ZM49.7888 14.03C49.4239 14.083 49.0517 14.1344 48.6783 14.183C47.9396 14.2794 47.3349 14.8036 47.1381 15.5184C46.9495 16.2029 46.6758 16.8633 46.3247 17.4814C45.9579 18.1267 46.0145 18.9252 46.4688 19.5159C46.6978 19.8137 46.925 20.1134 47.1461 20.4096L45.9879 21.5679C45.6908 21.3462 45.3911 21.1191 45.0939 20.8906C44.5034 20.4361 43.7048 20.3799 43.0594 20.7463C42.4412 21.0975 41.7808 21.3712 41.0967 21.5598C40.3815 21.7568 39.8573 22.3615 39.7612 23.1C39.7125 23.4734 39.6613 23.8458 39.6082 24.2106H37.97C37.9171 23.8458 37.8658 23.4735 37.8171 23.1004C37.7207 22.3616 37.1965 21.7569 36.4815 21.5599C35.7973 21.3714 35.137 21.0977 34.5186 20.7465C33.8733 20.3798 33.0746 20.4362 32.4842 20.8906C32.187 21.1192 31.8875 21.3462 31.5902 21.5679L30.432 20.4096C30.6531 20.1131 30.8802 19.8136 31.1095 19.5155C31.5635 18.925 31.62 18.1265 31.2534 17.4812C30.9023 16.8631 30.6286 16.2026 30.44 15.5183C30.2431 14.8033 29.6385 14.2792 28.8998 14.1828C28.5263 14.134 28.154 14.0829 27.7892 14.0297V12.3917C28.154 12.3388 28.5262 12.2874 28.8997 12.2388C29.6384 12.1424 30.2431 11.6181 30.4399 10.9033C30.6285 10.219 30.9021 9.55855 31.2533 8.94034C31.62 8.29512 31.5635 7.49653 31.1094 6.90595C30.88 6.60776 30.6529 6.30815 30.432 6.0122L31.5902 4.85388C31.8872 5.07559 32.1869 5.30268 32.4839 5.53109C33.0742 5.98559 33.8728 6.04226 34.5186 5.67552C35.1366 5.32441 35.7972 5.0507 36.4813 4.862C37.1965 4.66497 37.7208 4.06027 37.8169 3.3218C37.8656 2.94836 37.917 2.57613 37.9699 2.21132H39.6081C39.661 2.57603 39.7123 2.94826 39.761 3.3215C39.8574 4.06027 40.3816 4.66497 41.0965 4.8619C41.7809 5.0505 42.4414 5.32431 43.0595 5.67541C43.705 6.04216 44.5035 5.98518 45.0938 5.5312C45.3911 5.30268 45.6906 5.07559 45.9879 4.85388L47.1461 6.0122C46.9252 6.30825 46.6981 6.60796 46.4687 6.90625C46.0146 7.49673 45.9581 8.29522 46.3246 8.94044C46.6757 9.55876 46.9494 10.2193 47.138 10.9034C47.3349 11.6184 47.9395 12.1426 48.6782 12.239C49.0516 12.2877 49.4239 12.339 49.7888 12.392V14.03Z" fill="#623B2A"/>
<path d="M38.7892 8.4982C36.1907 8.4982 34.0766 10.6122 34.0766 13.2108C34.0766 15.8095 36.1906 17.9235 38.7892 17.9235C41.3878 17.9235 43.5018 15.8095 43.5018 13.2108C43.5018 10.6122 41.3878 8.4982 38.7892 8.4982ZM38.7892 15.8286C37.3459 15.8286 36.1714 14.6542 36.1714 13.2107C36.1714 11.7672 37.3458 10.5929 38.7892 10.5929C40.2326 10.5929 41.4069 11.7673 41.407 13.2107C41.407 14.6542 40.2326 15.8286 38.7892 15.8286Z" fill="#623B2A"/>
</g>
<defs>
<clipPath id="clip0">
<rect width="52" height="52" fill="white"/>
</clipPath>
</defs>
</svg>
