<svg width="52" height="52" viewBox="0 0 52 52" fill="none" xmlns="http://www.w3.org/2000/svg">
<g clip-path="url(#clip0)">
<mask id="path-1-outside-1" maskUnits="userSpaceOnUse" x="-1" y="48.8049" width="4" height="4" fill="black">
<rect fill="white" x="-1" y="48.8049" width="4" height="4"/>
<path d="M1.02172 51.8484C1.586 51.8484 2.04344 51.3909 2.04344 50.8267C2.04344 50.2624 1.586 49.8049 1.02172 49.8049C0.45744 49.8049 0 50.2624 0 50.8267C0 51.3909 0.45744 51.8484 1.02172 51.8484Z"/>
</mask>
<path d="M1.02172 51.8484C1.586 51.8484 2.04344 51.3909 2.04344 50.8267C2.04344 50.2624 1.586 49.8049 1.02172 49.8049C0.45744 49.8049 0 50.2624 0 50.8267C0 51.3909 0.45744 51.8484 1.02172 51.8484Z" fill="#623B2A"/>
<path d="M1.02172 51.8484C1.586 51.8484 2.04344 51.3909 2.04344 50.8267C2.04344 50.2624 1.586 49.8049 1.02172 49.8049C0.45744 49.8049 0 50.2624 0 50.8267C0 51.3909 0.45744 51.8484 1.02172 51.8484Z" stroke="#623B2A" stroke-width="0.4" mask="url(#path-1-outside-1)"/>
<mask id="path-2-outside-2" maskUnits="userSpaceOnUse" x="25.0981" y="22.8944" width="4" height="4" fill="black">
<rect fill="white" x="25.0981" y="22.8944" width="4" height="4"/>
<path d="M27.1178 25.9338C27.6809 25.9338 28.1375 25.4773 28.1375 24.9141C28.1375 24.3509 27.6809 23.8944 27.1178 23.8944C26.5546 23.8944 26.0981 24.3509 26.0981 24.9141C26.0981 25.4773 26.5546 25.9338 27.1178 25.9338Z"/>
</mask>
<path d="M27.1178 25.9338C27.6809 25.9338 28.1375 25.4773 28.1375 24.9141C28.1375 24.3509 27.6809 23.8944 27.1178 23.8944C26.5546 23.8944 26.0981 24.3509 26.0981 24.9141C26.0981 25.4773 26.5546 25.9338 27.1178 25.9338Z" fill="#623B2A"/>
<path d="M27.1178 25.9338C27.6809 25.9338 28.1375 25.4773 28.1375 24.9141C28.1375 24.3509 27.6809 23.8944 27.1178 23.8944C26.5546 23.8944 26.0981 24.3509 26.0981 24.9141C26.0981 25.4773 26.5546 25.9338 27.1178 25.9338Z" stroke="#623B2A" stroke-width="0.4" mask="url(#path-2-outside-2)"/>
<mask id="path-3-outside-3" maskUnits="userSpaceOnUse" x="32.0638" y="9.71649" width="10" height="10" fill="black">
<rect fill="white" x="32.0638" y="9.71649" width="10" height="10"/>
<path d="M40.4706 11.9877C39.6509 11.1678 38.561 10.7165 37.4018 10.7165C36.2425 10.7165 35.1526 11.168 34.3329 11.9877C32.6408 13.6799 32.6408 16.4333 34.3329 18.1254C35.1792 18.9715 36.2903 19.3944 37.4018 19.3944C38.513 19.3944 39.6246 18.9713 40.4706 18.1254C42.1627 16.4332 42.1627 13.6798 40.4706 11.9877ZM39.0287 16.6833C38.1316 17.5803 36.6718 17.5803 35.7749 16.6833C34.8778 15.7863 34.8778 14.3266 35.7749 13.4295C36.2095 12.995 36.7872 12.7557 37.4018 12.7557C38.0163 12.7557 38.594 12.995 39.0286 13.4295C39.9257 14.3266 39.9257 15.7863 39.0287 16.6833Z"/>
</mask>
<path d="M40.4706 11.9877C39.6509 11.1678 38.561 10.7165 37.4018 10.7165C36.2425 10.7165 35.1526 11.168 34.3329 11.9877C32.6408 13.6799 32.6408 16.4333 34.3329 18.1254C35.1792 18.9715 36.2903 19.3944 37.4018 19.3944C38.513 19.3944 39.6246 18.9713 40.4706 18.1254C42.1627 16.4332 42.1627 13.6798 40.4706 11.9877ZM39.0287 16.6833C38.1316 17.5803 36.6718 17.5803 35.7749 16.6833C34.8778 15.7863 34.8778 14.3266 35.7749 13.4295C36.2095 12.995 36.7872 12.7557 37.4018 12.7557C38.0163 12.7557 38.594 12.995 39.0286 13.4295C39.9257 14.3266 39.9257 15.7863 39.0287 16.6833Z" fill="#623B2A"/>
<path d="M40.4706 11.9877C39.6509 11.1678 38.561 10.7165 37.4018 10.7165C36.2425 10.7165 35.1526 11.168 34.3329 11.9877C32.6408 13.6799 32.6408 16.4333 34.3329 18.1254C35.1792 18.9715 36.2903 19.3944 37.4018 19.3944C38.513 19.3944 39.6246 18.9713 40.4706 18.1254C42.1627 16.4332 42.1627 13.6798 40.4706 11.9877ZM39.0287 16.6833C38.1316 17.5803 36.6718 17.5803 35.7749 16.6833C34.8778 15.7863 34.8778 14.3266 35.7749 13.4295C36.2095 12.995 36.7872 12.7557 37.4018 12.7557C38.0163 12.7557 38.594 12.995 39.0286 13.4295C39.9257 14.3266 39.9257 15.7863 39.0287 16.6833Z" stroke="#623B2A" stroke-width="0.4" mask="url(#path-3-outside-3)"/>
<mask id="path-4-outside-4" maskUnits="userSpaceOnUse" x="2.28552" y="37.6564" width="12" height="12" fill="black">
<rect fill="white" x="2.28552" y="37.6564" width="12" height="12"/>
<path d="M12.7368 41.788C12.2327 41.5369 11.6207 41.7422 11.3696 42.2463L10.1551 44.6853C9.62699 45.7457 8.56485 46.4548 7.38286 46.5357L5.97033 46.6323C5.73155 46.6483 5.57454 46.5294 5.50192 46.4567C5.4293 46.3841 5.31007 46.2268 5.32632 45.9882L5.42301 44.5758C5.50395 43.3939 6.21306 42.3317 7.27338 41.8035L9.7123 40.5891C10.2165 40.338 10.4216 39.7259 10.1706 39.2218C9.91959 38.7178 9.30747 38.5125 8.80332 38.7636L6.36439 39.9781C4.65895 40.8273 3.5186 42.5356 3.3884 44.4365L3.29171 45.8489C3.23951 46.6113 3.51942 47.3584 4.05973 47.8987C4.55718 48.3962 5.23004 48.673 5.92879 48.673C5.98881 48.673 6.04924 48.671 6.10957 48.6669L7.5221 48.5702C9.42295 48.4401 11.1312 47.2998 11.9805 45.5942L13.195 43.1552C13.4461 42.6511 13.2409 42.0391 12.7368 41.788Z"/>
</mask>
<path d="M12.7368 41.788C12.2327 41.5369 11.6207 41.7422 11.3696 42.2463L10.1551 44.6853C9.62699 45.7457 8.56485 46.4548 7.38286 46.5357L5.97033 46.6323C5.73155 46.6483 5.57454 46.5294 5.50192 46.4567C5.4293 46.3841 5.31007 46.2268 5.32632 45.9882L5.42301 44.5758C5.50395 43.3939 6.21306 42.3317 7.27338 41.8035L9.7123 40.5891C10.2165 40.338 10.4216 39.7259 10.1706 39.2218C9.91959 38.7178 9.30747 38.5125 8.80332 38.7636L6.36439 39.9781C4.65895 40.8273 3.5186 42.5356 3.3884 44.4365L3.29171 45.8489C3.23951 46.6113 3.51942 47.3584 4.05973 47.8987C4.55718 48.3962 5.23004 48.673 5.92879 48.673C5.98881 48.673 6.04924 48.671 6.10957 48.6669L7.5221 48.5702C9.42295 48.4401 11.1312 47.2998 11.9805 45.5942L13.195 43.1552C13.4461 42.6511 13.2409 42.0391 12.7368 41.788Z" fill="#623B2A"/>
<path d="M12.7368 41.788C12.2327 41.5369 11.6207 41.7422 11.3696 42.2463L10.1551 44.6853C9.62699 45.7457 8.56485 46.4548 7.38286 46.5357L5.97033 46.6323C5.73155 46.6483 5.57454 46.5294 5.50192 46.4567C5.4293 46.3841 5.31007 46.2268 5.32632 45.9882L5.42301 44.5758C5.50395 43.3939 6.21306 42.3317 7.27338 41.8035L9.7123 40.5891C10.2165 40.338 10.4216 39.7259 10.1706 39.2218C9.91959 38.7178 9.30747 38.5125 8.80332 38.7636L6.36439 39.9781C4.65895 40.8273 3.5186 42.5356 3.3884 44.4365L3.29171 45.8489C3.23951 46.6113 3.51942 47.3584 4.05973 47.8987C4.55718 48.3962 5.23004 48.673 5.92879 48.673C5.98881 48.673 6.04924 48.671 6.10957 48.6669L7.5221 48.5702C9.42295 48.4401 11.1312 47.2998 11.9805 45.5942L13.195 43.1552C13.4461 42.6511 13.2409 42.0391 12.7368 41.788Z" stroke="#623B2A" stroke-width="0.4" mask="url(#path-4-outside-4)"/>
<mask id="path-5-outside-5" maskUnits="userSpaceOnUse" x="-0.99823" y="-0.84845" width="54" height="53" fill="black">
<rect fill="white" x="-0.99823" y="-0.84845" width="54" height="53"/>
<path d="M51.2962 0.830762C50.8178 0.359409 50.1586 0.112916 49.4891 0.156487L48.5397 0.217018C40.0268 0.76048 32.0599 4.86961 26.6819 11.4909L24.4471 14.2421L18.5988 14.0704C18.5889 14.0701 18.5788 14.07 18.569 14.07C13.9308 14.07 9.57021 15.8762 6.29044 19.1558L0.300477 25.1459C0.0155933 25.4308 -0.0748991 25.8568 0.0697262 26.2328C0.214352 26.6089 0.566774 26.8646 0.969166 26.8851L13.6487 27.5366L13.1317 28.1731C12.8712 28.4939 12.83 28.9402 13.0275 29.3032C13.2262 29.6684 13.4344 30.0278 13.6515 30.3814L10.6446 33.9511C10.3876 34.2563 10.3322 34.6834 10.5028 35.0442C11.1596 36.432 12.0313 37.679 13.094 38.7505C14.1826 39.8482 15.4555 40.7458 16.8771 41.4187C17.0161 41.4845 17.1651 41.5167 17.3131 41.5167C17.5428 41.5167 17.7705 41.4391 17.9557 41.2889C18.6035 40.7634 19.3503 40.1401 20.0726 39.5374C20.5874 39.1078 21.1141 38.6683 21.6064 38.2631C21.9002 38.4399 22.1977 38.6114 22.4996 38.7756C22.6524 38.8587 22.8199 38.8996 22.9867 38.8996C23.2088 38.8996 23.4293 38.8273 23.612 38.6855L24.307 38.1462L24.9612 50.8791C24.9819 51.2815 25.2376 51.6339 25.6136 51.7786C25.7326 51.8243 25.8563 51.8466 25.9792 51.8466C26.2448 51.8466 26.5056 51.7427 26.7004 51.5478L32.6904 45.5578C35.9702 42.278 37.7763 37.9175 37.7763 33.2792V27.6938L40.1394 25.8601C47.2212 20.3645 51.5343 12.0776 51.9726 3.12405L51.9969 2.62781C52.03 1.95709 51.7745 1.30222 51.2962 0.830762ZM3.36401 24.9663L7.73243 20.5979C10.6234 17.7069 14.4663 16.1132 18.5542 16.1092L22.8285 16.2348L15.2408 25.5765L3.36401 24.9663ZM18.7661 37.9716C18.2338 38.4157 17.6881 38.8711 17.1817 39.2876C16.2022 38.7571 15.3162 38.0952 14.5419 37.3144C13.792 36.5583 13.1536 35.6973 12.6389 34.7489L14.8404 32.1354C15.506 33.0285 16.2346 33.8744 17.0218 34.6669C17.0224 34.6675 17.023 34.668 17.0236 34.6686C17.0238 34.6688 17.024 34.6691 17.0242 34.6693C17.0245 34.6696 17.0248 34.6698 17.0251 34.6701C17.8978 35.5484 18.8366 36.3544 19.8324 37.0834C19.4808 37.3753 19.1206 37.6759 18.7661 37.9716ZM35.7373 33.2792C35.7373 37.3727 34.1433 41.2211 31.2487 44.1158L26.8802 48.4842L26.2707 36.6225L35.7372 29.2764V33.2792H35.7373ZM49.9361 3.02441C49.5269 11.3827 45.5006 19.1187 38.8894 24.249L22.8974 36.6588C21.5712 35.8839 20.335 34.9689 19.2037 33.9323L24.5953 28.5407C24.9934 28.1426 24.9934 27.4969 24.5953 27.0986C24.1971 26.7004 23.5514 26.7004 23.1532 27.0986L17.7667 32.4851C16.7764 31.3887 15.8993 30.1958 15.1525 28.9199L28.2649 12.7766C33.2853 6.59556 40.7225 2.75954 48.6695 2.25233L49.6189 2.1918C49.7433 2.18408 49.8266 2.24583 49.865 2.28362C49.9033 2.3213 49.9666 2.40326 49.9605 2.52828L49.9361 3.02441Z"/>
</mask>
<path d="M51.2962 0.830762C50.8178 0.359409 50.1586 0.112916 49.4891 0.156487L48.5397 0.217018C40.0268 0.76048 32.0599 4.86961 26.6819 11.4909L24.4471 14.2421L18.5988 14.0704C18.5889 14.0701 18.5788 14.07 18.569 14.07C13.9308 14.07 9.57021 15.8762 6.29044 19.1558L0.300477 25.1459C0.0155933 25.4308 -0.0748991 25.8568 0.0697262 26.2328C0.214352 26.6089 0.566774 26.8646 0.969166 26.8851L13.6487 27.5366L13.1317 28.1731C12.8712 28.4939 12.83 28.9402 13.0275 29.3032C13.2262 29.6684 13.4344 30.0278 13.6515 30.3814L10.6446 33.9511C10.3876 34.2563 10.3322 34.6834 10.5028 35.0442C11.1596 36.432 12.0313 37.679 13.094 38.7505C14.1826 39.8482 15.4555 40.7458 16.8771 41.4187C17.0161 41.4845 17.1651 41.5167 17.3131 41.5167C17.5428 41.5167 17.7705 41.4391 17.9557 41.2889C18.6035 40.7634 19.3503 40.1401 20.0726 39.5374C20.5874 39.1078 21.1141 38.6683 21.6064 38.2631C21.9002 38.4399 22.1977 38.6114 22.4996 38.7756C22.6524 38.8587 22.8199 38.8996 22.9867 38.8996C23.2088 38.8996 23.4293 38.8273 23.612 38.6855L24.307 38.1462L24.9612 50.8791C24.9819 51.2815 25.2376 51.6339 25.6136 51.7786C25.7326 51.8243 25.8563 51.8466 25.9792 51.8466C26.2448 51.8466 26.5056 51.7427 26.7004 51.5478L32.6904 45.5578C35.9702 42.278 37.7763 37.9175 37.7763 33.2792V27.6938L40.1394 25.8601C47.2212 20.3645 51.5343 12.0776 51.9726 3.12405L51.9969 2.62781C52.03 1.95709 51.7745 1.30222 51.2962 0.830762ZM3.36401 24.9663L7.73243 20.5979C10.6234 17.7069 14.4663 16.1132 18.5542 16.1092L22.8285 16.2348L15.2408 25.5765L3.36401 24.9663ZM18.7661 37.9716C18.2338 38.4157 17.6881 38.8711 17.1817 39.2876C16.2022 38.7571 15.3162 38.0952 14.5419 37.3144C13.792 36.5583 13.1536 35.6973 12.6389 34.7489L14.8404 32.1354C15.506 33.0285 16.2346 33.8744 17.0218 34.6669C17.0224 34.6675 17.023 34.668 17.0236 34.6686C17.0238 34.6688 17.024 34.6691 17.0242 34.6693C17.0245 34.6696 17.0248 34.6698 17.0251 34.6701C17.8978 35.5484 18.8366 36.3544 19.8324 37.0834C19.4808 37.3753 19.1206 37.6759 18.7661 37.9716ZM35.7373 33.2792C35.7373 37.3727 34.1433 41.2211 31.2487 44.1158L26.8802 48.4842L26.2707 36.6225L35.7372 29.2764V33.2792H35.7373ZM49.9361 3.02441C49.5269 11.3827 45.5006 19.1187 38.8894 24.249L22.8974 36.6588C21.5712 35.8839 20.335 34.9689 19.2037 33.9323L24.5953 28.5407C24.9934 28.1426 24.9934 27.4969 24.5953 27.0986C24.1971 26.7004 23.5514 26.7004 23.1532 27.0986L17.7667 32.4851C16.7764 31.3887 15.8993 30.1958 15.1525 28.9199L28.2649 12.7766C33.2853 6.59556 40.7225 2.75954 48.6695 2.25233L49.6189 2.1918C49.7433 2.18408 49.8266 2.24583 49.865 2.28362C49.9033 2.3213 49.9666 2.40326 49.9605 2.52828L49.9361 3.02441Z" fill="#623B2A"/>
<path d="M51.2962 0.830762C50.8178 0.359409 50.1586 0.112916 49.4891 0.156487L48.5397 0.217018C40.0268 0.76048 32.0599 4.86961 26.6819 11.4909L24.4471 14.2421L18.5988 14.0704C18.5889 14.0701 18.5788 14.07 18.569 14.07C13.9308 14.07 9.57021 15.8762 6.29044 19.1558L0.300477 25.1459C0.0155933 25.4308 -0.0748991 25.8568 0.0697262 26.2328C0.214352 26.6089 0.566774 26.8646 0.969166 26.8851L13.6487 27.5366L13.1317 28.1731C12.8712 28.4939 12.83 28.9402 13.0275 29.3032C13.2262 29.6684 13.4344 30.0278 13.6515 30.3814L10.6446 33.9511C10.3876 34.2563 10.3322 34.6834 10.5028 35.0442C11.1596 36.432 12.0313 37.679 13.094 38.7505C14.1826 39.8482 15.4555 40.7458 16.8771 41.4187C17.0161 41.4845 17.1651 41.5167 17.3131 41.5167C17.5428 41.5167 17.7705 41.4391 17.9557 41.2889C18.6035 40.7634 19.3503 40.1401 20.0726 39.5374C20.5874 39.1078 21.1141 38.6683 21.6064 38.2631C21.9002 38.4399 22.1977 38.6114 22.4996 38.7756C22.6524 38.8587 22.8199 38.8996 22.9867 38.8996C23.2088 38.8996 23.4293 38.8273 23.612 38.6855L24.307 38.1462L24.9612 50.8791C24.9819 51.2815 25.2376 51.6339 25.6136 51.7786C25.7326 51.8243 25.8563 51.8466 25.9792 51.8466C26.2448 51.8466 26.5056 51.7427 26.7004 51.5478L32.6904 45.5578C35.9702 42.278 37.7763 37.9175 37.7763 33.2792V27.6938L40.1394 25.8601C47.2212 20.3645 51.5343 12.0776 51.9726 3.12405L51.9969 2.62781C52.03 1.95709 51.7745 1.30222 51.2962 0.830762ZM3.36401 24.9663L7.73243 20.5979C10.6234 17.7069 14.4663 16.1132 18.5542 16.1092L22.8285 16.2348L15.2408 25.5765L3.36401 24.9663ZM18.7661 37.9716C18.2338 38.4157 17.6881 38.8711 17.1817 39.2876C16.2022 38.7571 15.3162 38.0952 14.5419 37.3144C13.792 36.5583 13.1536 35.6973 12.6389 34.7489L14.8404 32.1354C15.506 33.0285 16.2346 33.8744 17.0218 34.6669C17.0224 34.6675 17.023 34.668 17.0236 34.6686C17.0238 34.6688 17.024 34.6691 17.0242 34.6693C17.0245 34.6696 17.0248 34.6698 17.0251 34.6701C17.8978 35.5484 18.8366 36.3544 19.8324 37.0834C19.4808 37.3753 19.1206 37.6759 18.7661 37.9716ZM35.7373 33.2792C35.7373 37.3727 34.1433 41.2211 31.2487 44.1158L26.8802 48.4842L26.2707 36.6225L35.7372 29.2764V33.2792H35.7373ZM49.9361 3.02441C49.5269 11.3827 45.5006 19.1187 38.8894 24.249L22.8974 36.6588C21.5712 35.8839 20.335 34.9689 19.2037 33.9323L24.5953 28.5407C24.9934 28.1426 24.9934 27.4969 24.5953 27.0986C24.1971 26.7004 23.5514 26.7004 23.1532 27.0986L17.7667 32.4851C16.7764 31.3887 15.8993 30.1958 15.1525 28.9199L28.2649 12.7766C33.2853 6.59556 40.7225 2.75954 48.6695 2.25233L49.6189 2.1918C49.7433 2.18408 49.8266 2.24583 49.865 2.28362C49.9033 2.3213 49.9666 2.40326 49.9605 2.52828L49.9361 3.02441Z" stroke="#623B2A" stroke-width="0.4" mask="url(#path-5-outside-5)"/>
</g>
<defs>
<clipPath id="clip0">
<rect width="52" height="52" fill="white"/>
</clipPath>
</defs>
</svg>
