<svg width="55" height="55" viewBox="0 0 55 55" fill="none" xmlns="http://www.w3.org/2000/svg">
<g clip-path="url(#clip0)">
<mask id="path-1-outside-1" maskUnits="userSpaceOnUse" x="21" y="-1" width="13" height="13" fill="black">
<rect fill="white" x="21" y="-1" width="13" height="13"/>
<path d="M27.5 0C24.4624 0 22 2.4624 22 5.5C22 8.5376 24.4624 11 27.5 11C30.5363 10.997 32.997 8.53634 33 5.5C33 2.4624 30.5376 0 27.5 0ZM27.5 9.16667C25.475 9.16667 23.8333 7.52503 23.8333 5.5C23.8333 3.47497 25.475 1.83333 27.5 1.83333C29.525 1.83333 31.1667 3.47497 31.1667 5.5C31.1667 7.52503 29.525 9.16667 27.5 9.16667Z"/>
</mask>
<path d="M27.5 0C24.4624 0 22 2.4624 22 5.5C22 8.5376 24.4624 11 27.5 11C30.5363 10.997 32.997 8.53634 33 5.5C33 2.4624 30.5376 0 27.5 0ZM27.5 9.16667C25.475 9.16667 23.8333 7.52503 23.8333 5.5C23.8333 3.47497 25.475 1.83333 27.5 1.83333C29.525 1.83333 31.1667 3.47497 31.1667 5.5C31.1667 7.52503 29.525 9.16667 27.5 9.16667Z" fill="white"/>
<path d="M27.5 0C24.4624 0 22 2.4624 22 5.5C22 8.5376 24.4624 11 27.5 11C30.5363 10.997 32.997 8.53634 33 5.5C33 2.4624 30.5376 0 27.5 0ZM27.5 9.16667C25.475 9.16667 23.8333 7.52503 23.8333 5.5C23.8333 3.47497 25.475 1.83333 27.5 1.83333C29.525 1.83333 31.1667 3.47497 31.1667 5.5C31.1667 7.52503 29.525 9.16667 27.5 9.16667Z" stroke="white" stroke-width="0.4" mask="url(#path-1-outside-1)"/>
<mask id="path-2-outside-2" maskUnits="userSpaceOnUse" x="18.25" y="10.9166" width="18" height="15" fill="black">
<rect fill="white" x="18.25" y="10.9166" width="18" height="15"/>
<path d="M31.1667 11.9166H30.9503L30.7569 12.0129C28.7058 13.0342 26.2942 13.0342 24.2431 12.0129L24.0497 11.9166H23.8333C21.3033 11.9196 19.253 13.97 19.25 16.5V22C19.25 23.5188 20.4812 24.75 22 24.75H33C34.5188 24.75 35.75 23.5188 35.75 22V16.5C35.747 13.97 33.6967 11.9196 31.1667 11.9166ZM33.9167 22C33.9167 22.5062 33.5062 22.9166 33 22.9166H22C21.4938 22.9166 21.0833 22.5062 21.0833 22V16.5C21.0836 15.0571 22.1988 13.8597 23.6381 13.7573C26.0873 14.894 28.9128 14.894 31.3619 13.7573C32.8011 13.8597 33.9164 15.0571 33.9167 16.5V22Z"/>
</mask>
<path d="M31.1667 11.9166H30.9503L30.7569 12.0129C28.7058 13.0342 26.2942 13.0342 24.2431 12.0129L24.0497 11.9166H23.8333C21.3033 11.9196 19.253 13.97 19.25 16.5V22C19.25 23.5188 20.4812 24.75 22 24.75H33C34.5188 24.75 35.75 23.5188 35.75 22V16.5C35.747 13.97 33.6967 11.9196 31.1667 11.9166ZM33.9167 22C33.9167 22.5062 33.5062 22.9166 33 22.9166H22C21.4938 22.9166 21.0833 22.5062 21.0833 22V16.5C21.0836 15.0571 22.1988 13.8597 23.6381 13.7573C26.0873 14.894 28.9128 14.894 31.3619 13.7573C32.8011 13.8597 33.9164 15.0571 33.9167 16.5V22Z" fill="white"/>
<path d="M31.1667 11.9166H30.9503L30.7569 12.0129C28.7058 13.0342 26.2942 13.0342 24.2431 12.0129L24.0497 11.9166H23.8333C21.3033 11.9196 19.253 13.97 19.25 16.5V22C19.25 23.5188 20.4812 24.75 22 24.75H33C34.5188 24.75 35.75 23.5188 35.75 22V16.5C35.747 13.97 33.6967 11.9196 31.1667 11.9166ZM33.9167 22C33.9167 22.5062 33.5062 22.9166 33 22.9166H22C21.4938 22.9166 21.0833 22.5062 21.0833 22V16.5C21.0836 15.0571 22.1988 13.8597 23.6381 13.7573C26.0873 14.894 28.9128 14.894 31.3619 13.7573C32.8011 13.8597 33.9164 15.0571 33.9167 16.5V22Z" stroke="white" stroke-width="0.4" mask="url(#path-2-outside-2)"/>
<mask id="path-3-outside-3" maskUnits="userSpaceOnUse" x="40.25" y="29.25" width="13" height="13" fill="black">
<rect fill="white" x="40.25" y="29.25" width="13" height="13"/>
<path d="M46.75 30.25C43.7124 30.25 41.25 32.7124 41.25 35.75C41.25 38.7876 43.7124 41.25 46.75 41.25C49.7876 41.25 52.25 38.7876 52.25 35.75C52.247 32.7137 49.7863 30.253 46.75 30.25ZM46.75 39.4167C44.725 39.4167 43.0833 37.775 43.0833 35.75C43.0833 33.725 44.725 32.0833 46.75 32.0833C48.775 32.0833 50.4167 33.725 50.4167 35.75C50.4167 37.775 48.775 39.4167 46.75 39.4167Z"/>
</mask>
<path d="M46.75 30.25C43.7124 30.25 41.25 32.7124 41.25 35.75C41.25 38.7876 43.7124 41.25 46.75 41.25C49.7876 41.25 52.25 38.7876 52.25 35.75C52.247 32.7137 49.7863 30.253 46.75 30.25ZM46.75 39.4167C44.725 39.4167 43.0833 37.775 43.0833 35.75C43.0833 33.725 44.725 32.0833 46.75 32.0833C48.775 32.0833 50.4167 33.725 50.4167 35.75C50.4167 37.775 48.775 39.4167 46.75 39.4167Z" fill="white"/>
<path d="M46.75 30.25C43.7124 30.25 41.25 32.7124 41.25 35.75C41.25 38.7876 43.7124 41.25 46.75 41.25C49.7876 41.25 52.25 38.7876 52.25 35.75C52.247 32.7137 49.7863 30.253 46.75 30.25ZM46.75 39.4167C44.725 39.4167 43.0833 37.775 43.0833 35.75C43.0833 33.725 44.725 32.0833 46.75 32.0833C48.775 32.0833 50.4167 33.725 50.4167 35.75C50.4167 37.775 48.775 39.4167 46.75 39.4167Z" stroke="white" stroke-width="0.4" mask="url(#path-3-outside-3)"/>
<mask id="path-4-outside-4" maskUnits="userSpaceOnUse" x="37.5" y="41.1666" width="18" height="15" fill="black">
<rect fill="white" x="37.5" y="41.1666" width="18" height="15"/>
<path d="M50.4167 42.1666H50.2003L50.0069 42.2583C47.9558 43.2795 45.5442 43.2795 43.4931 42.2583L43.2997 42.1666H43.0833C40.5533 42.1696 38.503 44.22 38.5 46.75V52.25C38.5 53.7688 39.7312 55 41.25 55H52.25C53.7688 55 55 53.7688 55 52.25V46.75C54.997 44.22 52.9467 42.1696 50.4167 42.1666ZM53.1667 52.25C53.1667 52.7562 52.7562 53.1666 52.25 53.1666H41.25C40.7438 53.1666 40.3333 52.7562 40.3333 52.25V46.75C40.3336 45.3071 41.4488 44.1097 42.8881 44.0073C45.3373 45.144 48.1627 45.144 50.6119 44.0073C52.0512 44.1097 53.1664 45.3071 53.1667 46.75V52.25Z"/>
</mask>
<path d="M50.4167 42.1666H50.2003L50.0069 42.2583C47.9558 43.2795 45.5442 43.2795 43.4931 42.2583L43.2997 42.1666H43.0833C40.5533 42.1696 38.503 44.22 38.5 46.75V52.25C38.5 53.7688 39.7312 55 41.25 55H52.25C53.7688 55 55 53.7688 55 52.25V46.75C54.997 44.22 52.9467 42.1696 50.4167 42.1666ZM53.1667 52.25C53.1667 52.7562 52.7562 53.1666 52.25 53.1666H41.25C40.7438 53.1666 40.3333 52.7562 40.3333 52.25V46.75C40.3336 45.3071 41.4488 44.1097 42.8881 44.0073C45.3373 45.144 48.1627 45.144 50.6119 44.0073C52.0512 44.1097 53.1664 45.3071 53.1667 46.75V52.25Z" fill="white"/>
<path d="M50.4167 42.1666H50.2003L50.0069 42.2583C47.9558 43.2795 45.5442 43.2795 43.4931 42.2583L43.2997 42.1666H43.0833C40.5533 42.1696 38.503 44.22 38.5 46.75V52.25C38.5 53.7688 39.7312 55 41.25 55H52.25C53.7688 55 55 53.7688 55 52.25V46.75C54.997 44.22 52.9467 42.1696 50.4167 42.1666ZM53.1667 52.25C53.1667 52.7562 52.7562 53.1666 52.25 53.1666H41.25C40.7438 53.1666 40.3333 52.7562 40.3333 52.25V46.75C40.3336 45.3071 41.4488 44.1097 42.8881 44.0073C45.3373 45.144 48.1627 45.144 50.6119 44.0073C52.0512 44.1097 53.1664 45.3071 53.1667 46.75V52.25Z" stroke="white" stroke-width="0.4" mask="url(#path-4-outside-4)"/>
<mask id="path-5-outside-5" maskUnits="userSpaceOnUse" x="1.75" y="29.25" width="13" height="13" fill="black">
<rect fill="white" x="1.75" y="29.25" width="13" height="13"/>
<path d="M8.25 30.25C5.2124 30.25 2.75 32.7124 2.75 35.75C2.75 38.7876 5.2124 41.25 8.25 41.25C11.2876 41.25 13.75 38.7876 13.75 35.75C13.747 32.7137 11.2863 30.253 8.25 30.25ZM8.25 39.4167C6.22497 39.4167 4.58333 37.775 4.58333 35.75C4.58333 33.725 6.22497 32.0833 8.25 32.0833C10.275 32.0833 11.9167 33.725 11.9167 35.75C11.9167 37.775 10.275 39.4167 8.25 39.4167Z"/>
</mask>
<path d="M8.25 30.25C5.2124 30.25 2.75 32.7124 2.75 35.75C2.75 38.7876 5.2124 41.25 8.25 41.25C11.2876 41.25 13.75 38.7876 13.75 35.75C13.747 32.7137 11.2863 30.253 8.25 30.25ZM8.25 39.4167C6.22497 39.4167 4.58333 37.775 4.58333 35.75C4.58333 33.725 6.22497 32.0833 8.25 32.0833C10.275 32.0833 11.9167 33.725 11.9167 35.75C11.9167 37.775 10.275 39.4167 8.25 39.4167Z" fill="white"/>
<path d="M8.25 30.25C5.2124 30.25 2.75 32.7124 2.75 35.75C2.75 38.7876 5.2124 41.25 8.25 41.25C11.2876 41.25 13.75 38.7876 13.75 35.75C13.747 32.7137 11.2863 30.253 8.25 30.25ZM8.25 39.4167C6.22497 39.4167 4.58333 37.775 4.58333 35.75C4.58333 33.725 6.22497 32.0833 8.25 32.0833C10.275 32.0833 11.9167 33.725 11.9167 35.75C11.9167 37.775 10.275 39.4167 8.25 39.4167Z" stroke="white" stroke-width="0.4" mask="url(#path-5-outside-5)"/>
<mask id="path-6-outside-6" maskUnits="userSpaceOnUse" x="-1" y="41.1666" width="18" height="15" fill="black">
<rect fill="white" x="-1" y="41.1666" width="18" height="15"/>
<path d="M11.9167 42.1666H11.7003L11.5069 42.2583C9.45576 43.2795 7.04424 43.2795 4.99308 42.2583L4.79967 42.1666H4.58333C2.05333 42.1696 0.00297917 44.22 0 46.75V52.25C0 53.7688 1.2312 55 2.75 55H13.75C15.2688 55 16.5 53.7688 16.5 52.25V46.75C16.497 44.22 14.4467 42.1696 11.9167 42.1666ZM14.6667 52.25C14.6667 52.7562 14.2562 53.1666 13.75 53.1666H2.75C2.24377 53.1666 1.83333 52.7562 1.83333 52.25V46.75C1.83356 45.3071 2.9488 44.1097 4.38808 44.0073C6.8373 45.144 9.6627 45.144 12.1119 44.0073C13.5512 44.1097 14.6664 45.3071 14.6667 46.75V52.25Z"/>
</mask>
<path d="M11.9167 42.1666H11.7003L11.5069 42.2583C9.45576 43.2795 7.04424 43.2795 4.99308 42.2583L4.79967 42.1666H4.58333C2.05333 42.1696 0.00297917 44.22 0 46.75V52.25C0 53.7688 1.2312 55 2.75 55H13.75C15.2688 55 16.5 53.7688 16.5 52.25V46.75C16.497 44.22 14.4467 42.1696 11.9167 42.1666ZM14.6667 52.25C14.6667 52.7562 14.2562 53.1666 13.75 53.1666H2.75C2.24377 53.1666 1.83333 52.7562 1.83333 52.25V46.75C1.83356 45.3071 2.9488 44.1097 4.38808 44.0073C6.8373 45.144 9.6627 45.144 12.1119 44.0073C13.5512 44.1097 14.6664 45.3071 14.6667 46.75V52.25Z" fill="white"/>
<path d="M11.9167 42.1666H11.7003L11.5069 42.2583C9.45576 43.2795 7.04424 43.2795 4.99308 42.2583L4.79967 42.1666H4.58333C2.05333 42.1696 0.00297917 44.22 0 46.75V52.25C0 53.7688 1.2312 55 2.75 55H13.75C15.2688 55 16.5 53.7688 16.5 52.25V46.75C16.497 44.22 14.4467 42.1696 11.9167 42.1666ZM14.6667 52.25C14.6667 52.7562 14.2562 53.1666 13.75 53.1666H2.75C2.24377 53.1666 1.83333 52.7562 1.83333 52.25V46.75C1.83356 45.3071 2.9488 44.1097 4.38808 44.0073C6.8373 45.144 9.6627 45.144 12.1119 44.0073C13.5512 44.1097 14.6664 45.3071 14.6667 46.75V52.25Z" stroke="white" stroke-width="0.4" mask="url(#path-6-outside-6)"/>
<mask id="path-7-outside-7" maskUnits="userSpaceOnUse" x="17.3331" y="43.9161" width="20" height="8" fill="black">
<rect fill="white" x="17.3331" y="43.9161" width="20" height="8"/>
<path d="M36.5947 46.5524C36.5943 46.5514 36.5938 46.5504 36.5934 46.5492C36.3949 46.0835 35.8565 45.8668 35.3908 46.0652C31.2515 47.8 26.6544 48.1165 22.3164 46.9654L23.1744 46.7133C23.6605 46.571 23.9391 46.0618 23.7968 45.5757C23.6545 45.0897 23.1453 44.811 22.6592 44.9533L18.9926 46.0286C18.9788 46.0286 18.9687 46.0442 18.9559 46.0487C18.871 46.0804 18.7912 46.1246 18.7194 46.1798C18.6876 46.197 18.657 46.2163 18.6277 46.2376C18.531 46.3239 18.4544 46.4302 18.4032 46.5492C18.3534 46.6691 18.3297 46.7981 18.3335 46.9278C18.3558 47.0519 18.3864 47.1744 18.4252 47.2945C18.4307 47.3073 18.4252 47.322 18.4352 47.3348L20.2686 50.8429C20.503 51.292 21.057 51.466 21.5061 51.2316C21.9551 50.9971 22.1292 50.4431 21.8947 49.9941L21.1486 48.5677C26.0773 50.0493 31.3688 49.7614 36.1077 47.7537C36.5738 47.5565 36.7919 47.0187 36.5947 46.5524Z"/>
</mask>
<path d="M36.5947 46.5524C36.5943 46.5514 36.5938 46.5504 36.5934 46.5492C36.3949 46.0835 35.8565 45.8668 35.3908 46.0652C31.2515 47.8 26.6544 48.1165 22.3164 46.9654L23.1744 46.7133C23.6605 46.571 23.9391 46.0618 23.7968 45.5757C23.6545 45.0897 23.1453 44.811 22.6592 44.9533L18.9926 46.0286C18.9788 46.0286 18.9687 46.0442 18.9559 46.0487C18.871 46.0804 18.7912 46.1246 18.7194 46.1798C18.6876 46.197 18.657 46.2163 18.6277 46.2376C18.531 46.3239 18.4544 46.4302 18.4032 46.5492C18.3534 46.6691 18.3297 46.7981 18.3335 46.9278C18.3558 47.0519 18.3864 47.1744 18.4252 47.2945C18.4307 47.3073 18.4252 47.322 18.4352 47.3348L20.2686 50.8429C20.503 51.292 21.057 51.466 21.5061 51.2316C21.9551 50.9971 22.1292 50.4431 21.8947 49.9941L21.1486 48.5677C26.0773 50.0493 31.3688 49.7614 36.1077 47.7537C36.5738 47.5565 36.7919 47.0187 36.5947 46.5524Z" fill="white"/>
<path d="M36.5947 46.5524C36.5943 46.5514 36.5938 46.5504 36.5934 46.5492C36.3949 46.0835 35.8565 45.8668 35.3908 46.0652C31.2515 47.8 26.6544 48.1165 22.3164 46.9654L23.1744 46.7133C23.6605 46.571 23.9391 46.0618 23.7968 45.5757C23.6545 45.0897 23.1453 44.811 22.6592 44.9533L18.9926 46.0286C18.9788 46.0286 18.9687 46.0442 18.9559 46.0487C18.871 46.0804 18.7912 46.1246 18.7194 46.1798C18.6876 46.197 18.657 46.2163 18.6277 46.2376C18.531 46.3239 18.4544 46.4302 18.4032 46.5492C18.3534 46.6691 18.3297 46.7981 18.3335 46.9278C18.3558 47.0519 18.3864 47.1744 18.4252 47.2945C18.4307 47.3073 18.4252 47.322 18.4352 47.3348L20.2686 50.8429C20.503 51.292 21.057 51.466 21.5061 51.2316C21.9551 50.9971 22.1292 50.4431 21.8947 49.9941L21.1486 48.5677C26.0773 50.0493 31.3688 49.7614 36.1077 47.7537C36.5738 47.5565 36.7919 47.0187 36.5947 46.5524Z" stroke="white" stroke-width="0.4" mask="url(#path-7-outside-7)"/>
<mask id="path-8-outside-8" maskUnits="userSpaceOnUse" x="33.833" y="6.17542" width="19" height="23" fill="black">
<rect fill="white" x="33.833" y="6.17542" width="19" height="23"/>
<path d="M51.9814 24.1019C51.6234 23.7441 51.0432 23.7441 50.6852 24.1019L49.3881 25.399C48.6291 17.3702 43.5317 10.4028 36.1093 7.24902C35.6435 7.05056 35.1051 7.26724 34.9066 7.73302C34.7082 8.1988 34.9249 8.73723 35.3906 8.93569C42.0491 11.7655 46.6776 17.9498 47.5154 25.1359L46.4814 24.1019C46.1172 23.7502 45.537 23.7602 45.1852 24.1244C44.8422 24.4796 44.8422 25.0428 45.1852 25.3981L47.9352 28.1481C48.2927 28.5065 48.8732 28.5073 49.2316 28.1497C49.2322 28.1491 49.2328 28.1486 49.2332 28.1481L51.9832 25.3981C52.3406 25.0397 52.3398 24.4594 51.9814 24.1019Z"/>
</mask>
<path d="M51.9814 24.1019C51.6234 23.7441 51.0432 23.7441 50.6852 24.1019L49.3881 25.399C48.6291 17.3702 43.5317 10.4028 36.1093 7.24902C35.6435 7.05056 35.1051 7.26724 34.9066 7.73302C34.7082 8.1988 34.9249 8.73723 35.3906 8.93569C42.0491 11.7655 46.6776 17.9498 47.5154 25.1359L46.4814 24.1019C46.1172 23.7502 45.537 23.7602 45.1852 24.1244C44.8422 24.4796 44.8422 25.0428 45.1852 25.3981L47.9352 28.1481C48.2927 28.5065 48.8732 28.5073 49.2316 28.1497C49.2322 28.1491 49.2328 28.1486 49.2332 28.1481L51.9832 25.3981C52.3406 25.0397 52.3398 24.4594 51.9814 24.1019Z" fill="white"/>
<path d="M51.9814 24.1019C51.6234 23.7441 51.0432 23.7441 50.6852 24.1019L49.3881 25.399C48.6291 17.3702 43.5317 10.4028 36.1093 7.24902C35.6435 7.05056 35.1051 7.26724 34.9066 7.73302C34.7082 8.1988 34.9249 8.73723 35.3906 8.93569C42.0491 11.7655 46.6776 17.9498 47.5154 25.1359L46.4814 24.1019C46.1172 23.7502 45.537 23.7602 45.1852 24.1244C44.8422 24.4796 44.8422 25.0428 45.1852 25.3981L47.9352 28.1481C48.2927 28.5065 48.8732 28.5073 49.2316 28.1497C49.2322 28.1491 49.2328 28.1486 49.2332 28.1481L51.9832 25.3981C52.3406 25.0397 52.3398 24.4594 51.9814 24.1019Z" stroke="white" stroke-width="0.4" mask="url(#path-8-outside-8)"/>
<mask id="path-9-outside-9" maskUnits="userSpaceOnUse" x="4.49997" y="4.51538" width="16" height="25" fill="black">
<rect fill="white" x="4.49997" y="4.51538" width="16" height="25"/>
<path d="M20.1401 7.93739C20.1371 7.88388 20.1292 7.83083 20.1162 7.77881C20.1162 7.77056 20.1061 7.76506 20.1025 7.75589C20.0988 7.74672 20.1025 7.74031 20.1025 7.73297C20.0775 7.6884 20.0486 7.646 20.0163 7.60647C19.9866 7.55273 19.9516 7.50209 19.9118 7.45522C19.8576 7.40721 19.7976 7.36631 19.7331 7.33331C19.7009 7.30592 19.6665 7.28106 19.6304 7.25906L15.9637 5.58431C15.4954 5.39203 14.9599 5.61582 14.7676 6.08412C14.5857 6.52698 14.7754 7.03527 15.2029 7.25081L17.1013 8.11889C9.9544 11.9438 5.49482 19.3939 5.49997 27.5C5.49997 28.0062 5.91041 28.4166 6.41664 28.4166C6.92287 28.4166 7.33331 28.0062 7.33331 27.5C7.32872 20.3622 11.1032 13.7555 17.2544 10.1346L16.5916 11.5197C16.3731 11.9754 16.5646 12.522 17.0197 12.7416C17.1434 12.802 17.279 12.8334 17.4166 12.8333C17.7686 12.8328 18.0892 12.6308 18.2416 12.3136L20.075 8.48831C20.075 8.47914 20.075 8.46906 20.0823 8.45989C20.1061 8.39721 20.1228 8.33201 20.1318 8.26556C20.1475 8.21617 20.1592 8.16564 20.1666 8.11431C20.1635 8.05461 20.1547 7.99537 20.1401 7.93739Z"/>
</mask>
<path d="M20.1401 7.93739C20.1371 7.88388 20.1292 7.83083 20.1162 7.77881C20.1162 7.77056 20.1061 7.76506 20.1025 7.75589C20.0988 7.74672 20.1025 7.74031 20.1025 7.73297C20.0775 7.6884 20.0486 7.646 20.0163 7.60647C19.9866 7.55273 19.9516 7.50209 19.9118 7.45522C19.8576 7.40721 19.7976 7.36631 19.7331 7.33331C19.7009 7.30592 19.6665 7.28106 19.6304 7.25906L15.9637 5.58431C15.4954 5.39203 14.9599 5.61582 14.7676 6.08412C14.5857 6.52698 14.7754 7.03527 15.2029 7.25081L17.1013 8.11889C9.9544 11.9438 5.49482 19.3939 5.49997 27.5C5.49997 28.0062 5.91041 28.4166 6.41664 28.4166C6.92287 28.4166 7.33331 28.0062 7.33331 27.5C7.32872 20.3622 11.1032 13.7555 17.2544 10.1346L16.5916 11.5197C16.3731 11.9754 16.5646 12.522 17.0197 12.7416C17.1434 12.802 17.279 12.8334 17.4166 12.8333C17.7686 12.8328 18.0892 12.6308 18.2416 12.3136L20.075 8.48831C20.075 8.47914 20.075 8.46906 20.0823 8.45989C20.1061 8.39721 20.1228 8.33201 20.1318 8.26556C20.1475 8.21617 20.1592 8.16564 20.1666 8.11431C20.1635 8.05461 20.1547 7.99537 20.1401 7.93739Z" fill="white"/>
<path d="M20.1401 7.93739C20.1371 7.88388 20.1292 7.83083 20.1162 7.77881C20.1162 7.77056 20.1061 7.76506 20.1025 7.75589C20.0988 7.74672 20.1025 7.74031 20.1025 7.73297C20.0775 7.6884 20.0486 7.646 20.0163 7.60647C19.9866 7.55273 19.9516 7.50209 19.9118 7.45522C19.8576 7.40721 19.7976 7.36631 19.7331 7.33331C19.7009 7.30592 19.6665 7.28106 19.6304 7.25906L15.9637 5.58431C15.4954 5.39203 14.9599 5.61582 14.7676 6.08412C14.5857 6.52698 14.7754 7.03527 15.2029 7.25081L17.1013 8.11889C9.9544 11.9438 5.49482 19.3939 5.49997 27.5C5.49997 28.0062 5.91041 28.4166 6.41664 28.4166C6.92287 28.4166 7.33331 28.0062 7.33331 27.5C7.32872 20.3622 11.1032 13.7555 17.2544 10.1346L16.5916 11.5197C16.3731 11.9754 16.5646 12.522 17.0197 12.7416C17.1434 12.802 17.279 12.8334 17.4166 12.8333C17.7686 12.8328 18.0892 12.6308 18.2416 12.3136L20.075 8.48831C20.075 8.47914 20.075 8.46906 20.0823 8.45989C20.1061 8.39721 20.1228 8.33201 20.1318 8.26556C20.1475 8.21617 20.1592 8.16564 20.1666 8.11431C20.1635 8.05461 20.1547 7.99537 20.1401 7.93739Z" stroke="white" stroke-width="0.4" mask="url(#path-9-outside-9)"/>
</g>
<defs>
<clipPath id="clip0">
<rect width="55" height="55" fill="white"/>
</clipPath>
</defs>
</svg>
