<svg width="53" height="53" viewBox="0 0 53 53" fill="none" xmlns="http://www.w3.org/2000/svg">
<path d="M40.223 21.355V21.7173L40.4792 21.461L45.1506 16.7856C46.9088 15.0276 49.7691 15.0275 51.5267 16.7852L51.6328 16.6792L51.5267 16.7852C53.2889 18.5473 53.2885 21.399 51.5266 23.1608L51.5265 23.1609L40.2669 34.43L40.223 34.4739V34.536V48.3418C40.223 50.8275 38.2005 52.85 35.7148 52.85H4.66016C2.17447 52.85 0.151953 50.8275 0.151953 48.3418V4.6582C0.151953 2.17251 2.17447 0.15 4.66016 0.15H31.3231C32.5276 0.15 33.6592 0.618656 34.5109 1.4704L34.617 1.36434L34.5109 1.4704L38.9025 5.86226L39.0086 5.75619L38.9025 5.86227C39.7543 6.71391 40.223 7.84549 40.223 9.04996V21.355ZM31.0567 2.95547H30.9067V3.10547V9.31641V9.46641H31.0567H37.2677H37.4177V9.31641C37.4177 9.29513 37.4179 9.27267 37.4181 9.2491C37.4208 8.91275 37.4255 8.35268 36.9189 7.84602L36.814 7.9509L36.9189 7.84601L32.5271 3.45415L32.4211 3.56021L32.5271 3.45414C32.0149 2.94204 31.4391 2.9503 31.1297 2.95474C31.1034 2.95512 31.079 2.95547 31.0567 2.95547ZM28.1012 3.10547V2.95547H27.9512H4.66016C3.72114 2.95547 2.95742 3.71918 2.95742 4.6582V48.3418C2.95742 49.2808 3.72114 50.0445 4.66016 50.0445H35.7148C36.654 50.0445 37.4176 49.2808 37.4176 48.3418V37.6424V37.2803L37.1615 37.5364L36.9731 37.7248L36.9731 37.7248C36.8192 37.8788 36.6314 37.9948 36.4249 38.0637L29.8371 40.2595L29.8845 40.4018L29.8371 40.2595C29.3338 40.4274 28.7779 40.2969 28.4016 39.9206L28.2956 40.0267L28.4016 39.9206C28.0259 39.545 27.8947 38.9892 28.0627 38.4852L30.2587 31.8974L30.2587 31.8974C30.3275 31.6909 30.4437 31.5031 30.5976 31.3492L32.7922 29.1544L32.7925 29.1542L32.7926 29.1541L32.7933 29.1534L32.7958 29.1509L32.8056 29.141L32.844 29.1027L32.9894 28.9571L33.5084 28.4377L35.0832 26.8616L36.6579 25.2855L37.1769 24.7662L37.3222 24.6206L37.3606 24.5823L37.3704 24.5725L37.3729 24.57L37.3735 24.5694L37.3736 24.5692L37.2676 24.4631L37.3737 24.5691L37.4176 24.5252V24.4631V12.4219V12.2719H37.2676H29.5039C28.7292 12.2719 28.1012 11.6438 28.1012 10.8691V3.10547ZM33.8914 32.235L33.7853 32.129L33.6793 32.235L32.8405 33.0737L32.8154 33.0987L32.8042 33.1323L31.7063 36.4262L31.6115 36.7108L31.8961 36.6159L35.1898 35.518L35.2234 35.5068L35.2485 35.4818L36.0873 34.643L36.1933 34.537L36.0873 34.4309L33.8914 32.235ZM38.0706 32.4466L38.1767 32.5527L38.2828 32.4466L45.7468 24.9763L45.8527 24.8702L45.7467 24.7642L43.5508 22.5683L43.4447 22.4622L43.3387 22.5684L35.8747 30.0387L35.7687 30.1447L35.8747 30.2507L38.0706 32.4466ZM47.7296 22.7795L47.8357 22.8856L47.9418 22.7795L49.5424 21.1775C49.5424 21.1775 49.5425 21.1775 49.5425 21.1775C50.2103 20.5095 50.2067 19.433 49.5431 18.769L49.543 18.769C48.8791 18.105 47.7993 18.1049 47.135 18.7689L47.1349 18.769L45.5337 20.3715L45.4277 20.4776L45.5338 20.5836L47.7296 22.7795Z" fill="white" stroke="#C39367" stroke-width="0.3"/>
<path d="M7.76556 15.6773H29.5038C30.2785 15.6773 30.9066 16.3054 30.9066 17.0801C30.9066 17.8548 30.2785 18.4828 29.5038 18.4828H7.76556C6.99088 18.4828 6.36283 17.8548 6.36283 17.0801C6.36283 16.3054 6.99088 15.6773 7.76556 15.6773Z" fill="white" stroke="#C39367" stroke-width="0.3"/>
<path d="M7.76556 21.8883H23.2929C24.0676 21.8883 24.6956 22.5163 24.6956 23.291C24.6956 24.0657 24.0676 24.6937 23.2929 24.6937H7.76556C6.99088 24.6937 6.36283 24.0657 6.36283 23.291C6.36283 22.5163 6.99088 21.8883 7.76556 21.8883Z" fill="white" stroke="#C39367" stroke-width="0.3"/>
<path d="M7.76556 28.0992H23.2929C24.0676 28.0992 24.6956 28.7273 24.6956 29.502C24.6956 30.2766 24.0676 30.9047 23.2929 30.9047H7.76556C6.99088 30.9047 6.36283 30.2766 6.36283 29.502C6.36283 28.7273 6.99088 28.0992 7.76556 28.0992Z" fill="white" stroke="#C39367" stroke-width="0.3"/>
<path d="M7.76556 34.3102H23.2929C24.0676 34.3102 24.6956 34.9382 24.6956 35.7129C24.6956 36.4876 24.0676 37.1156 23.2929 37.1156H7.76556C6.99088 37.1156 6.36283 36.4876 6.36283 35.7129C6.36283 34.9382 6.99088 34.3102 7.76556 34.3102Z" fill="white" stroke="#C39367" stroke-width="0.3"/>
<path d="M20.1874 43.8336H29.5038C30.2785 43.8336 30.9065 44.4616 30.9065 45.2363C30.9065 46.011 30.2785 46.6391 29.5038 46.6391H20.1874C19.4127 46.6391 18.7846 46.011 18.7846 45.2363C18.7846 44.4616 19.4127 43.8336 20.1874 43.8336Z" fill="white" stroke="#C39367" stroke-width="0.3"/>
</svg>
