<svg width="55" height="55" viewBox="0 0 55 55" fill="none" xmlns="http://www.w3.org/2000/svg">
<path d="M23.8552 32.8503L23.9712 32.9663L24.0764 32.8404L43.0479 10.1172C43.6343 9.45427 44.6485 9.37775 45.3097 9.92042C45.9727 10.5073 46.0487 11.5224 45.5047 12.1834C45.5046 12.1835 45.5045 12.1836 45.5044 12.1838L25.3399 36.3556C25.0277 36.7058 24.5985 36.9023 24.1675 36.9431H24.1674H24.1671H24.1669H24.1667H24.1665H24.1663H24.166H24.1658H24.1656H24.1654H24.1652H24.165H24.1648H24.1645H24.1643H24.1641H24.1639H24.1637H24.1635H24.1633H24.1631H24.1629H24.1627H24.1625H24.1623H24.1621H24.1619H24.1617H24.1615H24.1613H24.1611H24.1609H24.1607H24.1605H24.1603H24.1601H24.1599H24.1597H24.1595H24.1593H24.1591H24.1589H24.1587H24.1585H24.1584H24.1582H24.158H24.1578H24.1576H24.1574H24.1572H24.1571H24.1569H24.1567H24.1565H24.1563H24.1562H24.156H24.1558H24.1556H24.1554H24.1553H24.1551H24.1549H24.1547H24.1546H24.1544H24.1542H24.154H24.1539H24.1537H24.1535H24.1534H24.1532H24.153H24.1528H24.1527H24.1525H24.1523H24.1522H24.152H24.1518H24.1517H24.1515H24.1514H24.1512H24.151H24.1509H24.1507H24.1505H24.1504H24.1502H24.1501H24.1499H24.1497H24.1496H24.1494H24.1493H24.1491H24.149H24.1488H24.1487H24.1485H24.1483H24.1482H24.148H24.1479H24.1477H24.1476H24.1474H24.1473H24.1471H24.147H24.1468H24.1467H24.1465H24.1464H24.1462H24.1461H24.1459H24.1458H24.1456H24.1455H24.1454H24.1452H24.1451H24.1449H24.1448H24.1446H24.1445H24.1444H24.1442H24.1441H24.1439H24.1438H24.1436H24.1435H24.1434H24.1432H24.1431H24.1429H24.1428H24.1427H24.1425H24.1424H24.1423H24.1421H24.142H24.1418H24.1417H24.1416H24.1414H24.1413H24.1412H24.141H24.1409H24.1408H24.1406H24.1405H24.1404H24.1402H24.1401H24.14H24.1398H24.1397H24.1396H24.1394H24.1393H24.1392H24.139H24.1389H24.1388H24.1386H24.1385H24.1384H24.1383H24.1381H24.138H24.1379H24.1377H24.1376H24.1375H24.1373H24.1372H24.1371H24.137H24.1368H24.1367H24.1366H24.1364H24.1363H24.1362H24.1361H24.1359H24.1358H24.1357H24.1356H24.1354H24.1353H24.1352H24.1351H24.1349H24.1348H24.1347H24.1346H24.1344H24.1343H24.1342H24.134H24.1339H24.1338H24.1337H24.1335H24.1334H24.1333H24.1332H24.133H24.1329H24.1328H24.1327H24.1325H24.1324H24.1323H24.1322H24.132H24.1319H24.1318H24.1317H24.1315H24.1314H24.1313H24.1312H24.131H24.1309H24.1308H24.1307H24.1305H24.1304H24.1303H24.1302H24.13H24.1299H24.1298H24.1297H24.1295H24.1294H24.1293H24.1292H24.129H24.1289H24.1288H24.1287H24.1285H24.1284H24.1283H24.1282H24.128H24.1279H24.1278H24.1277H24.1275H24.1274H24.1273H24.1271H24.127H24.1269H24.1268H24.1266H24.1265H24.1264H24.1262H24.1261H24.126H24.1259H24.1257H24.1256H24.1255H24.1253H24.1252H24.1251H24.125H24.1248H24.1247H24.1246H24.1244H24.1243H24.1242H24.124H24.1239H24.1238H24.1236H24.1235H24.1234H24.1232H24.1231H24.123H24.1228H24.1227H24.1226H24.1224H24.1223H24.1222H24.122H24.1219H24.1218H24.1216H24.1215H24.1213H24.1212H24.1211H24.1209H24.1208H24.1206H24.1205H24.1204H24.1202H24.1201H24.12H24.1198H24.1197H24.1195H24.1194H24.1192H24.1191H24.119H24.1188H24.1187H24.1185H24.1184H24.1182H24.1181H24.1179H24.1178H24.1177H24.1175H24.1174H24.1172H24.1171H24.1169H24.1168H24.1166H24.1165H24.1163H24.1162H24.116H24.1159H24.1157H24.1156H24.1154H24.1152H24.1151H24.1149H24.1148H24.1146H24.1145H24.1143H24.1142H24.114H24.1138H24.1137H24.1135H24.1134H24.1132H24.113H24.1129H24.1127H24.1126H24.1124H24.1122H24.1121H24.1119H24.1117H24.1116H24.1114H24.1112H24.1111H24.1109H24.1107H24.1106H24.1104H24.1102H24.1101H24.1099H24.1097H24.1096H24.1094H24.1092H24.109H24.1089H24.1087H24.1085H24.1083H24.1082H24.108H24.1078H24.1076H24.1074H24.1073H24.1071H24.1069H24.1067H24.1065H24.1063H24.1062H24.106H24.1058H24.1056H24.1054H24.1052H24.105H24.1049H24.1047H24.1045H24.1043H24.1041H24.1039H24.1037H24.1035H24.1033H24.1031H24.1029H24.1027H24.1025H24.1023H24.1021H24.1019H24.1017H24.1015H24.1013H24.1011H24.1009H24.1007H24.1005H24.1003H24.1001H24.0999H24.0997H24.0995H24.0993H24.0991H24.0988H24.0986H24.0984H24.0982H24.098H24.0978H24.0976H24.0973H24.0971H24.0969H24.0967H24.0965H24.0962H24.096H24.0958H24.0956H24.0953H24.0951H24.0949H24.0947H24.0944H24.0942H24.094H24.0937H24.0935H24.0933H24.093H24.0928H24.0926H24.0923H24.0921H24.0918H24.0916H24.0914H24.0911H24.0909H24.0906H24.0904H24.0902H24.0899H24.0897H24.0894H24.0892C23.6592 36.9431 23.2712 36.7878 22.9588 36.4754L14.9007 28.4172C14.2771 27.7936 14.2771 26.7801 14.9007 26.1565C15.5242 25.5329 16.5378 25.5329 17.1614 26.1565L23.8552 32.8503Z" fill="white" stroke="#C39367" stroke-width="0.3"/>
<path d="M12.3013 12.3859L12.3009 12.3862C3.97105 20.7161 3.97105 34.3266 12.3009 42.6565C20.6308 50.9864 34.2413 50.9864 42.5712 42.6565C49.698 35.5298 50.9436 24.6231 45.5765 16.1215L45.4496 16.2016L45.5765 16.1215C45.1103 15.3834 45.342 14.4095 46.084 13.9408C46.8221 13.4747 47.796 13.7063 48.2647 14.4484C54.4094 24.1952 53.0111 36.7381 44.832 44.9172C40.0433 49.7059 33.7292 52.1214 27.4574 52.1214C21.1856 52.1214 14.8715 49.7059 10.0828 44.9172C0.50576 35.3402 0.50576 19.7026 10.0828 10.1255C18.2196 1.98874 30.72 0.548176 40.4667 6.65028C41.2085 7.119 41.4401 8.09283 40.974 8.8308C40.5053 9.57284 39.5314 9.80448 38.7933 9.33834L38.7924 9.33775C30.2912 4.05672 19.4279 5.30223 12.3013 12.3859Z" fill="white" stroke="#C39367" stroke-width="0.3"/>
</svg>
