<svg width="56" height="56" viewBox="0 0 56 56" fill="none" xmlns="http://www.w3.org/2000/svg">
<g clip-path="url(#clip0)">
<mask id="path-1-outside-1" maskUnits="userSpaceOnUse" x="12.3593" y="10.0403" width="31" height="47" fill="black">
<rect fill="white" x="12.3593" y="10.0403" width="31" height="47"/>
<path d="M28 11.0403C19.9165 11.046 13.365 17.5975 13.3593 25.681C13.4315 30.9575 15.9988 35.888 20.2801 38.9728V49.5461C20.2836 49.667 20.3082 49.7865 20.3528 49.8989V49.9819C20.3707 50.0247 20.3915 50.0664 20.415 50.1064L24.0674 55.5435C24.2607 55.8295 24.5835 56.0006 24.9286 56.0001H30.9676C31.3127 56.0006 31.6355 55.8295 31.8288 55.5435L35.4812 50.1064C35.5047 50.0664 35.5255 50.0247 35.5434 49.9819V49.8989C35.5881 49.7865 35.6126 49.667 35.6161 49.5461V38.9728C39.8975 35.888 42.4647 30.9575 42.537 25.681C42.5315 17.6378 36.0429 11.1029 28 11.0403ZM30.4695 53.956H25.5305L23.2685 50.5941H32.7211L30.4695 53.956ZM22.3657 48.5189V45.7692H33.6342L33.6446 48.5189H22.3657ZM34.1115 37.5513V37.5824C33.8185 37.7753 33.6429 38.1032 33.6446 38.454V43.7251H22.3657V38.3918C22.3674 38.0409 22.1918 37.713 21.8988 37.5202C17.9263 34.8656 15.5132 30.4272 15.4449 25.6499C15.6442 18.713 21.4293 13.2512 28.3661 13.4505C35.0228 13.6418 40.3742 18.9932 40.5655 25.6499C40.5074 30.4383 38.093 34.8905 34.1115 37.5513Z"/>
</mask>
<path d="M28 11.0403C19.9165 11.046 13.365 17.5975 13.3593 25.681C13.4315 30.9575 15.9988 35.888 20.2801 38.9728V49.5461C20.2836 49.667 20.3082 49.7865 20.3528 49.8989V49.9819C20.3707 50.0247 20.3915 50.0664 20.415 50.1064L24.0674 55.5435C24.2607 55.8295 24.5835 56.0006 24.9286 56.0001H30.9676C31.3127 56.0006 31.6355 55.8295 31.8288 55.5435L35.4812 50.1064C35.5047 50.0664 35.5255 50.0247 35.5434 49.9819V49.8989C35.5881 49.7865 35.6126 49.667 35.6161 49.5461V38.9728C39.8975 35.888 42.4647 30.9575 42.537 25.681C42.5315 17.6378 36.0429 11.1029 28 11.0403ZM30.4695 53.956H25.5305L23.2685 50.5941H32.7211L30.4695 53.956ZM22.3657 48.5189V45.7692H33.6342L33.6446 48.5189H22.3657ZM34.1115 37.5513V37.5824C33.8185 37.7753 33.6429 38.1032 33.6446 38.454V43.7251H22.3657V38.3918C22.3674 38.0409 22.1918 37.713 21.8988 37.5202C17.9263 34.8656 15.5132 30.4272 15.4449 25.6499C15.6442 18.713 21.4293 13.2512 28.3661 13.4505C35.0228 13.6418 40.3742 18.9932 40.5655 25.6499C40.5074 30.4383 38.093 34.8905 34.1115 37.5513Z" fill="white"/>
<path d="M28 11.0403C19.9165 11.046 13.365 17.5975 13.3593 25.681C13.4315 30.9575 15.9988 35.888 20.2801 38.9728V49.5461C20.2836 49.667 20.3082 49.7865 20.3528 49.8989V49.9819C20.3707 50.0247 20.3915 50.0664 20.415 50.1064L24.0674 55.5435C24.2607 55.8295 24.5835 56.0006 24.9286 56.0001H30.9676C31.3127 56.0006 31.6355 55.8295 31.8288 55.5435L35.4812 50.1064C35.5047 50.0664 35.5255 50.0247 35.5434 49.9819V49.8989C35.5881 49.7865 35.6126 49.667 35.6161 49.5461V38.9728C39.8975 35.888 42.4647 30.9575 42.537 25.681C42.5315 17.6378 36.0429 11.1029 28 11.0403ZM30.4695 53.956H25.5305L23.2685 50.5941H32.7211L30.4695 53.956ZM22.3657 48.5189V45.7692H33.6342L33.6446 48.5189H22.3657ZM34.1115 37.5513V37.5824C33.8185 37.7753 33.6429 38.1032 33.6446 38.454V43.7251H22.3657V38.3918C22.3674 38.0409 22.1918 37.713 21.8988 37.5202C17.9263 34.8656 15.5132 30.4272 15.4449 25.6499C15.6442 18.713 21.4293 13.2512 28.3661 13.4505C35.0228 13.6418 40.3742 18.9932 40.5655 25.6499C40.5074 30.4383 38.093 34.8905 34.1115 37.5513Z" stroke="white" stroke-width="0.2" mask="url(#path-1-outside-1)"/>
<mask id="path-2-outside-2" maskUnits="userSpaceOnUse" x="26.3774" y="14.7406" width="13" height="13" fill="black">
<rect fill="white" x="26.3774" y="14.7406" width="13" height="13"/>
<path d="M28.4151 15.7406C27.842 15.7406 27.3774 16.2052 27.3774 16.7782C27.3774 17.3512 27.842 17.8158 28.4151 17.8158C32.7278 17.8215 36.2226 21.3163 36.2283 25.6291C36.2283 26.2021 36.6929 26.6667 37.2659 26.6667C37.8389 26.6667 38.3035 26.2021 38.3035 25.6291C38.2978 20.1702 33.874 15.7463 28.4151 15.7406Z"/>
</mask>
<path d="M28.4151 15.7406C27.842 15.7406 27.3774 16.2052 27.3774 16.7782C27.3774 17.3512 27.842 17.8158 28.4151 17.8158C32.7278 17.8215 36.2226 21.3163 36.2283 25.6291C36.2283 26.2021 36.6929 26.6667 37.2659 26.6667C37.8389 26.6667 38.3035 26.2021 38.3035 25.6291C38.2978 20.1702 33.874 15.7463 28.4151 15.7406Z" fill="white"/>
<path d="M28.4151 15.7406C27.842 15.7406 27.3774 16.2052 27.3774 16.7782C27.3774 17.3512 27.842 17.8158 28.4151 17.8158C32.7278 17.8215 36.2226 21.3163 36.2283 25.6291C36.2283 26.2021 36.6929 26.6667 37.2659 26.6667C37.8389 26.6667 38.3035 26.2021 38.3035 25.6291C38.2978 20.1702 33.874 15.7463 28.4151 15.7406Z" stroke="white" stroke-width="0.2" mask="url(#path-2-outside-2)"/>
<mask id="path-3-outside-3" maskUnits="userSpaceOnUse" x="1.05969" y="23.5914" width="11" height="4" fill="black">
<rect fill="white" x="1.05969" y="23.5914" width="11" height="4"/>
<path d="M10.5681 24.5914H3.09731C2.52428 24.5914 2.05969 25.056 2.05969 25.629C2.05969 26.2021 2.52428 26.6667 3.09731 26.6667H10.5681C11.1411 26.6667 11.6057 26.2021 11.6057 25.629C11.6057 25.056 11.1411 24.5914 10.5681 24.5914Z"/>
</mask>
<path d="M10.5681 24.5914H3.09731C2.52428 24.5914 2.05969 25.056 2.05969 25.629C2.05969 26.2021 2.52428 26.6667 3.09731 26.6667H10.5681C11.1411 26.6667 11.6057 26.2021 11.6057 25.629C11.6057 25.056 11.1411 24.5914 10.5681 24.5914Z" fill="white"/>
<path d="M10.5681 24.5914H3.09731C2.52428 24.5914 2.05969 25.056 2.05969 25.629C2.05969 26.2021 2.52428 26.6667 3.09731 26.6667H10.5681C11.1411 26.6667 11.6057 26.2021 11.6057 25.629C11.6057 25.056 11.1411 24.5914 10.5681 24.5914Z" stroke="white" stroke-width="0.2" mask="url(#path-3-outside-3)"/>
<mask id="path-4-outside-4" maskUnits="userSpaceOnUse" x="43.3943" y="23.5914" width="11" height="4" fill="black">
<rect fill="white" x="43.3943" y="23.5914" width="11" height="4"/>
<path d="M52.9027 24.5914H45.4319C44.8589 24.5914 44.3943 25.056 44.3943 25.629C44.3943 26.2021 44.8589 26.6667 45.4319 26.6667H52.9027C53.4757 26.6667 53.9403 26.2021 53.9403 25.629C53.9403 25.056 53.4757 24.5914 52.9027 24.5914Z"/>
</mask>
<path d="M52.9027 24.5914H45.4319C44.8589 24.5914 44.3943 25.056 44.3943 25.629C44.3943 26.2021 44.8589 26.6667 45.4319 26.6667H52.9027C53.4757 26.6667 53.9403 26.2021 53.9403 25.629C53.9403 25.056 53.4757 24.5914 52.9027 24.5914Z" fill="white"/>
<path d="M52.9027 24.5914H45.4319C44.8589 24.5914 44.3943 25.056 44.3943 25.629C44.3943 26.2021 44.8589 26.6667 45.4319 26.6667H52.9027C53.4757 26.6667 53.9403 26.2021 53.9403 25.629C53.9403 25.056 53.4757 24.5914 52.9027 24.5914Z" stroke="white" stroke-width="0.2" mask="url(#path-4-outside-4)"/>
<mask id="path-5-outside-5" maskUnits="userSpaceOnUse" x="8.27148" y="35.8772" width="9" height="9" fill="black">
<rect fill="white" x="8.27148" y="35.8772" width="9" height="9"/>
<path d="M16.5127 37.2399C16.1399 36.8047 15.4849 36.7539 15.0497 37.1267C15.0091 37.1615 14.9712 37.1993 14.9364 37.2399V37.2192L9.63423 42.5422C9.19895 42.9149 9.14824 43.5699 9.521 44.0052C9.89376 44.4405 10.5488 44.4912 10.984 44.1184C11.0246 44.0837 11.0625 44.0458 11.0973 44.0052L16.3995 38.703C16.8348 38.3302 16.8855 37.6752 16.5127 37.2399Z"/>
</mask>
<path d="M16.5127 37.2399C16.1399 36.8047 15.4849 36.7539 15.0497 37.1267C15.0091 37.1615 14.9712 37.1993 14.9364 37.2399V37.2192L9.63423 42.5422C9.19895 42.9149 9.14824 43.5699 9.521 44.0052C9.89376 44.4405 10.5488 44.4912 10.984 44.1184C11.0246 44.0837 11.0625 44.0458 11.0973 44.0052L16.3995 38.703C16.8348 38.3302 16.8855 37.6752 16.5127 37.2399Z" fill="white"/>
<path d="M16.5127 37.2399C16.1399 36.8047 15.4849 36.7539 15.0497 37.1267C15.0091 37.1615 14.9712 37.1993 14.9364 37.2399V37.2192L9.63423 42.5422C9.19895 42.9149 9.14824 43.5699 9.521 44.0052C9.89376 44.4405 10.5488 44.4912 10.984 44.1184C11.0246 44.0837 11.0625 44.0458 11.0973 44.0052L16.3995 38.703C16.8348 38.3302 16.8855 37.6752 16.5127 37.2399Z" stroke="white" stroke-width="0.2" mask="url(#path-5-outside-5)"/>
<mask id="path-6-outside-6" maskUnits="userSpaceOnUse" x="38.2936" y="6.01379" width="9" height="9" fill="black">
<rect fill="white" x="38.2936" y="6.01379" width="9" height="9"/>
<path d="M46.2525 7.26331C45.8641 6.93062 45.2912 6.93062 44.9027 7.26331L39.6005 12.5655C39.1937 12.969 39.1909 13.6261 39.5944 14.033C39.7907 14.2309 40.0584 14.3415 40.3372 14.3398L40.3269 14.3295C40.6026 14.331 40.8677 14.2227 41.0636 14.0286L46.3658 8.72634C46.7385 8.29106 46.6878 7.63607 46.2525 7.26331Z"/>
</mask>
<path d="M46.2525 7.26331C45.8641 6.93062 45.2912 6.93062 44.9027 7.26331L39.6005 12.5655C39.1937 12.969 39.1909 13.6261 39.5944 14.033C39.7907 14.2309 40.0584 14.3415 40.3372 14.3398L40.3269 14.3295C40.6026 14.331 40.8677 14.2227 41.0636 14.0286L46.3658 8.72634C46.7385 8.29106 46.6878 7.63607 46.2525 7.26331Z" fill="white"/>
<path d="M46.2525 7.26331C45.8641 6.93062 45.2912 6.93062 44.9027 7.26331L39.6005 12.5655C39.1937 12.969 39.1909 13.6261 39.5944 14.033C39.7907 14.2309 40.0584 14.3415 40.3372 14.3398L40.3269 14.3295C40.6026 14.331 40.8677 14.2227 41.0636 14.0286L46.3658 8.72634C46.7385 8.29106 46.6878 7.63607 46.2525 7.26331Z" stroke="white" stroke-width="0.2" mask="url(#path-6-outside-6)"/>
<mask id="path-7-outside-7" maskUnits="userSpaceOnUse" x="38.2378" y="35.8564" width="9" height="9" fill="black">
<rect fill="white" x="38.2378" y="35.8564" width="9" height="9"/>
<path d="M46.5716 42.7508C46.5132 42.6718 46.444 42.6015 46.3658 42.5421L41.0636 37.2192C40.6908 36.7839 40.0358 36.7332 39.6005 37.106C39.1653 37.4787 39.1145 38.1337 39.4873 38.569C39.5221 38.6096 39.5599 38.6475 39.6005 38.6822L44.9027 43.9844C45.2433 44.4452 45.8931 44.5426 46.354 44.202C46.8148 43.8615 46.9122 43.2116 46.5716 42.7508Z"/>
</mask>
<path d="M46.5716 42.7508C46.5132 42.6718 46.444 42.6015 46.3658 42.5421L41.0636 37.2192C40.6908 36.7839 40.0358 36.7332 39.6005 37.106C39.1653 37.4787 39.1145 38.1337 39.4873 38.569C39.5221 38.6096 39.5599 38.6475 39.6005 38.6822L44.9027 43.9844C45.2433 44.4452 45.8931 44.5426 46.354 44.202C46.8148 43.8615 46.9122 43.2116 46.5716 42.7508Z" fill="white"/>
<path d="M46.5716 42.7508C46.5132 42.6718 46.444 42.6015 46.3658 42.5421L41.0636 37.2192C40.6908 36.7839 40.0358 36.7332 39.6005 37.106C39.1653 37.4787 39.1145 38.1337 39.4873 38.569C39.5221 38.6096 39.5599 38.6475 39.6005 38.6822L44.9027 43.9844C45.2433 44.4452 45.8931 44.5426 46.354 44.202C46.8148 43.8615 46.9122 43.2116 46.5716 42.7508Z" stroke="white" stroke-width="0.2" mask="url(#path-7-outside-7)"/>
<mask id="path-8-outside-8" maskUnits="userSpaceOnUse" x="8.38477" y="6.01379" width="9" height="9" fill="black">
<rect fill="white" x="8.38477" y="6.01379" width="9" height="9"/>
<path d="M16.3995 12.5655L11.0973 7.26331C10.662 6.89055 10.007 6.94126 9.63428 7.37654C9.30159 7.76499 9.30159 8.33789 9.63428 8.72634L14.9365 14.0285C15.3718 14.4013 16.0268 14.3506 16.3995 13.9153C16.7322 13.5269 16.7322 12.954 16.3995 12.5655Z"/>
</mask>
<path d="M16.3995 12.5655L11.0973 7.26331C10.662 6.89055 10.007 6.94126 9.63428 7.37654C9.30159 7.76499 9.30159 8.33789 9.63428 8.72634L14.9365 14.0285C15.3718 14.4013 16.0268 14.3506 16.3995 13.9153C16.7322 13.5269 16.7322 12.954 16.3995 12.5655Z" fill="white"/>
<path d="M16.3995 12.5655L11.0973 7.26331C10.662 6.89055 10.007 6.94126 9.63428 7.37654C9.30159 7.76499 9.30159 8.33789 9.63428 8.72634L14.9365 14.0285C15.3718 14.4013 16.0268 14.3506 16.3995 13.9153C16.7322 13.5269 16.7322 12.954 16.3995 12.5655Z" stroke="white" stroke-width="0.2" mask="url(#path-8-outside-8)"/>
<mask id="path-9-outside-9" maskUnits="userSpaceOnUse" x="25.9619" y="-1" width="4" height="11" fill="black">
<rect fill="white" x="25.9619" y="-1" width="4" height="11"/>
<path d="M28 0C27.427 0 26.9624 0.464591 26.9624 1.03761V8.53956C26.9451 9.11232 27.3956 9.59066 27.9684 9.60778C27.9789 9.60804 27.9894 9.6083 28 9.6083C28.573 9.6083 29.0376 9.14371 29.0376 8.57069V1.03761C29.0376 0.464591 28.573 0 28 0Z"/>
</mask>
<path d="M28 0C27.427 0 26.9624 0.464591 26.9624 1.03761V8.53956C26.9451 9.11232 27.3956 9.59066 27.9684 9.60778C27.9789 9.60804 27.9894 9.6083 28 9.6083C28.573 9.6083 29.0376 9.14371 29.0376 8.57069V1.03761C29.0376 0.464591 28.573 0 28 0Z" fill="white"/>
<path d="M28 0C27.427 0 26.9624 0.464591 26.9624 1.03761V8.53956C26.9451 9.11232 27.3956 9.59066 27.9684 9.60778C27.9789 9.60804 27.9894 9.6083 28 9.6083C28.573 9.6083 29.0376 9.14371 29.0376 8.57069V1.03761C29.0376 0.464591 28.573 0 28 0Z" stroke="white" stroke-width="0.2" mask="url(#path-9-outside-9)"/>
</g>
<defs>
<clipPath id="clip0">
<rect width="56" height="56" fill="white"/>
</clipPath>
</defs>
</svg>
