<svg width="28" height="28" viewBox="0 0 28 28" fill="none" xmlns="http://www.w3.org/2000/svg">
<g clip-path="url(#clip0)">
<path d="M17.0764 6.18669V2.25158L22.0408 7.21586H18.1054C17.5381 7.21586 17.0764 6.75409 17.0764 6.18669ZM24.2363 7.422L16.8703 0.0560277C16.7384 -0.0758981 16.5595 -0.15 16.3729 -0.15H5.99358C4.65024 -0.15 3.55764 0.942602 3.55764 2.28594V25.7141C3.55764 27.0574 4.65024 28.15 5.99358 28.15H22.0063C23.3496 28.15 24.4422 27.0574 24.4422 25.7141V7.91935C24.4422 7.73287 24.3682 7.55389 24.2363 7.422ZM23.0355 25.7141C23.0355 26.2814 22.5737 26.7432 22.0063 26.7432H5.99358C5.42624 26.7432 4.96441 26.2814 4.96441 25.7141V2.28594C4.96441 1.7186 5.42624 1.25677 5.99358 1.25677H15.6695V6.1868C15.6695 7.53013 16.762 8.62273 18.1054 8.62273H23.0355V25.7141Z" fill="white" stroke="white" stroke-width="0.3"/>
<path d="M18.4268 13.9054H9.57304C9.1846 13.9054 8.86965 14.2204 8.86965 14.6088C8.86965 14.9972 9.1846 15.3122 9.57304 15.3122H18.4268C18.8154 15.3122 19.1302 14.9972 19.1302 14.6088C19.1302 14.2204 18.8154 13.9054 18.4268 13.9054Z" fill="white" stroke="white" stroke-width="0.3"/>
<path d="M18.4268 16.377H9.57304C9.1846 16.377 8.86965 16.6919 8.86965 17.0804C8.86965 17.4688 9.1846 17.7837 9.57304 17.7837H18.4268C18.8154 17.7837 19.1302 17.4688 19.1302 17.0804C19.1302 16.6919 18.8154 16.377 18.4268 16.377Z" fill="white" stroke="white" stroke-width="0.3"/>
<path d="M18.4268 18.8487H9.57304C9.1846 18.8487 8.86965 19.1636 8.86965 19.552C8.86965 19.9405 9.1846 20.2554 9.57304 20.2554H18.4268C18.8154 20.2554 19.1302 19.9405 19.1302 19.552C19.1302 19.1636 18.8154 18.8487 18.4268 18.8487Z" fill="white" stroke="white" stroke-width="0.3"/>
<path d="M15.5493 21.3203H9.57304C9.1846 21.3203 8.86965 21.6353 8.86965 22.0237C8.86965 22.4122 9.1846 22.7271 9.57304 22.7271H15.5493C15.9379 22.7271 16.2527 22.4121 16.2527 22.0237C16.2527 21.6353 15.9379 21.3203 15.5493 21.3203Z" fill="white" stroke="white" stroke-width="0.3"/>
</g>
<defs>
<clipPath id="clip0">
<rect width="28" height="28" fill="white"/>
</clipPath>
</defs>
</svg>
