<svg width="13" height="13" viewBox="0 0 13 13" fill="none" xmlns="http://www.w3.org/2000/svg">
<g clip-path="url(#clip0)">
<path d="M1.24774 4.54125C1.41219 4.65729 1.9079 5.00194 2.73489 5.57502C3.56191 6.1481 4.19546 6.58936 4.63558 6.89881C4.68393 6.93274 4.78666 7.00647 4.94381 7.12013C5.101 7.23386 5.2316 7.32577 5.33552 7.39587C5.43952 7.46595 5.56525 7.54456 5.71282 7.63159C5.86035 7.71854 5.99941 7.78394 6.12999 7.82724C6.26059 7.87089 6.38149 7.89252 6.49271 7.89252H6.5H6.50732C6.61853 7.89252 6.73948 7.87087 6.87008 7.82724C7.00061 7.78394 7.1398 7.71846 7.2872 7.63159C7.43468 7.54446 7.5604 7.46592 7.6644 7.39587C7.7684 7.32577 7.8989 7.23386 8.05613 7.12013C8.21326 7.00637 8.31612 6.93274 8.36448 6.89881C8.80934 6.58936 9.94114 5.80343 11.7595 4.5411C12.1126 4.29455 12.4075 3.99706 12.6444 3.64883C12.8816 3.30075 13 2.93559 13 2.55356C13 2.23432 12.8851 1.96105 12.6553 1.73376C12.4256 1.50643 12.1535 1.39282 11.8393 1.39282H1.16067C0.788295 1.39282 0.50173 1.51855 0.301023 1.77C0.100341 2.0215 0 2.33586 0 2.71306C0 3.01774 0.133042 3.34791 0.399 3.70336C0.664933 4.05883 0.94794 4.33815 1.24774 4.54125Z" fill="#623B2A"/>
<path d="M12.2745 5.31739C10.6883 6.39096 9.48393 7.22529 8.66186 7.82022C8.3862 8.02327 8.16257 8.18177 7.99083 8.29535C7.81909 8.40901 7.59069 8.52507 7.30529 8.64351C7.02 8.76212 6.75412 8.82124 6.50742 8.82124H6.50002H6.49273C6.24609 8.82124 5.98005 8.76212 5.69476 8.64351C5.40946 8.52507 5.18091 8.40901 5.00922 8.29535C4.83758 8.18177 4.61388 8.02327 4.33824 7.82022C3.6853 7.34146 2.48349 6.50708 0.732776 5.31739C0.457035 5.13374 0.212802 4.92322 0 4.68628V10.4462C0 10.7656 0.113604 11.0387 0.34094 11.266C0.568226 11.4934 0.841527 11.607 1.16074 11.607H11.8394C12.1585 11.607 12.4318 11.4934 12.6591 11.266C12.8865 11.0386 13 10.7656 13 10.4462V4.68628C12.792 4.91832 12.5503 5.12883 12.2745 5.31739Z" fill="#623B2A"/>
</g>
<defs>
<clipPath id="clip0">
<rect width="13" height="13" fill="white"/>
</clipPath>
</defs>
</svg>
