<svg width="16" height="16" viewBox="0 0 16 16" fill="none" xmlns="http://www.w3.org/2000/svg">
<path d="M8 3C4.51066 3 1.48622 5.03191 0 8C1.48622 10.9681 4.51066 13 8 13C11.4893 13 14.5137 10.9681 16 8C14.5138 5.03191 11.4893 3 8 3ZM11.9445 5.65163C12.8846 6.25122 13.6812 7.05434 14.2795 8C13.6812 8.94566 12.8845 9.74878 11.9445 10.3484C10.7634 11.1018 9.39934 11.5 8 11.5C6.60063 11.5 5.23662 11.1018 4.05547 10.3484C3.11547 9.74875 2.31891 8.94562 1.72056 8C2.31887 7.05431 3.11547 6.25119 4.05547 5.65163C4.11669 5.61256 4.17853 5.57472 4.24075 5.53756C4.08516 5.96456 4 6.42541 4 6.90625C4 9.11534 5.79087 10.9062 8 10.9062C10.2091 10.9062 12 9.11534 12 6.90625C12 6.42541 11.9148 5.96456 11.7593 5.53753C11.8214 5.57469 11.8833 5.61256 11.9445 5.65163ZM8 6.40625C8 7.23469 7.32844 7.90625 6.5 7.90625C5.67156 7.90625 5 7.23469 5 6.40625C5 5.57781 5.67156 4.90625 6.5 4.90625C7.32844 4.90625 8 5.57781 8 6.40625Z" fill="#623B2A"/>
</svg>
