<svg width="56" height="55" viewBox="0 0 56 55" fill="none" xmlns="http://www.w3.org/2000/svg">
<path d="M44.2167 33.7127C43.1177 31.4736 39.186 28.3656 35.3874 25.3625C33.2687 23.6888 31.2667 22.1064 29.9904 20.8591C29.6707 20.5445 29.1924 20.4441 28.7701 20.5923C27.9838 20.8706 27.4984 21.0849 27.1158 21.2513C26.5325 21.5066 26.3365 21.5933 25.5501 21.6708C25.2024 21.705 24.8898 21.8875 24.6961 22.1702C23.0464 24.5803 21.3384 24.3751 20.1974 24.0012C19.8334 23.8827 19.7681 23.7299 19.7331 23.584C19.4881 22.583 20.7178 20.2526 22.3114 18.6951C26.1031 14.9875 28.0584 14.0594 32.1884 15.8631C36.8737 17.9107 41.5684 19.5138 41.6151 19.5297C42.2288 19.7372 42.8891 19.4225 43.1014 18.8273C43.3114 18.2322 42.9917 17.5823 42.3827 17.3749C42.336 17.359 37.7347 15.7878 33.1427 13.7789C27.7924 11.4417 24.857 12.9808 20.664 17.0807C19.068 18.6404 16.9003 21.7962 17.4603 24.1107C17.7006 25.0957 18.41 25.8255 19.4646 26.1651C22.1083 27.018 24.5209 26.2016 26.3176 23.8713C27.0596 23.7596 27.4633 23.5954 28.0699 23.3286C28.2892 23.2328 28.5459 23.1211 28.8866 22.9866C30.2213 24.2111 32.0226 25.6362 33.9196 27.1343C37.3496 29.8454 41.2393 32.9192 42.1143 34.6978C42.546 35.5756 42.0816 36.148 41.7666 36.4102C41.3046 36.7979 40.6723 36.921 40.3293 36.6861C39.9513 36.433 39.459 36.417 39.0693 36.645C38.6773 36.873 38.458 37.304 38.507 37.7464C38.5863 38.4715 37.9073 38.8865 37.6133 39.0302C36.8666 39.3996 36.0873 39.3358 35.7956 39.0712C35.4689 38.7748 34.9999 38.6882 34.5846 38.8386C34.1693 38.9914 33.8799 39.3654 33.8379 39.7986C33.7679 40.5465 33.2009 41.2647 32.4612 41.5452C32.1042 41.6774 31.5862 41.7573 31.1219 41.3422C30.8326 41.0869 30.4312 40.9888 30.0556 41.0777C29.6753 41.1689 29.3696 41.438 29.2366 41.796C29.1923 41.91 29.0919 42.1836 27.9999 42.1836C27.2229 42.1836 25.8252 41.6706 25.1416 41.2282C24.3226 40.7014 19.1869 36.9574 14.7513 33.3272C14.1283 32.8142 13.0503 31.7151 12.0983 30.7437C11.2536 29.8818 10.4813 29.0997 10.0846 28.7713C9.58759 28.3609 8.85259 28.4224 8.43959 28.9059C8.0243 29.387 8.08489 30.1076 8.5773 30.5134C8.939 30.8122 9.639 31.5349 10.4113 32.3216C11.452 33.3842 12.5276 34.4833 13.251 35.0762C17.5957 38.6311 22.8177 42.4687 23.8583 43.1367C24.717 43.6886 26.5673 44.4638 28 44.4638C29.1503 44.4638 30.0347 44.2061 30.6483 43.7023C31.4696 44.0147 32.403 44.0169 33.3013 43.6749C34.363 43.2735 35.2356 42.4641 35.7303 41.4836C36.6496 41.6752 37.702 41.5406 38.6586 41.071C39.5943 40.6104 40.2709 39.9058 40.6069 39.0826C41.5356 39.1304 42.4922 38.8089 43.2832 38.1454C44.6227 37.0259 44.9913 35.2838 44.2167 33.7127Z" fill="white"/>
<path d="M23.3333 14.821H12.8333C12.1893 14.821 11.6666 15.3319 11.6666 15.9612C11.6666 16.5905 12.1893 17.1013 12.8333 17.1013H23.3333C23.9773 17.1013 24.5 16.5905 24.5 15.9612C24.5 15.3319 23.9773 14.821 23.3333 14.821Z" fill="white"/>
<path d="M47.635 31.2865C47.2733 30.7643 46.55 30.6207 46.0157 30.9764L42.6044 33.2155C42.0701 33.5667 41.9277 34.2758 42.2871 34.798C42.5134 35.1241 42.8821 35.3019 43.2578 35.3019C43.4795 35.3019 43.7058 35.2404 43.9065 35.1082L47.3178 32.869C47.852 32.5178 47.9943 31.8087 47.635 31.2865Z" fill="white"/>
<path d="M40.3923 36.7273C39.557 36.0843 35.8213 32.347 33.5113 29.9938C33.0656 29.5377 32.326 29.5218 31.8616 29.9596C31.3949 30.3952 31.3809 31.1179 31.8266 31.5718C32.4263 32.1828 37.7159 37.571 38.9456 38.5196C39.1579 38.6838 39.4146 38.7637 39.6666 38.7637C40.0096 38.7637 40.3526 38.6132 40.5859 38.3281C40.985 37.8355 40.8987 37.1172 40.3923 36.7273Z" fill="white"/>
<path d="M35.7303 39.0142C34.3326 37.922 30.821 34.2759 30.0276 33.4323C29.5889 32.9671 28.8539 32.9397 28.3779 33.3638C27.9042 33.7902 27.8716 34.5131 28.3079 34.976C28.3499 35.0193 32.5406 39.4407 34.2719 40.7951C34.4866 40.9616 34.7456 41.0437 34.9999 41.0437C35.3406 41.0437 35.6812 40.8954 35.9122 40.6173C36.3137 40.1247 36.232 39.4064 35.7303 39.0142Z" fill="white"/>
<path d="M31.087 41.3105C29.4233 39.9402 26.019 36.3989 25.354 35.7034C24.913 35.2429 24.1733 35.2177 23.7043 35.6487C23.233 36.0797 23.2096 36.8002 23.6483 37.2609C24.605 38.2618 27.8623 41.6366 29.582 43.0549C29.8013 43.235 30.0673 43.3239 30.3333 43.3239C30.6646 43.3239 30.996 43.1849 31.227 42.9181C31.6423 42.4346 31.5793 41.7164 31.087 41.3105Z" fill="white"/>
<path d="M13.636 12.8533C11.6363 11.0017 3.64 10.402 1.2367 10.2629C0.905406 10.247 0.599703 10.3541 0.366406 10.5707C0.133 10.785 0 11.086 0 11.4007V31.9227C0 32.5521 0.522703 33.0629 1.1667 33.0629H8.1667C8.6707 33.0629 9.1187 32.746 9.275 32.2762C9.4453 31.7654 13.4657 19.7076 13.9953 13.779C14.0257 13.4324 13.895 13.0903 13.636 12.8533ZM7.315 30.7827H2.3333V12.6229C6.083 12.9125 10.129 13.5418 11.599 14.2396C10.9807 19.2333 8.183 28.1056 7.315 30.7827Z" fill="white"/>
<path d="M54.8333 12.5409C45.6726 12.5409 40.5906 14.8325 40.3783 14.9283C40.075 15.0673 39.8486 15.325 39.7553 15.6375C39.662 15.9499 39.7086 16.2851 39.8836 16.5632C41.3256 18.8321 45.8406 31.4326 46.7086 34.5063C46.8486 35.001 47.3083 35.3431 47.8333 35.3431H54.8333C55.4773 35.3431 56 34.8323 56 34.2029V13.6809C56 13.0493 55.4773 12.5409 54.8333 12.5409ZM53.6667 33.0629H48.706C47.6 29.5422 44.3333 20.362 42.511 16.5678C44.2913 15.9773 48.1157 14.9625 53.6667 14.8349V33.0629Z" fill="white"/>
</svg>
