<svg width="24" height="44" viewBox="0 0 24 44" fill="none" xmlns="http://www.w3.org/2000/svg">
<path d="M13.7125 36.5679L10.3731 33.2178L7.03333 36.5679L10.3724 43.5728L13.7125 36.5679Z" fill="#E04E39"/>
<path d="M10.3727 13.948C9.09117 13.948 8.05212 14.9918 8.05212 16.2791C8.05212 17.5664 9.09117 18.6102 10.3727 18.6102C11.6542 18.6102 12.6933 17.5664 12.6933 16.2791C12.6933 14.9918 11.6542 13.948 10.3727 13.948Z" fill="#C39367"/>
<path d="M10.3725 3.48633C9.66567 3.84996 0.427246 8.75398 0.427246 16.5898C0.427246 23.2923 5.86496 33.4578 5.86496 33.4578L10.3725 28.9216L14.8804 33.4578C14.8804 33.4578 20.3181 23.2923 20.3181 16.5898C20.3181 8.75398 11.0797 3.84996 10.3725 3.48633ZM13.3489 25.8611L10.3725 22.8661L7.39648 25.8611C7.24442 25.4456 5.25057 20.0238 5.25057 16.4866C5.25057 11.7146 10.0146 9.04124 10.3725 8.84549C10.7307 9.04124 15.4948 11.7146 15.4948 16.4866C15.4948 20.0238 13.501 25.4456 13.3489 25.8611Z" fill="#C39367"/>
<path d="M20.3176 0.0726944L16.9187 3.48706L20.3176 6.90142L23.7166 3.48706L20.3176 0.0726944Z" fill="#C39367"/>
</svg>
