<svg width="11" height="11" viewBox="0 0 11 11" fill="none" xmlns="http://www.w3.org/2000/svg">
<g opacity="0.5" clip-path="url(#clip0)">
<path d="M9.97397 7.96435V7.98062C9.96519 9.08125 9.06701 9.97397 7.96435 9.97397H3.03552C1.9275 9.97403 1.02597 9.07244 1.02597 7.96435V3.03558C1.02597 1.92756 1.9275 1.02597 3.03552 1.02597H7.96428C9.07237 1.02597 9.97397 1.92756 9.97397 3.03558V7.96435ZM7.96428 -0.05H3.03552C1.33412 -0.05 -0.05 1.33419 -0.05 3.03558V7.96435C-0.05 9.66581 1.33412 11.0499 3.03552 11.0499H7.96428C9.66581 11.0499 11.0499 9.66575 11.0499 7.96435V3.03558C11.05 1.33418 9.66581 -0.05 7.96428 -0.05Z" fill="black" stroke="black" stroke-width="0.1"/>
<path d="M5.49993 2.61577C3.9094 2.61577 2.61553 3.90965 2.61553 5.50018C2.61553 7.09064 3.90941 8.38445 5.49993 8.38445C7.09046 8.38445 8.38434 7.09064 8.38434 5.50018C8.38434 3.90965 7.09046 2.61577 5.49993 2.61577ZM5.49993 7.30842C4.50284 7.30842 3.69149 6.49719 3.69149 5.50011C3.69149 4.50296 4.50278 3.69167 5.49993 3.69167C6.49708 3.69167 7.30837 4.50296 7.30837 5.50011C7.30837 6.49719 6.49702 7.30842 5.49993 7.30842Z" fill="black" stroke="black" stroke-width="0.1"/>
<path d="M8.99473 3.09549L8.99482 3.0954C9.13761 2.95261 9.21897 2.75509 9.21897 2.55384C9.21897 2.35204 9.13767 2.15449 8.99482 2.01229C8.85261 1.86943 8.65507 1.78813 8.45326 1.78813C8.25207 1.78813 8.05461 1.86945 7.91236 2.01228C7.7695 2.15442 7.68755 2.35193 7.68755 2.55384C7.68755 2.75527 7.76964 2.95269 7.91235 3.0954C8.05444 3.23749 8.25193 3.31955 8.45326 3.31955C8.65528 3.31955 8.85206 3.23746 8.99473 3.09549Z" fill="black" stroke="black" stroke-width="0.1"/>
</g>
<defs>
<clipPath id="clip0">
<rect width="11" height="11" fill="white"/>
</clipPath>
</defs>
</svg>
