<svg width="53" height="53" viewBox="0 0 53 53" fill="none" xmlns="http://www.w3.org/2000/svg">
<g clip-path="url(#clip0)">
<path d="M26.5 0C11.8646 0 0 11.8646 0 26.5C0 41.1354 11.8646 53 26.5 53C41.1354 53 53 41.1354 53 26.5C52.9836 11.8715 41.1285 0.01639 26.5 0ZM49.4188 35.7836L41.8824 37.084C42.7451 33.9203 43.2109 30.6618 43.2691 27.3833H51.2113C51.1117 30.2671 50.5048 33.1108 49.4188 35.7836ZM1.78866 27.3833H9.7309C9.78913 30.6618 10.2549 33.9203 11.1176 37.084L3.58121 35.7836C2.49516 33.1108 1.8883 30.2671 1.78866 27.3833ZM3.58121 17.2164L11.1176 15.916C10.2549 19.0797 9.78913 22.3382 9.7309 25.6167H1.78866C1.8883 22.7329 2.49516 19.8892 3.58121 17.2164ZM27.3833 14.1829C30.5574 14.2235 33.7237 14.5125 36.8529 15.0477L39.9708 15.5856C40.9288 18.8455 41.4442 22.2192 41.5033 25.6167H27.3833V14.1829ZM37.1539 13.3065C33.9255 12.7549 30.6583 12.4568 27.3833 12.4163V1.81627C32.4474 2.30279 36.8464 6.93943 39.3394 13.6874L37.1539 13.3065ZM25.6167 12.4163C22.3417 12.4568 19.0753 12.7549 15.8469 13.3065L13.6606 13.6848C16.1536 6.93512 20.5526 2.29675 25.6167 1.81239V12.4163ZM16.148 15.0477C19.2768 14.5125 22.4426 14.2235 25.6167 14.1829V25.6167H11.4967C11.5558 22.2192 12.0712 18.8455 13.0292 15.5856L16.148 15.0477ZM11.4967 27.3833H25.6167V38.8171C22.4426 38.7765 19.2763 38.4875 16.1471 37.9523L13.0292 37.4144C12.0712 34.1545 11.5558 30.7808 11.4967 27.3833ZM15.8461 39.6935C19.0745 40.246 22.3413 40.5453 25.6167 40.5885V51.1885C20.5526 50.7015 16.1536 46.0649 13.6606 39.317L15.8461 39.6935ZM27.3833 40.5885C30.6583 40.5453 33.9247 40.246 37.1531 39.6935L39.3394 39.3152C36.8464 46.0649 32.4474 50.7032 27.3833 51.1876V40.5885ZM36.852 37.9523C33.7232 38.4875 30.5574 38.7765 27.3833 38.8171V27.3833H41.5033C41.4442 30.7808 40.9288 34.1545 39.9708 37.4144L36.852 37.9523ZM43.2691 25.6167C43.2109 22.3382 42.7451 19.0797 41.8824 15.916L49.4188 17.2164C50.5048 19.8892 51.1117 22.7329 51.2113 25.6167H43.2691ZM48.5251 15.2694L41.301 14.0229C40.0023 9.78611 37.5727 5.98363 34.2732 3.02524C40.4431 5.08434 45.5598 9.47987 48.5251 15.2694ZM18.7268 3.02524C15.4273 5.98363 12.9977 9.78611 11.699 14.0229L4.47489 15.2694C7.44019 9.47987 12.5569 5.08434 18.7268 3.02524ZM4.47489 37.7306L11.699 38.9771C12.9977 43.2139 15.4273 47.0164 18.7268 49.9748C12.5569 47.9157 7.44019 43.5201 4.47489 37.7306ZM34.2732 49.9748C37.5727 47.0164 40.0023 43.2139 41.301 38.9771L48.5251 37.7306C45.5598 43.5201 40.4431 47.9157 34.2732 49.9748Z" fill="white" stroke="white" stroke-width="0.5"/>
</g>
<defs>
<clipPath id="clip0">
<rect width="53" height="53" fill="white"/>
</clipPath>
</defs>
</svg>
