<svg width="14" height="14" viewBox="0 0 14 14" fill="none" xmlns="http://www.w3.org/2000/svg">
<g clip-path="url(#clip0)">
<path d="M6.99998 0C4.12126 0 1.7793 2.34291 1.7793 5.22276C1.7793 9.51356 6.48033 13.7032 6.68052 13.8794C6.77178 13.9598 6.88586 14.0001 6.99998 14.0001C7.1141 14.0001 7.22817 13.9599 7.31948 13.8794C7.51958 13.7032 12.2207 9.51361 12.2207 5.22276C12.2207 2.34291 9.8787 0 6.99998 0ZM6.99998 3.75658C7.79963 3.75658 8.45018 4.4143 8.45018 5.22276C8.45018 6.03123 7.79963 6.68895 6.99998 6.68895C6.20033 6.68895 5.54977 6.03123 5.54977 5.22276C5.54977 4.4143 6.20033 3.75658 6.99998 3.75658Z" fill="#623B2A"/>
</g>
<defs>
<clipPath id="clip0">
<rect width="14" height="14" fill="white"/>
</clipPath>
</defs>
</svg>
