<svg width="147" height="81" viewBox="0 0 147 81" fill="none" xmlns="http://www.w3.org/2000/svg">
<path d="M78.8863 67.4629H78.2358L78.0805 65.8064H74.1188V59.2822H75.0545V64.9593H77.1976V59.2822H78.1333V64.9593H78.8868V67.4635H78.8863V67.4629Z" fill="white"/>
<path d="M83.7445 65.3636C83.5358 65.5547 83.2727 65.7017 82.952 65.8063C82.6313 65.9108 82.2942 65.9623 81.9396 65.9623C81.5317 65.9623 81.1793 65.8822 80.8808 65.7214C80.5822 65.5605 80.3355 65.3297 80.1405 65.0292C79.9455 64.7288 79.8034 64.3706 79.712 63.9539C79.6216 63.5357 79.5757 63.067 79.5757 62.5442C79.5757 61.4306 79.7791 60.5825 80.1854 59.9992C80.5928 59.4164 81.1682 59.125 81.9127 59.125C82.1547 59.125 82.3956 59.1558 82.6339 59.2158C82.8717 59.2763 83.0862 59.3994 83.2764 59.5815C83.4677 59.7635 83.6204 60.0215 83.7377 60.3521C83.855 60.6833 83.9126 61.1122 83.9126 61.643C83.9126 61.7916 83.9062 61.9497 83.8935 62.1196C83.8798 62.2894 83.8645 62.4651 83.847 62.6472H80.5484C80.5484 63.0219 80.5791 63.3616 80.6388 63.6652C80.699 63.9704 80.7946 64.2294 80.9251 64.4422C81.0551 64.6561 81.2216 64.8217 81.4255 64.9385C81.6289 65.0552 81.8826 65.1142 82.1853 65.1142C82.4189 65.1142 82.6513 65.0696 82.8806 64.9836C83.11 64.8971 83.2859 64.7925 83.4059 64.671L83.7445 65.3636ZM83.0164 61.8653C83.0339 61.213 82.9435 60.7348 82.7438 60.4307C82.5441 60.1255 82.272 59.9742 81.9254 59.9742C81.527 59.9742 81.211 60.1255 80.9769 60.4307C80.7439 60.7359 80.6044 61.2136 80.5622 61.8653H83.0164Z" fill="white"/>
<path d="M88.4069 62.8973H86.1593V65.8064H85.2235V59.2822H86.1593V62.0491H88.4069V59.2822H89.3416V65.8064H88.4069V62.8973Z" fill="white"/>
<path d="M94.2396 60.1304H92.6418V65.8064H91.7061V60.1304H90.1083V59.2822H94.2391V60.1304H94.2396Z" fill="white"/>
<path d="M95.0185 59.2821H95.6811L95.8242 59.9875H95.8755C96.1967 59.4121 96.6987 59.1255 97.3829 59.1255C98.0672 59.1255 98.5797 59.3818 98.9226 59.8951C99.2639 60.4089 99.4351 61.248 99.4351 62.4152C99.4351 62.9629 99.3786 63.456 99.266 63.896C99.1535 64.3344 98.9934 64.7092 98.7858 65.0186C98.5781 65.327 98.3245 65.5616 98.026 65.7224C97.7269 65.8832 97.3956 65.9634 97.0316 65.9634C96.7811 65.9634 96.5814 65.948 96.434 65.9177C96.2871 65.8869 96.1265 65.8238 95.9537 65.7282V68.4171H95.0179V59.2831H95.0185V59.2821ZM95.9542 64.7755C96.0752 64.8801 96.2115 64.9634 96.3637 65.0239C96.5143 65.0844 96.7161 65.1147 96.9666 65.1147C97.4257 65.1147 97.7898 64.8801 98.0582 64.4109C98.3261 63.9406 98.4608 63.2697 98.4608 62.4008C98.4608 62.0352 98.4365 61.705 98.3895 61.4088C98.3425 61.1127 98.2664 60.8595 98.1617 60.6456C98.0582 60.4328 97.9266 60.2677 97.7649 60.1493C97.6048 60.0326 97.4078 59.9737 97.1742 59.9737C96.5418 59.9737 96.1344 60.3606 95.9532 61.1355V64.775H95.9542V64.7755Z" fill="white"/>
<path d="M3.11844 72.7123H0.935744V78.3894H0V71.8652H4.0526V78.3894H3.11844V72.7123Z" fill="white"/>
<path d="M5.58594 71.8636H6.24851L6.3917 72.569H6.44296C6.7642 71.9936 7.26616 71.707 7.9504 71.707C8.63464 71.707 9.14716 71.9634 9.49007 72.4766C9.8314 72.9904 10.0026 73.8296 10.0026 74.9967C10.0026 75.5445 9.94605 76.0376 9.83351 76.4776C9.72097 76.916 9.56087 77.2907 9.35322 77.6001C9.14557 77.9085 8.89195 78.1431 8.59342 78.3039C8.29437 78.4648 7.96308 78.5449 7.59903 78.5449C7.34858 78.5449 7.14886 78.5295 7.00144 78.4993C6.85456 78.4685 6.69393 78.4053 6.52115 78.3098V80.9981H5.58699V71.8636H5.58594ZM6.52168 77.3565C6.64268 77.4611 6.779 77.5444 6.93117 77.6049C7.08175 77.6654 7.28359 77.6957 7.53404 77.6957C7.99319 77.6957 8.35724 77.4611 8.62565 76.9919C8.89354 76.5216 9.02827 75.8507 9.02827 74.9819C9.02827 74.6162 9.00397 74.286 8.95694 73.9899C8.90992 73.6937 8.83383 73.4405 8.72921 73.2266C8.62565 73.0138 8.49409 72.8487 8.33241 72.7303C8.17231 72.6136 7.97523 72.5547 7.74169 72.5547C7.10923 72.5547 6.70186 72.9416 6.52063 73.7165V77.356H6.52168V77.3565Z" fill="white"/>
<path d="M15.121 77.9457C14.9123 78.1367 14.6492 78.2838 14.3284 78.3883C14.0077 78.4929 13.6706 78.5444 13.3161 78.5444C12.9082 78.5444 12.5558 78.4642 12.2572 78.3034C11.9587 78.1426 11.7119 77.9117 11.517 77.6113C11.322 77.3109 11.1799 76.9526 11.0885 76.5359C10.9981 76.1177 10.9521 75.649 10.9521 75.1262C10.9521 74.0127 11.1556 73.1645 11.5619 72.5812C11.9693 71.9984 12.5447 71.707 13.2891 71.707C13.5311 71.707 13.7721 71.7378 14.0104 71.7978C14.2481 71.8583 14.4626 71.9814 14.6529 72.1635C14.8441 72.3455 14.9968 72.6035 15.1141 72.9342C15.2314 73.2643 15.289 73.6942 15.289 74.225C15.289 74.3736 15.2827 74.5318 15.27 74.7016C15.2563 74.8715 15.2409 75.0471 15.2246 75.2292H11.9254C11.9254 75.6039 11.9561 75.9436 12.0158 76.2472C12.076 76.5524 12.1716 76.8114 12.3021 77.0242C12.4321 77.2381 12.5986 77.4037 12.8025 77.5205C13.0059 77.6373 13.2595 77.6962 13.5623 77.6962C13.7958 77.6962 14.0283 77.6516 14.2576 77.5656C14.4869 77.4791 14.6629 77.3745 14.7828 77.253L15.121 77.9457ZM14.3929 74.4474C14.4103 73.7951 14.32 73.3168 14.1203 73.0127C13.9205 72.7075 13.6484 72.5563 13.3018 72.5563C12.9034 72.5563 12.5875 72.7075 12.3534 73.0127C12.1204 73.3179 11.9809 73.7956 11.9386 74.4474H14.3929Z" fill="white"/>
<path d="M21.1216 80.045H20.4723L20.3164 78.3884H16.4715L16.3034 80.045H15.6667V77.5403H16.2765C16.3283 77.4447 16.4007 77.2685 16.491 77.0127C16.5814 76.7548 16.6707 76.3986 16.7573 75.9421C16.8434 75.4857 16.9195 74.9225 16.985 74.2522C17.0495 73.5829 17.0865 72.7867 17.0955 71.8643H20.356V77.5403H21.1227V80.045H21.1216ZM19.4192 77.5403V72.7114H17.9514C17.934 73.0861 17.9102 73.4942 17.8806 73.939C17.8494 74.3817 17.8045 74.8233 17.7438 75.2638C17.6835 75.7038 17.609 76.1226 17.5229 76.5228C17.4363 76.9235 17.3364 77.2616 17.2239 77.5408C17.2239 77.5403 19.4192 77.5403 19.4192 77.5403Z" fill="white"/>
<path d="M25.2134 72.7123H23.0312V78.3894H22.0955V71.8652H26.1481V78.3894H25.2134V72.7123Z" fill="white"/>
<path d="M27.6813 71.8636H28.3439L28.4871 72.569H28.5383C28.8596 71.9936 29.3615 71.707 30.0458 71.707C30.73 71.707 31.2425 71.9634 31.5854 72.4766C31.9268 72.9904 32.098 73.8296 32.098 74.9967C32.098 75.5445 32.0414 76.0376 31.9289 76.4776C31.8163 76.916 31.6563 77.2907 31.4486 77.6001C31.241 77.9085 30.9873 78.1431 30.6888 78.3039C30.3897 78.4648 30.0585 78.5449 29.6944 78.5449C29.444 78.5449 29.2442 78.5295 29.0968 78.4993C28.9489 78.4685 28.7893 78.4053 28.6165 78.3098V80.9981H27.6808V71.8652H27.6813V71.8636ZM28.6171 77.3565C28.7381 77.4611 28.8744 77.5444 29.0265 77.6049C29.1771 77.6654 29.379 77.6957 29.6294 77.6957C30.0886 77.6957 30.4526 77.4611 30.721 76.9919C30.9889 76.5216 31.1237 75.8507 31.1237 74.9819C31.1237 74.6162 31.0993 74.286 31.0523 73.9899C31.0053 73.6937 30.9292 73.4405 30.8246 73.2266C30.721 73.0138 30.5895 72.8487 30.4278 72.7303C30.2677 72.6136 30.0706 72.5547 29.8371 72.5547C29.2046 72.5547 28.7972 72.9416 28.616 73.7165V77.356H28.6171V77.3565Z" fill="white"/>
<path d="M36.567 74.6312L36.6446 73.6391H36.5923L36.1379 74.7357L33.9431 78.3884H33.3323V71.8643H34.268V75.7405L34.1898 76.6932H34.2416L34.6701 75.6226L36.8919 71.8653H37.5016V78.3895H36.567V74.6312Z" fill="white"/>
<path d="M42.2169 75.4793H39.9692V78.3884H39.0334V71.8643H39.9692V74.6312H42.2169V71.8643H43.1516V78.3884H42.2169V75.4793Z" fill="white"/>
<path d="M47.9063 74.6312L47.9839 73.6391H47.9322L47.4778 74.7357L45.2829 78.3884H44.6721V71.8643H45.6079V75.7405L45.5297 76.6932H45.5814L46.01 75.6226L48.2318 71.8653H48.8415V78.3895H47.9068V74.6312H47.9063Z" fill="white"/>
<path d="M54.6858 74.5128L54.7772 73.2729H54.7254L54.3355 74.3817L53.1271 76.888H52.79L51.5298 74.3817L51.1795 73.2729H51.115L51.2186 74.5006V78.389H50.3743V71.8648H51.31L52.726 74.697L53.0114 75.5451H53.0378L53.3501 74.671L54.662 71.8643H55.6236V78.3884H54.6879V74.5133H54.6858V74.5128Z" fill="white"/>
<path d="M57.0894 72.2555C57.3398 72.0995 57.6458 71.978 58.0051 71.8898C58.3644 71.8033 58.7427 71.7593 59.1416 71.7593C59.5056 71.7593 59.7978 71.8134 60.0176 71.9228C60.239 72.0321 60.4118 72.1791 60.537 72.3654C60.6633 72.5533 60.7457 72.7661 60.7838 73.0055C60.8234 73.2449 60.8424 73.4944 60.8424 73.755C60.8424 74.2767 60.8308 74.7868 60.8081 75.282C60.7859 75.7782 60.7748 76.2469 60.7748 76.6917C60.7748 77.0218 60.7864 77.3286 60.8081 77.611C60.8308 77.8949 60.872 78.1614 60.9328 78.4135H60.2005L59.9738 77.6439H59.922C59.7925 77.8705 59.6039 78.0653 59.3551 78.2314C59.1062 78.3965 58.7701 78.4783 58.3496 78.4783C57.8851 78.4783 57.5052 78.3164 57.2083 77.9894C56.9113 77.6635 56.7639 77.2124 56.7639 76.6381C56.7639 76.265 56.8257 75.9507 56.9504 75.6992C57.0751 75.4476 57.2511 75.2427 57.4788 75.0867C57.7065 74.9306 57.9776 74.8181 58.2904 74.7533C58.6042 74.6886 58.954 74.6562 59.3403 74.6562C59.4264 74.6562 59.5125 74.6562 59.5976 74.6562C59.6837 74.6562 59.7741 74.661 59.8686 74.67C59.8945 74.3998 59.9072 74.1605 59.9072 73.9513C59.9072 73.4567 59.8343 73.108 59.6879 72.9073C59.5426 72.7067 59.2758 72.6069 58.8901 72.6069C58.6502 72.6069 58.3881 72.6451 58.106 72.7194C57.8222 72.7922 57.5866 72.8861 57.398 73.0002L57.0894 72.2555ZM59.8829 75.4136C59.7968 75.4046 59.7117 75.3982 59.6261 75.394C59.54 75.3892 59.4549 75.3876 59.3693 75.3876C59.1638 75.3876 58.9619 75.4046 58.7664 75.4391C58.5694 75.4741 58.3939 75.5346 58.2402 75.6211C58.0864 75.7092 57.9638 75.826 57.8746 75.9746C57.7847 76.1217 57.7393 76.3095 57.7393 76.5362C57.7393 76.8833 57.8233 77.1535 57.9897 77.3445C58.1567 77.5356 58.3728 77.6312 58.6375 77.6312C58.9968 77.6312 59.2747 77.5446 59.4718 77.3705C59.6684 77.1959 59.8052 77.0048 59.8829 76.7968V75.4141V75.4136Z" fill="white"/>
<path d="M65.7278 72.7124H64.13V78.3895H63.1942V72.7124H61.5964V71.8643H65.7272V72.7124H65.7278Z" fill="white"/>
<path d="M70.2353 77.9457C70.0265 78.1367 69.7634 78.2838 69.4427 78.3883C69.122 78.4929 68.7849 78.5444 68.4303 78.5444C68.0224 78.5444 67.67 78.4642 67.3715 78.3034C67.073 78.1426 66.8262 77.9117 66.6312 77.6113C66.4363 77.3109 66.2941 76.9526 66.2027 76.5359C66.1124 76.1177 66.0664 75.649 66.0664 75.1262C66.0664 74.0127 66.2698 73.1645 66.6761 72.5812C67.0835 71.9984 67.6589 71.707 68.4034 71.707C68.6454 71.707 68.8863 71.7378 69.1246 71.7978C69.3624 71.8583 69.5769 71.9814 69.7671 72.1635C69.9584 72.3455 70.1111 72.6035 70.2284 72.9342C70.3457 73.2643 70.4033 73.6942 70.4033 74.225C70.4033 74.3736 70.3969 74.5318 70.3843 74.7016C70.3705 74.8715 70.3552 75.0471 70.3378 75.2292H67.0391C67.0391 75.6039 67.0698 75.9436 67.1295 76.2472C67.1897 76.5524 67.2854 76.8114 67.4159 77.0242C67.5458 77.2381 67.7123 77.4037 67.9162 77.5205C68.1197 77.6373 68.3733 77.6962 68.676 77.6962C68.9096 77.6962 69.1421 77.6516 69.3714 77.5656C69.6007 77.4791 69.7766 77.3745 69.8966 77.253L70.2353 77.9457ZM69.5077 74.4474C69.5251 73.7951 69.4348 73.3168 69.2351 73.0127C69.0353 72.7075 68.7632 72.5563 68.4166 72.5563C68.0182 72.5563 67.7022 72.7075 67.4682 73.0127C67.2352 73.3179 67.0957 73.7956 67.0534 74.4474H69.5077Z" fill="white"/>
<path d="M74.327 72.7119H72.911C72.8851 73.4523 72.8507 74.1667 72.8069 74.8588C72.7636 75.551 72.688 76.1619 72.5792 76.6926C72.4708 77.2234 72.3171 77.647 72.1184 77.9638C71.9187 78.2828 71.6545 78.4405 71.3259 78.4405C71.179 78.4405 71.0532 78.433 70.9491 78.4144C70.8456 78.3975 70.7494 78.3677 70.6638 78.3248L70.8059 77.5148C70.9877 77.5663 71.1499 77.5562 71.2931 77.4814C71.4352 77.4071 71.5594 77.1809 71.663 76.8014C71.7671 76.4219 71.8516 75.8424 71.9166 75.0616C71.981 74.2814 72.027 73.2156 72.0534 71.8643H75.2617V78.3884H74.326V72.7124H74.327V72.7119Z" fill="white"/>
<path d="M77.7307 74.3562C77.9034 74.3212 78.0678 74.2973 78.2242 74.2851C78.38 74.2713 78.528 74.2655 78.6659 74.2655C79.0299 74.2655 79.3374 74.3153 79.5884 74.4151C79.8389 74.5154 80.0428 74.6513 80.1982 74.8265C80.354 75.0011 80.4671 75.2076 80.5363 75.4454C80.605 75.6847 80.6399 75.94 80.6399 76.2102C80.6399 77 80.4497 77.5753 80.0682 77.9315C79.6867 78.2876 79.0896 78.467 78.2759 78.467C77.765 78.467 77.2715 78.4394 76.7949 78.3885V71.8643H77.7307V74.3562ZM77.7307 77.5403C77.9901 77.5918 78.2284 77.6188 78.445 77.6188C79.2587 77.6188 79.6661 77.1884 79.6661 76.3264C79.6661 75.9347 79.571 75.629 79.3797 75.4071C79.1895 75.1837 78.8862 75.0738 78.4709 75.0738C78.3584 75.0738 78.2379 75.0802 78.1079 75.0934C77.9769 75.1072 77.8522 75.1317 77.7312 75.1646V77.5403H77.7307Z" fill="white"/>
<path d="M85.1734 78.0628C84.9562 78.2279 84.7095 78.3494 84.4326 78.4285C84.1557 78.506 83.8657 78.5453 83.5624 78.5453C83.1465 78.5453 82.7957 78.4652 82.5093 78.3043C82.224 78.1435 81.9926 77.9126 81.815 77.6122C81.6375 77.3118 81.5075 76.9509 81.4251 76.5294C81.3427 76.108 81.302 75.6409 81.302 75.1277C81.302 74.0141 81.4986 73.166 81.8927 72.5827C82.2869 71.9999 82.8522 71.7085 83.5883 71.7085C83.9264 71.7085 84.2165 71.7393 84.459 71.7993C84.7021 71.8598 84.9092 71.9383 85.0825 72.0339L84.8231 72.856C84.4765 72.6554 84.0997 72.5556 83.6924 72.5556C83.2247 72.5556 82.8718 72.7621 82.634 73.1761C82.3957 73.589 82.2768 74.2392 82.2768 75.1272C82.2768 75.4833 82.3027 75.8177 82.3545 76.1314C82.4063 76.444 82.4924 76.7173 82.6139 76.9472C82.736 77.178 82.8908 77.3601 83.0816 77.4949C83.2718 77.6303 83.5101 77.6966 83.7964 77.6966C84.0215 77.6966 84.2313 77.6568 84.4263 77.5798C84.6212 77.5013 84.7787 77.41 84.9007 77.3054L85.1734 78.0628Z" fill="white"/>
<path d="M89.4599 72.7124H87.8622V78.3895H86.9264V72.7124H85.3286V71.8643H89.4594V72.7124H89.4599Z" fill="white"/>
<path d="M90.2389 71.878C90.4809 71.8594 90.7451 71.8382 91.031 71.8132C91.3173 71.7872 91.6592 71.7734 92.057 71.7734C92.7582 71.7734 93.2607 71.9056 93.5645 72.171C93.8672 72.4364 94.0189 72.8387 94.0189 73.3785C94.0189 73.6837 93.9481 73.9788 93.8044 74.2654C93.6622 74.552 93.4213 74.7707 93.0831 74.9177V74.9692C93.499 75.0663 93.7933 75.242 93.9661 75.4984C94.1399 75.7547 94.2255 76.105 94.2255 76.5482C94.2255 77.2265 94.0258 77.7175 93.6279 78.0227C93.229 78.3279 92.6367 78.4791 91.8478 78.4791C91.553 78.4791 91.2714 78.4685 91.0035 78.4468C90.7345 78.4239 90.4799 78.4011 90.2368 78.3741V71.8769H90.2389V71.878ZM92.1358 74.6438C92.2568 74.6438 92.3735 74.6162 92.4861 74.5589C92.5986 74.5032 92.7006 74.4267 92.7915 74.3312C92.8829 74.2357 92.9537 74.1247 93.006 73.9995C93.0578 73.8732 93.0837 73.7405 93.0837 73.6003C93.0837 73.2622 93.0039 73.0128 92.8438 72.8567C92.6837 72.7007 92.4089 72.6221 92.019 72.6221C91.8114 72.6221 91.6465 72.6269 91.525 72.6359C91.4029 72.6434 91.2872 72.6529 91.1747 72.6619V74.6449H92.1353V74.6438H92.1358ZM91.1747 77.5806C91.3047 77.5975 91.4272 77.6113 91.5445 77.6204C91.6618 77.6278 91.8066 77.6326 91.9794 77.6326C92.4211 77.6326 92.7439 77.5418 92.9468 77.3582C93.1503 77.1761 93.2522 76.8799 93.2522 76.4723C93.2522 76.1581 93.1656 75.9002 92.9928 75.6953C92.82 75.4904 92.5035 75.3885 92.0444 75.3885H91.1741V77.5806H91.1747Z" fill="white"/>
<path d="M95.409 72.2555C95.6594 72.0995 95.9653 71.978 96.3246 71.8898C96.6839 71.8033 97.0622 71.7593 97.4612 71.7593C97.8252 71.7593 98.1174 71.8134 98.3372 71.9228C98.5586 72.0321 98.7314 72.1791 98.8566 72.3654C98.9829 72.5533 99.0653 72.7661 99.1033 73.0055C99.143 73.2449 99.162 73.4944 99.162 73.755C99.162 74.2767 99.1504 74.7868 99.1276 75.282C99.1055 75.7782 99.0944 76.2469 99.0944 76.6917C99.0944 77.0218 99.106 77.3286 99.1276 77.611C99.1504 77.8949 99.1916 78.1614 99.2523 78.4135H98.52L98.2934 77.6439H98.2416C98.1121 77.8705 97.9235 78.0653 97.6746 78.2314C97.4258 78.3976 97.0897 78.4783 96.6691 78.4783C96.2047 78.4783 95.8248 78.3164 95.5279 77.9894C95.2309 77.6635 95.0835 77.2124 95.0835 76.6381C95.0835 76.265 95.1453 75.9507 95.27 75.6992C95.3947 75.4476 95.5707 75.2427 95.7984 75.0867C96.0261 74.9306 96.2972 74.8181 96.61 74.7533C96.9238 74.6886 97.2736 74.6562 97.6598 74.6562C97.746 74.6562 97.8321 74.6562 97.9171 74.6562C98.0033 74.6562 98.0936 74.661 98.1882 74.67C98.2141 74.3998 98.2268 74.1605 98.2268 73.9513C98.2268 73.4567 98.1539 73.108 98.0075 72.9073C97.8622 72.7067 97.5954 72.6069 97.2097 72.6069C96.9698 72.6069 96.7077 72.6451 96.4256 72.7194C96.1418 72.7922 95.9062 72.8861 95.7175 73.0002L95.409 72.2555ZM98.2025 75.4136C98.1163 75.4046 98.0313 75.3982 97.9457 75.394C97.8596 75.3892 97.7745 75.3876 97.6889 75.3876C97.4834 75.3876 97.2815 75.4046 97.086 75.4391C96.8889 75.4741 96.7135 75.5346 96.5598 75.6211C96.406 75.7092 96.2834 75.826 96.1941 75.9746C96.1043 76.1217 96.0589 76.3095 96.0589 76.5362C96.0589 76.8833 96.1424 77.1535 96.3093 77.3445C96.4763 77.5356 96.6924 77.6312 96.9571 77.6312C97.3164 77.6312 97.5943 77.5446 97.7914 77.3705C97.9879 77.1959 98.1248 77.0048 98.2025 76.7968V75.4141V75.4136Z" fill="white"/>
<path d="M131.051 56.3056L125.899 51.137L120.746 56.3056L125.898 67.113L131.051 56.3056Z" fill="white"/>
<path d="M125.898 21.4072C123.921 21.4072 122.318 23.0176 122.318 25.0037C122.318 26.9898 123.921 28.6002 125.898 28.6002C127.876 28.6002 129.479 26.9898 129.479 25.0037C129.479 23.0176 127.876 21.4072 125.898 21.4072Z" fill="white"/>
<path d="M125.899 5.2666C124.808 5.82762 110.555 13.3937 110.555 25.483C110.555 35.8239 118.944 51.5075 118.944 51.5075L125.899 44.5088L132.854 51.5075C132.854 51.5075 141.243 35.8239 141.243 25.483C141.243 13.3937 126.99 5.82762 125.899 5.2666ZM130.491 39.7871L125.899 35.1663L121.307 39.7871C121.072 39.146 117.996 30.7811 117.996 25.3237C117.996 17.9615 125.346 13.8369 125.899 13.5349C126.451 13.8369 133.801 17.9615 133.801 25.3237C133.801 30.7811 130.725 39.146 130.491 39.7871Z" fill="white"/>
<path d="M141.242 3.36461e-05L135.998 5.26782L141.242 10.5356L146.486 5.26782L141.242 3.36461e-05Z" fill="white"/>
<path d="M91.919 10.5344C91.919 11.6363 91.4223 12.2764 90.5622 12.2764C89.702 12.2764 89.2074 11.5981 89.2074 10.5344H84.7506C84.8753 13.8146 86.7632 16.0279 90.6308 16.0279C94.1989 16.0279 96.2358 13.7535 96.3732 10.5344H91.919Z" fill="white"/>
<path d="M82.4934 32.6447L82.4955 17.2307H87.6445C87.6445 17.2307 87.6424 23.8818 87.6424 24.4077C87.6424 24.9327 87.5325 25.5293 87.5325 25.5293H87.7544L93.3588 17.2307H98.2843V32.6447H93.1353V25.4019C93.1353 24.8844 93.2479 24.3934 93.2479 24.3934H93.0244L87.4199 32.6447H82.4934Z" fill="white"/>
<path d="M71.8717 16.8374C76.7585 16.8374 80.4017 20.3076 80.4017 24.9603C80.4017 29.5668 76.7585 33.0391 71.8717 33.0391C67.0339 33.0391 63.3887 29.5668 63.3887 24.9603C63.3887 20.3076 67.0339 16.8374 71.8717 16.8374ZM71.8717 28.2473C73.7389 28.2473 74.9827 26.7882 74.9827 24.9603C74.9827 23.0856 73.7389 21.6276 71.8717 21.6276C70.0525 21.6276 68.7617 23.0856 68.7617 24.9603C68.7617 26.7882 70.0525 28.2473 71.8717 28.2473Z" fill="white"/>
<path d="M57.2199 17.2275C57.2199 17.2275 52.9195 22.8425 52.7462 23.0548C52.5343 23.3181 52.5163 23.4598 52.5163 23.4598H52.2928C52.2928 23.4598 52.2505 23.3075 52.0482 23.0548C51.7454 22.678 47.2902 17.2275 47.2902 17.2275H43.2297V32.641H48.1921V26.1704C48.1921 25.4725 48.0801 25.0479 48.0801 25.0479H48.3041L52.2939 29.6523H52.5089L56.2065 25.0479H56.4289C56.4289 25.0479 56.3179 25.4666 56.3179 26.1704V32.641H61.282V17.2275H57.2199Z" fill="white"/>
<path d="M10.3059 35.8993C7.7105 35.8993 4.99362 37.3478 4.00345 39.5091L3.86185 39.5075C3.9168 39.2824 4.00979 39.0606 4.02511 38.8472C4.26605 35.5267 5.58486 32.8835 8.14376 31.969C9.75265 31.3942 11.3483 31.1622 12.5652 30.9022C13.8665 30.624 15.2017 30.2992 15.9864 30.0646L15.1204 27.4548C13.6943 27.8497 12.367 28.1363 10.1347 28.5933C9.19099 28.7865 8.16067 28.9527 6.95387 29.4633C2.85688 31.1957 1.06042 34.6563 1.06042 41.1805C1.06042 47.0412 3.97175 51.6663 9.55451 51.6663C14.6855 51.6663 17.8034 47.642 17.8034 43.5986C17.8034 38.9332 14.8282 35.8993 10.3059 35.8993ZM9.56191 49.0629C6.12961 49.0629 4.16302 45.8931 4.16302 42.277C4.97407 40.1715 7.49651 38.472 9.62267 38.472C12.73 38.472 14.7114 40.4135 14.7114 43.7356C14.7114 46.8199 12.4711 49.0629 9.56191 49.0629Z" fill="white"/>
<path d="M22.9968 46.7714C22.9968 46.7714 22.9393 46.7698 22.8558 46.7698C22.9223 46.5251 22.9968 46.1637 22.9968 45.8059V35.7283H19.9365V51.1417H22.6819L31.4481 40.062H31.5908C31.5205 40.3035 31.4471 40.7111 31.4471 41.0651V51.1417H34.51V35.7283H31.7641L22.9968 46.7714Z" fill="white"/>
<path d="M46.1569 43.2404V43.1719C47.9671 42.5202 48.8547 41.3196 48.8547 39.5362C48.8547 36.963 46.7714 35.3081 43.0834 35.3081C40.9641 35.3081 38.7317 35.8994 36.8924 37.3128L38.0987 39.4996C39.4751 38.4136 41.2341 37.8744 42.6739 37.8744C44.6885 37.8744 45.7728 38.7124 45.7728 40.0845C45.7728 41.3196 44.8249 42.1895 43.2884 42.1895H40.8642V44.5848H43.459C45.3374 44.5848 46.2763 45.2303 46.2763 46.4993C46.2763 48.0088 44.7646 49.0374 42.4731 49.0374C40.8584 49.0374 38.9663 48.3395 37.7368 47.3443L36.5273 49.5645C37.8615 50.7789 40.1631 51.6663 42.8445 51.6663C46.5304 51.6663 49.3504 49.7237 49.3504 46.8767C49.3504 44.9898 48.2059 43.4803 46.1569 43.2404Z" fill="white"/>
<path d="M62.7778 42.0513H54.5437V35.7278H51.4834V51.1418H54.5437V44.4467H62.7778V51.1418H65.8408V35.7278H62.7778V42.0513Z" fill="white"/>
<path d="M75.4323 35.3086C70.9195 35.3086 67.9733 38.8711 67.9733 43.5684C67.9733 48.2052 70.9364 51.6663 76.3131 51.6663C78.9079 51.6663 81.117 50.8664 82.7074 49.5645L81.498 47.3448C80.3197 48.2322 78.5232 49.0597 76.4018 49.0597C73.0435 49.0597 71.4204 47.2259 71.126 44.5317H71.1366H82.8638C82.8955 44.2159 82.9145 43.8964 82.9145 43.5684C82.9145 38.8711 80.6557 35.3086 75.4323 35.3086ZM71.171 42.1337C71.5604 39.7469 73.2982 37.894 75.5823 37.894C78.351 37.894 79.6957 39.7628 79.9382 42.1337H71.171Z" fill="white"/>
<path d="M93.4529 48.9981C90.3286 48.9981 88.0281 46.6388 88.0281 43.2907C88.0281 40.4304 89.8631 37.9417 93.2769 37.9417C94.8287 37.9417 96.3927 38.3541 98.1892 39.5154C98.1892 39.5154 98.9685 38.1046 99.434 37.2506C97.5958 35.9407 95.4723 35.291 93.1955 35.291C88.2526 35.291 84.9366 38.7766 84.9366 43.4738C84.9366 48.0501 88.2426 51.6662 93.2463 51.6662C95.6995 51.6662 97.8394 50.9582 99.4303 49.6562L98.2209 47.436C97.0421 48.324 95.337 48.9981 93.4529 48.9981Z" fill="white"/>
</svg>
