<svg width="80" height="105" viewBox="0 0 80 105" fill="none" xmlns="http://www.w3.org/2000/svg">
<path d="M45.3416 80.5571L33.9443 69.1233L22.5458 80.5571L33.9419 104.465L45.3416 80.5571Z" fill="#E1E7ED"/>
<path d="M33.9429 3.3562C29.5691 3.3562 26.0228 6.91854 26.0228 11.3122C26.0228 15.7058 29.5691 19.2681 33.9429 19.2681C38.3167 19.2681 41.8629 15.7058 41.8629 11.3122C41.8629 6.91854 38.3167 3.3562 33.9429 3.3562Z" fill="#E1E7ED"/>
<path d="M33.943 -32.3484C31.5306 -31.1073 0 -14.37 0 12.3734C0 35.2491 18.5588 69.9438 18.5588 69.9438L33.943 54.4616L49.3285 69.9438C49.3285 69.9438 67.8873 35.2491 67.8873 12.3734C67.8873 -14.37 36.3567 -31.1073 33.943 -32.3484ZM44.1014 44.0164L33.943 33.7944L23.7859 44.0164C23.2669 42.5981 16.4619 24.0936 16.4619 12.0211C16.4619 -4.26533 32.7216 -13.3896 33.943 -14.0577C35.1656 -13.3896 51.4253 -4.26533 51.4253 12.0211C51.4253 24.0936 44.6204 42.5981 44.1014 44.0164Z" fill="#E1E7ED"/>
</svg>
