<svg width="9" height="9" viewBox="0 0 9 9" fill="none" xmlns="http://www.w3.org/2000/svg">
<path opacity="0.5" d="M1.22745 6.54492C0.886602 6.54492 0.596483 6.66462 0.358095 6.90301C0.119706 7.1414 0 7.43152 0 7.77237C0 8.11321 0.119706 8.40334 0.358095 8.64173C0.596483 8.88012 0.886602 8.99982 1.22745 8.99982C1.56829 8.99982 1.85842 8.88012 2.09681 8.64173C2.3352 8.40334 2.45489 8.11321 2.45489 7.77237C2.45489 7.43152 2.3352 7.1414 2.09681 6.90301C1.8574 6.66361 1.56829 6.54492 1.22745 6.54492Z" fill="black"/>
<path opacity="0.5" d="M4.05257 4.94629C3.57072 4.46038 3.01887 4.07389 2.39704 3.7858C1.7752 3.4977 1.12292 3.32626 0.441233 3.27148H0.409788C0.299216 3.27148 0.206908 3.308 0.134884 3.38003C0.0456149 3.45712 0.000976562 3.55654 0.000976562 3.6803V4.54357C0.000976562 4.65008 0.0364852 4.74138 0.10648 4.81847C0.176475 4.89557 0.264731 4.93818 0.371245 4.94629C1.34712 5.03962 2.18097 5.43321 2.87381 6.12606C3.56666 6.81891 3.95925 7.65276 4.05359 8.62864C4.0617 8.73515 4.10431 8.8234 4.1814 8.8934C4.2585 8.96339 4.34979 8.9989 4.45631 8.9989H5.31958C5.44334 8.9989 5.54275 8.95426 5.61985 8.86499C5.701 8.77978 5.73752 8.67733 5.72839 8.55763C5.6726 7.87594 5.50116 7.22366 5.21408 6.60182C4.92497 5.97998 4.53848 5.42814 4.05257 4.94629Z" fill="black"/>
<path opacity="0.5" d="M8.23201 5.36527C7.77654 4.34476 7.14963 3.43787 6.35331 2.64561C5.56105 1.84827 4.65416 1.22238 3.63365 0.766902C2.61315 0.311427 1.54497 0.0557931 0.42809 0H0.408811C0.298239 0 0.203898 0.0385488 0.127816 0.11463C0.0426051 0.191726 0 0.28911 0 0.408811V1.3228C0 1.42932 0.0375342 1.52163 0.111587 1.60075C0.185639 1.67988 0.276935 1.72147 0.383449 1.72553C1.29947 1.78132 2.16985 1.99841 2.99457 2.3778C3.81929 2.75719 4.53446 3.2502 5.14209 3.85784C5.74872 4.46548 6.24274 5.18064 6.62213 6.00536C7.00153 6.83009 7.21658 7.70046 7.2673 8.61648C7.27136 8.72299 7.31295 8.81328 7.39208 8.88835C7.4712 8.9624 7.56554 8.99993 7.67612 8.99993H8.59011C8.70981 8.99993 8.8072 8.95732 8.88429 8.87211C8.9695 8.7869 9.00805 8.68648 8.99993 8.57185C8.94414 7.45396 8.6885 6.38577 8.23201 5.36527Z" fill="black"/>
</svg>
