<svg width="53" height="53" viewBox="0 0 53 53" fill="none" xmlns="http://www.w3.org/2000/svg">
<g clip-path="url(#clip0)">
<path d="M51.6438 6.25125C52.1478 6.25125 52.5566 5.84265 52.5566 5.33838V0.862866C52.5566 0.358598 52.1478 -0.05 51.6438 -0.05H1.35627C0.852192 -0.05 0.443408 0.358598 0.443408 0.862866V5.33838C0.443408 5.84265 0.852192 6.25125 1.35627 6.25125H2.93726V33.0388H1.35627C0.852192 33.0388 0.443408 33.4474 0.443408 33.9517V38.4272C0.443408 38.9315 0.852192 39.3401 1.35627 39.3401H25.5872V41.9271L16.1847 51.4974C15.8314 51.857 15.8365 52.435 16.1961 52.7882C16.5557 53.1421 17.1339 53.1363 17.4872 52.7767L20.8112 49.3933H32.1888L35.5129 52.7767C35.866 53.1364 36.4444 53.1415 36.8039 52.7882C37.1635 52.4349 37.1686 51.8569 36.8154 51.4974L27.4129 41.9271V39.3401H51.6438C52.1478 39.3401 52.5566 38.9315 52.5566 38.4272V33.9517C52.5566 33.4474 52.1478 33.0388 51.6438 33.0388H50.0628V6.25125H51.6438ZM26.4998 43.6029L30.395 47.5676H22.6048L26.4998 43.6029ZM50.7309 34.8644V37.5142H2.26914V34.8644H3.85013H49.1499H50.7309ZM4.763 33.0387V6.25125H48.237V33.0387H4.763ZM2.26914 4.42551V1.77573H50.7309V4.42551H50.7128H50.6935H50.6732H50.6521H50.63H50.607H50.5831H50.5583H50.5326H50.506H50.4785H50.4502H50.4209H50.3908H50.3598H50.3279H50.2952H50.2616H50.2271H50.1918H50.1556H50.1185H50.0807H50.0419H50.0024H49.962H49.9208H49.8787H49.8358H49.7921H49.7476H49.7023H49.6561H49.6092H49.5614H49.5129H49.4636H49.4134H49.3625H49.3108H49.2583H49.2051H49.151H49.0962H49.0406H48.9843H48.9272H48.8694H48.8108H48.7514H48.6914H48.6305H48.569H48.5067H48.4437H48.3799H48.3154H48.2503H48.1844H48.1177H48.0504H47.9824H47.9137H47.8443H47.7742H47.7034H47.6319H47.5597H47.4869H47.4134H47.3392H47.2643H47.1888H47.1126H47.0358H46.9583H46.8802H46.8014H46.722H46.642H46.5613H46.48H46.398H46.3155H46.2323H46.1485H46.0641H45.9791H45.8935H45.8073H45.7204H45.633H45.545H45.4565H45.3673H45.2776H45.1872H45.0964H45.0049H44.9129H44.8203H44.7272H44.6335H44.5392H44.4445H44.3491H44.2533H44.1569H44.06H43.9625H43.8645H43.766H43.667H43.5675H43.4675H43.367H43.2659H43.1644H43.0624H42.9598H42.8568H42.7534H42.6494H42.5449H42.44H42.3347H42.2288H42.1225H42.0157H41.9085H41.8009H41.6927H41.5842H41.4752H41.3658H41.2559H41.1456H41.0349H40.9238H40.8122H40.7003H40.5879H40.4751H40.362H40.2484H40.1344H40.0201H39.9053H39.7902H39.6747H39.5588H39.4425H39.3259H39.2089H39.0915H38.9738H38.8558H38.7373H38.6186H38.4995H38.38H38.2602H38.1401H38.0197H37.8989H37.7778H37.6564H37.5347H37.4127H37.2903H37.1677H37.0447H36.9215H36.798H36.6742H36.5501H36.4257H36.301H36.1761H36.0509H35.9254H35.7997H35.6737H35.5475H35.421H35.2942H35.1673H35.04H34.9126H34.7849H34.657H34.5288H34.4004H34.2718H34.143H34.014H33.8848H33.7554H33.6258H33.4959H33.3659H33.2357H33.1053H32.9748H32.844H32.7131H32.582H32.4507H32.3193H32.1877H32.056H31.9241H31.7921H31.6599H31.5275H31.3951H31.2625H31.1298H30.9969H30.8639H30.7308H30.5976H30.4643H30.3309H30.1973H30.0637H29.93H29.7961H29.6622H29.5282H29.3941H29.26H29.1257H28.9914H28.8571H28.7226H28.5881H28.4536H28.319H28.1843H28.0496H27.9148H27.7801H27.6452H27.5104H27.3755H27.2406H27.1057H26.9707H26.8358H26.7008H26.5659H26.4309H26.2959H26.161H26.026H25.8911H25.7562H25.6213H25.4864H25.3516H25.2167H25.082H24.9472H24.8125H24.6779H24.5433H24.4087H24.2742H24.1398H24.0054H23.8711H23.7369H23.6027H23.4687H23.3347H23.2008H23.067H22.9333H22.7996H22.6661H22.5327H22.3994H22.2662H22.1331H22.0002H21.8673H21.7346H21.6021H21.4696H21.3373H21.2051H21.0731H20.9413H20.8095H20.678H20.5466H20.4153H20.2843H20.1534H20.0227H19.8921H19.7618H19.6316H19.5016H19.3718H19.2422H19.1128H18.9836H18.8546H18.7259H18.5973H18.469H18.3408H18.213H18.0853H17.9579H17.8307H17.7037H17.577H17.4506H17.3244H17.1984H17.0727H16.9473H16.8221H16.6973H16.5726H16.4483H16.3242H16.2005H16.077H15.9538H15.8309H15.7083H15.586H15.464H15.3424H15.221H15.0999H14.9792H14.8588H14.7388H14.619H14.4996H14.3806H14.2619H14.1435H14.0255H13.9078H13.7905H13.6736H13.557H13.4408H13.325H13.2095H13.0944H12.9798H12.8654H12.7515H12.638H12.5249H12.4122H12.2999H12.188H12.0765H11.9654H11.8548H11.7446H11.6348H11.5254H11.4165H11.308H11.1999H11.0923H10.9852H10.8785H10.7723H10.6665H10.5612H10.4563H10.352H10.2481H10.1447H10.0417H9.93927H9.83732H9.73586H9.6349H9.53444H9.43448H9.33504H9.23611H9.13769H9.03979H8.94242H8.84557H8.74926H8.65348H8.55824H8.46354H8.36938H8.27578H8.18273H8.09023H7.9983H7.90693H7.81613H7.7259H7.63624H7.54716H7.45867H7.37076H7.28344H7.19672H7.11059H7.02506H6.94014H6.85582H6.77212H6.68903H6.60656H6.52472H6.4435H6.36291H6.28296H6.20364H6.12496H6.04693H5.96955H5.89282H5.81675H5.74133H5.66658H5.59249H5.51908H5.44634H5.37428H5.3029H5.2322H5.1622H5.09288H5.02427H4.95635H4.88914H4.82263H4.75683H4.69175H4.62739H4.56375H4.50084H4.43865H4.3772H4.31648H4.25651H4.19728H4.13879H4.08106H4.02409H3.96787H3.91241H3.85772H3.8038H3.75066H3.69829H3.6467H3.5959H3.54588H3.49666H3.44823H3.4006H3.35377H3.30775H3.26254H3.21815H3.17457H3.13181H3.08988H3.04877H3.0085H2.96907H2.93047H2.89272H2.85581H2.81975H2.78455H2.75021H2.71673H2.68411H2.65236H2.62149H2.59149H2.56237H2.53414H2.50679H2.48033H2.45477H2.4301H2.40634H2.38349H2.36154H2.34051H2.32039H2.30119H2.28292H2.26914Z" fill="white" stroke="white" stroke-width="0.1"/>
</g>
<defs>
<clipPath id="clip0">
<rect width="53" height="53" fill="white"/>
</clipPath>
</defs>
</svg>
