<svg width="53" height="53" viewBox="0 0 53 53" fill="none" xmlns="http://www.w3.org/2000/svg">
<path d="M37.6415 4.82977L37.5547 4.73544V4.86362V9.26964V9.31964H37.6047H41.6587H41.7727L41.6955 9.23579L37.6415 4.82977ZM34.9239 2.73072V2.68072H34.8739H10.1627C9.84793 2.68072 9.59245 2.93561 9.59245 3.25026V49.7493C9.59245 50.063 9.84766 50.3206 10.1627 50.3206H42.8357C43.1509 50.3206 43.4077 50.0632 43.4077 49.7493V11.9975V11.9475H43.3577H36.24C35.5144 11.9475 34.9239 11.3597 34.9239 10.6349V2.73072ZM10.1627 0.05H36.8157L46.0369 10.0695V49.7492C46.0369 51.515 44.6022 52.9499 42.8371 52.9499H10.1627C8.3992 52.9499 6.96309 51.515 6.96309 49.7492V3.25026C6.96309 1.48711 8.39922 0.05 10.1627 0.05ZM14.4571 14.5663H37.6338C38.1708 14.5663 38.6064 15.0019 38.6064 15.5388C38.6064 16.0758 38.1708 16.5114 37.6338 16.5114H14.4571C13.9202 16.5114 13.4846 16.0758 13.4846 15.5388C13.4846 15.002 13.9202 14.5663 14.4571 14.5663ZM38.6064 22.4102C38.6064 22.9471 38.1708 23.3828 37.6338 23.3828H14.4571C13.9202 23.3828 13.4846 22.9472 13.4846 22.4102C13.4846 21.8733 13.9202 21.4377 14.4571 21.4377H37.6338C38.1708 21.4377 38.6064 21.8734 38.6064 22.4102ZM38.6064 29.0566C38.6064 29.5936 38.1708 30.0291 37.6338 30.0291H14.4571C13.9202 30.0291 13.4846 29.5936 13.4846 29.0566C13.4846 28.5196 13.9202 28.0841 14.4571 28.0841H37.6338C38.1708 28.0841 38.6064 28.5196 38.6064 29.0566ZM38.6064 35.8162C38.6064 36.3531 38.1708 36.7887 37.6338 36.7887H14.4571C13.9202 36.7887 13.4846 36.3531 13.4846 35.8162C13.4846 35.2792 13.9202 34.8436 14.4571 34.8436H37.6338C38.1708 34.8436 38.6064 35.2792 38.6064 35.8162Z" fill="white" stroke="#C39367" stroke-width="0.1"/>
</svg>
