<svg width="12" height="10" viewBox="0 0 12 10" fill="none" xmlns="http://www.w3.org/2000/svg">
<path d="M0.197354 4.65913L2.76908 5.61901L3.76409 8.81998C3.82815 9.02456 4.07819 9.10102 4.24454 8.96463L5.67764 7.79604C5.82746 7.67308 6.04237 7.66792 6.19943 7.78157L8.78561 9.65896C8.96333 9.78812 9.21544 9.69099 9.2609 9.47608L11.1548 0.365007C11.2034 0.130462 10.973 -0.0658526 10.7488 0.0209392L0.193223 4.09292C-0.0661191 4.19211 -0.0640549 4.56098 0.197354 4.65913ZM3.60394 5.10756L8.63063 2.01198C8.72052 1.95619 8.81351 2.07915 8.73601 2.15044L4.58757 6.00648C4.44189 6.14183 4.34787 6.32368 4.321 6.52102L4.17945 7.56873C4.16085 7.70822 3.96453 7.72268 3.92527 7.58732L3.38179 5.67791C3.32083 5.45886 3.41176 5.22638 3.60394 5.10756Z" fill="#623B2A"/>
</svg>
