<svg width="55" height="55" viewBox="0 0 55 55" fill="none" xmlns="http://www.w3.org/2000/svg">
<g clip-path="url(#clip0)">
<path d="M50.244 18.9259H37.9986V8.99716C37.9986 6.41691 35.878 4.29639 33.2978 4.29639H4.70078C2.12061 4.29639 0 6.41691 0 8.99716V26.2069C0 28.7871 2.12061 30.9077 4.70078 30.9077H7.48326L10.9889 35.6084C11.185 35.9394 11.5834 36.0742 11.9818 36.0742C12.3802 36.0742 12.7112 35.8781 12.9747 35.6084L16.4804 30.9077H17.0074V40.8364C17.0074 43.4166 19.128 45.5371 21.7082 45.5371H38.5196L42.0252 50.2379C42.2213 50.5688 42.6197 50.7037 43.0181 50.7037C43.4165 50.7037 43.7475 50.5075 44.011 50.2379L47.5167 45.5371H50.2991C52.8794 45.5371 54.9999 43.4165 54.9999 40.8364V23.6266C55.0061 21.0403 52.8917 18.9259 50.244 18.9259ZM15.8246 28.4561C15.4262 28.4561 15.0952 28.6522 14.8317 28.9219L11.9205 32.7585L9.00932 28.9219C8.8132 28.5909 8.41486 28.4561 8.01642 28.4561H4.57207C3.31565 28.4561 2.32275 27.4632 2.32275 26.2068V8.99716C2.32275 7.74074 3.31565 6.74784 4.57207 6.74784H33.1691C34.4256 6.74784 35.4184 7.74074 35.4184 8.99716V20.1823V26.2069C35.4184 27.4633 34.4255 28.4562 33.1691 28.4562H18.2026L15.8246 28.4561ZM52.5607 40.8364C52.5607 42.0928 51.5678 43.0857 50.3115 43.0857H46.8671C46.4688 43.0857 46.1377 43.2818 45.8742 43.5514L42.963 47.3881L40.0518 43.5514C39.8557 43.2205 39.4574 43.0857 39.0589 43.0857H21.7144C20.458 43.0857 19.4651 42.0928 19.4651 40.8364V30.9077H33.2978C34.2233 30.9077 35.0874 30.6441 35.8107 30.1783H45.0774C45.7393 30.1783 46.2664 29.6512 46.2664 28.9893C46.2664 28.3273 45.7394 27.8003 45.0774 27.8003H37.7964C37.9925 27.3345 38.0599 26.8074 38.0599 26.2129V21.4447H50.3052C51.5617 21.4447 52.5546 22.4376 52.5546 23.694V40.8364H52.5607ZM46.2051 35.8046C46.2051 36.4665 45.6781 36.9937 45.0161 36.9937H27.0097C26.3478 36.9937 25.8207 36.4666 25.8207 35.8046C25.8207 35.1427 26.3477 34.6156 27.0097 34.6156H45.0161C45.672 34.6095 46.2051 35.1427 46.2051 35.8046ZM27.8677 22.3641H9.92869C9.26682 22.3641 8.73968 21.837 8.73968 21.1751C8.73968 20.5131 9.26673 19.9861 9.92869 19.9861H27.8677C28.5296 19.9861 29.0567 20.5131 29.0567 21.1751C29.1241 21.837 28.5297 22.3641 27.8677 22.3641ZM8.73968 14.2925C8.73968 13.6306 9.26673 13.1035 9.92869 13.1035H20.7154C21.3772 13.1035 21.9044 13.6305 21.9044 14.2925C21.9044 14.9544 21.3773 15.4815 20.7154 15.4815H9.92869C9.26673 15.4814 8.73968 14.9544 8.73968 14.2925Z" fill="white" stroke="#C39367" stroke-width="0.2"/>
</g>
<defs>
<clipPath id="clip0">
<rect width="55" height="55" fill="white"/>
</clipPath>
</defs>
</svg>
