<svg width="29" height="25" viewBox="0 0 29 25" fill="none" xmlns="http://www.w3.org/2000/svg">
<mask id="path-1-outside-1" maskUnits="userSpaceOnUse" x="-1" y="-0.734619" width="31" height="26" fill="black">
<rect fill="white" x="-1" y="-0.734619" width="31" height="26"/>
<path d="M26.4923 7.97911H20.0356V2.74397C20.0356 1.38348 18.9175 0.265381 17.557 0.265381H2.47859C1.11814 0.265381 0 1.38348 0 2.74397V11.8182C0 13.1787 1.11814 14.2968 2.47859 14.2968H3.94572L5.79415 16.7754C5.89756 16.9499 6.10759 17.021 6.31768 17.021C6.52776 17.021 6.70226 16.9176 6.84121 16.7754L8.68964 14.2968H8.96754V19.5319C8.96754 20.8924 10.0857 22.0105 11.4461 22.0105H20.3103L22.1587 24.4891C22.2622 24.6636 22.4722 24.7347 22.6823 24.7347C22.8924 24.7347 23.0669 24.6313 23.2058 24.4891L25.0542 22.0105H26.5214C27.8819 22.0105 29 20.8924 29 19.5319V10.4577C29.0032 9.09398 27.8884 7.97911 26.4923 7.97911ZM8.34388 13.0042C8.13384 13.0042 7.9593 13.1076 7.82035 13.2497L6.28536 15.2727L4.75037 13.2497C4.64696 13.0752 4.43692 13.0042 4.22684 13.0042H2.41073C1.74825 13.0042 1.22472 12.4806 1.22472 11.8182V2.74397C1.22472 2.0815 1.74825 1.55797 2.41073 1.55797H17.4892C18.1517 1.55797 18.6751 2.0815 18.6751 2.74397V8.64159V11.8182C18.6751 12.4807 18.1516 13.0042 17.4892 13.0042H9.59774L8.34388 13.0042ZM27.7138 19.5319C27.7138 20.1944 27.1903 20.7179 26.5279 20.7179H24.7117C24.5017 20.7179 24.3272 20.8213 24.1882 20.9635L22.6532 22.9865L21.1182 20.9635C21.0148 20.789 20.8048 20.7179 20.5947 20.7179H11.4494C10.7869 20.7179 10.2634 20.1944 10.2634 19.5319V14.2968H17.557C18.045 14.2968 18.5006 14.1578 18.882 13.9122H23.7681C24.1171 13.9122 24.395 13.6343 24.395 13.2853C24.395 12.9363 24.1171 12.6583 23.7681 12.6583H19.929C20.0324 12.4128 20.068 12.1348 20.068 11.8214V9.30724H26.5246C27.1871 9.30724 27.7106 9.83077 27.7106 10.4932V19.5319H27.7138ZM24.3627 16.8788C24.3627 17.2278 24.0848 17.5058 23.7358 17.5058H14.2415C13.8925 17.5058 13.6145 17.2279 13.6145 16.8788C13.6145 16.5298 13.8924 16.2519 14.2415 16.2519H23.7358C24.0816 16.2487 24.3627 16.5298 24.3627 16.8788ZM14.6939 9.792H5.23513C4.88614 9.792 4.60819 9.5141 4.60819 9.16507C4.60819 8.81603 4.8861 8.53813 5.23513 8.53813H14.6939C15.0429 8.53813 15.3208 8.81603 15.3208 9.16507C15.3564 9.5141 15.0429 9.792 14.6939 9.792ZM4.60819 5.53606C4.60819 5.18707 4.8861 4.90913 5.23513 4.90913H10.9227C11.2716 4.90913 11.5496 5.18703 11.5496 5.53606C11.5496 5.88505 11.2717 6.16299 10.9227 6.16299H5.23513C4.8861 6.16295 4.60819 5.88505 4.60819 5.53606Z"/>
</mask>
<path d="M26.4923 7.97911H20.0356V2.74397C20.0356 1.38348 18.9175 0.265381 17.557 0.265381H2.47859C1.11814 0.265381 0 1.38348 0 2.74397V11.8182C0 13.1787 1.11814 14.2968 2.47859 14.2968H3.94572L5.79415 16.7754C5.89756 16.9499 6.10759 17.021 6.31768 17.021C6.52776 17.021 6.70226 16.9176 6.84121 16.7754L8.68964 14.2968H8.96754V19.5319C8.96754 20.8924 10.0857 22.0105 11.4461 22.0105H20.3103L22.1587 24.4891C22.2622 24.6636 22.4722 24.7347 22.6823 24.7347C22.8924 24.7347 23.0669 24.6313 23.2058 24.4891L25.0542 22.0105H26.5214C27.8819 22.0105 29 20.8924 29 19.5319V10.4577C29.0032 9.09398 27.8884 7.97911 26.4923 7.97911ZM8.34388 13.0042C8.13384 13.0042 7.9593 13.1076 7.82035 13.2497L6.28536 15.2727L4.75037 13.2497C4.64696 13.0752 4.43692 13.0042 4.22684 13.0042H2.41073C1.74825 13.0042 1.22472 12.4806 1.22472 11.8182V2.74397C1.22472 2.0815 1.74825 1.55797 2.41073 1.55797H17.4892C18.1517 1.55797 18.6751 2.0815 18.6751 2.74397V8.64159V11.8182C18.6751 12.4807 18.1516 13.0042 17.4892 13.0042H9.59774L8.34388 13.0042ZM27.7138 19.5319C27.7138 20.1944 27.1903 20.7179 26.5279 20.7179H24.7117C24.5017 20.7179 24.3272 20.8213 24.1882 20.9635L22.6532 22.9865L21.1182 20.9635C21.0148 20.789 20.8048 20.7179 20.5947 20.7179H11.4494C10.7869 20.7179 10.2634 20.1944 10.2634 19.5319V14.2968H17.557C18.045 14.2968 18.5006 14.1578 18.882 13.9122H23.7681C24.1171 13.9122 24.395 13.6343 24.395 13.2853C24.395 12.9363 24.1171 12.6583 23.7681 12.6583H19.929C20.0324 12.4128 20.068 12.1348 20.068 11.8214V9.30724H26.5246C27.1871 9.30724 27.7106 9.83077 27.7106 10.4932V19.5319H27.7138ZM24.3627 16.8788C24.3627 17.2278 24.0848 17.5058 23.7358 17.5058H14.2415C13.8925 17.5058 13.6145 17.2279 13.6145 16.8788C13.6145 16.5298 13.8924 16.2519 14.2415 16.2519H23.7358C24.0816 16.2487 24.3627 16.5298 24.3627 16.8788ZM14.6939 9.792H5.23513C4.88614 9.792 4.60819 9.5141 4.60819 9.16507C4.60819 8.81603 4.8861 8.53813 5.23513 8.53813H14.6939C15.0429 8.53813 15.3208 8.81603 15.3208 9.16507C15.3564 9.5141 15.0429 9.792 14.6939 9.792ZM4.60819 5.53606C4.60819 5.18707 4.8861 4.90913 5.23513 4.90913H10.9227C11.2716 4.90913 11.5496 5.18703 11.5496 5.53606C11.5496 5.88505 11.2717 6.16299 10.9227 6.16299H5.23513C4.8861 6.16295 4.60819 5.88505 4.60819 5.53606Z" fill="white"/>
<path d="M26.4923 7.97911H20.0356V2.74397C20.0356 1.38348 18.9175 0.265381 17.557 0.265381H2.47859C1.11814 0.265381 0 1.38348 0 2.74397V11.8182C0 13.1787 1.11814 14.2968 2.47859 14.2968H3.94572L5.79415 16.7754C5.89756 16.9499 6.10759 17.021 6.31768 17.021C6.52776 17.021 6.70226 16.9176 6.84121 16.7754L8.68964 14.2968H8.96754V19.5319C8.96754 20.8924 10.0857 22.0105 11.4461 22.0105H20.3103L22.1587 24.4891C22.2622 24.6636 22.4722 24.7347 22.6823 24.7347C22.8924 24.7347 23.0669 24.6313 23.2058 24.4891L25.0542 22.0105H26.5214C27.8819 22.0105 29 20.8924 29 19.5319V10.4577C29.0032 9.09398 27.8884 7.97911 26.4923 7.97911ZM8.34388 13.0042C8.13384 13.0042 7.9593 13.1076 7.82035 13.2497L6.28536 15.2727L4.75037 13.2497C4.64696 13.0752 4.43692 13.0042 4.22684 13.0042H2.41073C1.74825 13.0042 1.22472 12.4806 1.22472 11.8182V2.74397C1.22472 2.0815 1.74825 1.55797 2.41073 1.55797H17.4892C18.1517 1.55797 18.6751 2.0815 18.6751 2.74397V8.64159V11.8182C18.6751 12.4807 18.1516 13.0042 17.4892 13.0042H9.59774L8.34388 13.0042ZM27.7138 19.5319C27.7138 20.1944 27.1903 20.7179 26.5279 20.7179H24.7117C24.5017 20.7179 24.3272 20.8213 24.1882 20.9635L22.6532 22.9865L21.1182 20.9635C21.0148 20.789 20.8048 20.7179 20.5947 20.7179H11.4494C10.7869 20.7179 10.2634 20.1944 10.2634 19.5319V14.2968H17.557C18.045 14.2968 18.5006 14.1578 18.882 13.9122H23.7681C24.1171 13.9122 24.395 13.6343 24.395 13.2853C24.395 12.9363 24.1171 12.6583 23.7681 12.6583H19.929C20.0324 12.4128 20.068 12.1348 20.068 11.8214V9.30724H26.5246C27.1871 9.30724 27.7106 9.83077 27.7106 10.4932V19.5319H27.7138ZM24.3627 16.8788C24.3627 17.2278 24.0848 17.5058 23.7358 17.5058H14.2415C13.8925 17.5058 13.6145 17.2279 13.6145 16.8788C13.6145 16.5298 13.8924 16.2519 14.2415 16.2519H23.7358C24.0816 16.2487 24.3627 16.5298 24.3627 16.8788ZM14.6939 9.792H5.23513C4.88614 9.792 4.60819 9.5141 4.60819 9.16507C4.60819 8.81603 4.8861 8.53813 5.23513 8.53813H14.6939C15.0429 8.53813 15.3208 8.81603 15.3208 9.16507C15.3564 9.5141 15.0429 9.792 14.6939 9.792ZM4.60819 5.53606C4.60819 5.18707 4.8861 4.90913 5.23513 4.90913H10.9227C11.2716 4.90913 11.5496 5.18703 11.5496 5.53606C11.5496 5.88505 11.2717 6.16299 10.9227 6.16299H5.23513C4.8861 6.16295 4.60819 5.88505 4.60819 5.53606Z" stroke="white" stroke-width="0.4" mask="url(#path-1-outside-1)"/>
</svg>
