<svg width="14" height="8" viewBox="0 0 14 8" fill="none" xmlns="http://www.w3.org/2000/svg">
<path opacity="0.5" d="M6.84902 7.96522H7.68606C7.68606 7.96522 7.93865 7.93774 8.06759 7.79826C8.18701 7.6704 8.18279 7.43053 8.18279 7.43053C8.18279 7.43053 8.16693 6.30516 8.68797 6.14032C9.2016 5.97759 9.86109 7.22765 10.5607 7.70844C11.0902 8.07194 11.4918 7.99269 11.4918 7.99269L13.3614 7.96627C13.3614 7.96627 14.339 7.90604 13.8751 7.13572C13.837 7.07232 13.6056 6.56617 12.4853 5.52533C11.3132 4.43589 11.4707 4.6113 12.8827 2.72617C13.7429 1.57861 14.0864 0.876967 13.9786 0.577924C13.8761 0.291562 13.2441 0.367642 13.2441 0.367642L11.1388 0.380324C11.1388 0.380324 10.9824 0.35919 10.8672 0.427875C10.7541 0.495503 10.6812 0.654004 10.6812 0.654004C10.6812 0.654004 10.3483 1.54162 9.90336 2.29821C8.96592 3.89169 8.59179 3.97728 8.43855 3.87796C8.08027 3.64548 8.16905 2.94913 8.16905 2.45566C8.16905 0.910781 8.40262 0.267259 7.71354 0.100303C7.48526 0.0442982 7.31721 0.0083704 6.73171 0.00203028C5.98028 -0.00642321 5.34616 0.00414229 4.98577 0.180609C4.74587 0.297901 4.56091 0.55996 4.674 0.574754C4.81351 0.593774 5.12845 0.659289 5.29543 0.887533C5.51103 1.18129 5.50364 1.84172 5.50364 1.84172C5.50364 1.84172 5.62729 3.66028 5.21511 3.88641C4.93082 4.04174 4.54189 3.72579 3.70591 2.27813C3.27788 1.5374 2.95448 0.718463 2.95448 0.718463C2.95448 0.718463 2.89107 0.565243 2.7801 0.483879C2.64482 0.38455 2.4567 0.352849 2.4567 0.352849L0.457109 0.36553C0.457109 0.36553 0.156959 0.373984 0.0459887 0.505013C-0.0522997 0.621248 0.0375344 0.862172 0.0375344 0.862172C0.0375344 0.862172 1.60381 4.53204 3.37617 6.38124C5.00268 8.07617 6.84902 7.96522 6.84902 7.96522Z" fill="black"/>
</svg>
