<svg width="27" height="27" viewBox="0 0 27 27" fill="none" xmlns="http://www.w3.org/2000/svg">
<g clip-path="url(#clip0)">
<path d="M27.0146 12.5777V12.4277H26.8646H25.7191V6.61864C25.7191 5.10717 24.4897 3.87778 22.9783 3.87778H21.312L19.5595 0.726817C19.2593 0.185693 18.6883 -0.15 18.0691 -0.15C17.7802 -0.15 17.494 -0.0755645 17.2413 0.0646816L17.2412 0.0647484L10.3845 3.8777H2.72648C1.21501 3.8777 -0.0143799 5.10709 -0.0143799 6.61856V24.4091C-0.0143799 25.9205 1.21501 27.1499 2.72648 27.1499H22.9783C24.4897 27.1499 25.7191 25.9205 25.7191 24.4091V19.3343H26.8646H27.0146V19.1843V12.5777ZM17.8911 1.2327L17.8916 1.23244C18.0614 1.13726 18.297 1.20531 18.3912 1.3754L18.3913 1.37559L21.1277 6.29553H8.78613L17.8911 1.2327ZM22.9783 5.21408C23.6396 5.21408 24.1913 5.67608 24.3376 6.29602H22.6566L22.0554 5.21408H22.9783ZM24.3827 24.4091C24.3827 25.1833 23.7524 25.8136 22.9782 25.8136H2.72648C1.95226 25.8136 1.32191 25.1833 1.32191 24.4091V6.61864C1.32191 5.84442 1.95226 5.21408 2.72648 5.21408H7.98169L6.036 6.2961H3.05035C2.68087 6.2961 2.38217 6.59547 2.38217 6.96428C2.38217 7.3331 2.68087 7.63247 3.05035 7.63247H4.21105H23.1446H24.3827V12.4282H20.7434C18.9008 12.4282 17.4015 13.9276 17.4015 15.7701V15.9929C17.4015 17.8355 18.9009 19.3349 20.7434 19.3349H24.3827V24.4091ZM25.6782 17.998H25.5691H20.7434C19.6375 17.998 18.7377 17.0983 18.7377 15.9924V15.7695C18.7377 14.6637 19.6375 13.7639 20.7434 13.7639H25.5691H25.6782V17.998ZM21.1864 17.2176C21.9014 17.2176 22.4805 16.6386 22.4805 15.9235C22.4805 15.209 21.9015 14.6293 21.1864 14.6294C20.4715 14.6294 19.8923 15.2086 19.8923 15.9235C19.8923 16.6385 20.4714 17.2176 21.1864 17.2176Z" fill="white" stroke="white" stroke-width="0.3"/>
</g>
<defs>
<clipPath id="clip0">
<rect width="27" height="27" fill="white"/>
</clipPath>
</defs>
</svg>
