<svg width="53" height="53" viewBox="0 0 53 53" fill="none" xmlns="http://www.w3.org/2000/svg">
<g clip-path="url(#clip0)">
<path d="M52.784 24.6895V24.6395H52.734H50.2411V12.9921C50.2411 10.1602 47.9373 7.85639 45.1053 7.85639H41.6907L38.1805 1.54528C38.1805 1.54527 38.1805 1.54525 38.1805 1.54523C37.6345 0.560901 36.5955 -0.05 35.4688 -0.05C34.9435 -0.05 34.4225 0.0854435 33.9625 0.340711L33.9624 0.340733L20.4476 7.85623H5.35181C2.51986 7.85623 0.216052 10.16 0.216052 12.992V47.9141C0.216052 50.746 2.51986 53.0498 5.35181 53.0498H45.1053C47.9373 53.0498 50.2411 50.746 50.2411 47.9141V37.7081H52.734H52.784V37.6581V24.6895ZM35.0007 2.2061L35.0008 2.20601C35.4534 1.95224 36.0649 2.13023 36.315 2.58136L36.315 2.58142L41.8884 12.6023H16.3041L35.0007 2.2061ZM45.1053 9.9906C46.6264 9.9906 47.8731 11.1319 48.0667 12.6033H44.3301L42.8782 9.9906H45.1053ZM48.1067 47.9141C48.1067 49.5689 46.7599 50.9156 45.1052 50.9156H5.35181C3.69704 50.9156 2.35026 49.5689 2.35026 47.9141V12.9921C2.35026 11.3374 3.69704 9.9906 5.35181 9.9906H16.6101L11.9117 12.6035H5.98756C5.39744 12.6035 4.92038 13.0815 4.92038 13.6706C4.92038 14.2597 5.39744 14.7378 5.98756 14.7378H8.26598H45.4318H48.1067V24.6405H40.7183C37.2364 24.6405 34.4027 27.4743 34.4027 30.9561V31.3935C34.4027 34.8755 37.2365 37.7092 40.7183 37.7092H48.1067V47.9141ZM50.6496 35.5739H50.1911H40.7183C38.4126 35.5739 36.5369 33.6983 36.5369 31.3924V30.955C36.5369 28.6493 38.4124 26.7736 40.7183 26.7736H50.1911H50.6496V35.5739ZM41.588 33.5531C42.8564 33.5531 43.8838 32.5259 43.8838 31.2573C43.8838 29.9897 42.8566 28.9613 41.588 28.9615C40.3196 28.9615 39.2922 29.9888 39.2922 31.2573C39.2922 32.5257 40.3194 33.5531 41.588 33.5531Z" fill="white" stroke="white" stroke-width="0.1"/>
</g>
<defs>
<clipPath id="clip0">
<rect width="53" height="53" fill="white"/>
</clipPath>
</defs>
</svg>
