<svg width="13" height="13" viewBox="0 0 13 13" fill="none" xmlns="http://www.w3.org/2000/svg">
<g clip-path="url(#clip0)">
<path d="M6.50085 0C2.91109 0 0.000976562 2.9102 0.000976562 6.49983C0.000976562 10.0895 2.91109 13 6.5008 13C10.0905 13 13.0008 10.0896 13.0008 6.49983C13.0008 2.91007 10.0906 0 6.50085 0ZM6.9497 7.29465C6.94935 7.31173 6.94679 7.3288 6.94441 7.34592C6.94272 7.35874 6.94194 7.37187 6.93904 7.38448C6.93613 7.39761 6.93115 7.41057 6.9269 7.4237C6.92183 7.43956 6.91711 7.45538 6.91048 7.47033C6.90922 7.47293 6.90879 7.4757 6.90766 7.4783C6.89787 7.49919 6.88652 7.51877 6.87408 7.53732C6.8733 7.53845 6.87226 7.53957 6.87148 7.5407C6.85731 7.5615 6.84115 7.58039 6.82416 7.59812C6.81944 7.60297 6.81463 7.60735 6.80964 7.61194C6.79469 7.6262 6.77896 7.63924 6.76224 7.65116C6.75708 7.65488 6.75214 7.65878 6.74672 7.66238C6.72527 7.67642 6.70278 7.68877 6.67938 7.69891C6.67431 7.70116 6.66902 7.70251 6.66387 7.70455C6.64411 7.71217 6.62409 7.7185 6.60342 7.72331C6.59601 7.72509 6.58868 7.72669 6.58114 7.72803C6.55462 7.73288 6.52776 7.73622 6.50054 7.73622C6.49504 7.73622 6.48941 7.73453 6.4839 7.73432C6.45782 7.73332 6.43199 7.73128 6.40716 7.726C6.3994 7.72431 6.39178 7.72092 6.38402 7.7188C6.36088 7.71252 6.33826 7.70554 6.31668 7.69588C6.31421 7.69462 6.31161 7.6944 6.30914 7.69328L3.81681 6.51768C3.59225 6.41182 3.49605 6.14388 3.60191 5.91933C3.70778 5.6949 3.97571 5.59857 4.20026 5.70444L6.0513 6.57735V2.69747C6.0513 2.44922 6.25259 2.24793 6.50085 2.24793C6.7491 2.24793 6.95039 2.44922 6.95039 2.69747V7.28655H6.95048C6.95048 7.28924 6.9497 7.29192 6.9497 7.29465Z" fill="white"/>
</g>
<defs>
<clipPath id="clip0">
<rect width="13" height="13" fill="white"/>
</clipPath>
</defs>
</svg>
